<svg width="40" height="40" viewBox="0 0 40 40" fill="none" xmlns="http://www.w3.org/2000/svg">
<g clip-path="url(#clip0_409_63)">
<g clip-path="url(#clip1_409_63)">
<g clip-path="url(#clip2_409_63)">
<path fill-rule="evenodd" clip-rule="evenodd" d="M36.1887 10.1215C36.1887 8.34456 34.7482 6.90405 32.9713 6.90405H7.23168C5.45473 6.90405 4.01422 8.34456 4.01422 10.1215V29.4262C4.01422 31.2032 5.45473 32.6437 7.23168 32.6437H32.9713C34.7482 32.6437 36.1887 31.2032 36.1887 29.4262V10.1215ZM16.884 27.0131C16.884 27.4574 16.5239 27.8175 16.0797 27.8175H11.2535C10.8092 27.8175 10.4491 27.4574 10.4491 27.0131V25.4044C10.4491 24.9601 10.8092 24.6 11.2535 24.6H16.0797C16.5239 24.6 16.884 24.9601 16.884 25.4044V27.0131ZM32.1669 19.7738C32.6112 19.7738 32.9713 19.4137 32.9713 18.9695V15.7521C32.9713 15.3078 32.6112 14.9477 32.1669 14.9477H8.03604C7.5918 14.9477 7.23168 15.3078 7.23168 15.7521V18.9695C7.23168 19.4137 7.5918 19.7738 8.03604 19.7738H32.1669Z" fill="#6FDBD4"/>
</g>
</g>
</g>
<defs>
<clipPath id="clip0_409_63">
<rect width="38.6094" height="38.6094" fill="white" transform="translate(0.796875 0.46875)"/>
</clipPath>
<clipPath id="clip1_409_63">
<rect width="38.6094" height="38.6094" fill="white" transform="translate(0.796875 0.46875)"/>
</clipPath>
<clipPath id="clip2_409_63">
<rect width="38.6094" height="38.6094" fill="white" transform="translate(0.796875 0.46875)"/>
</clipPath>
</defs>
</svg>
