<svg width="217" height="744" viewBox="0 0 217 744" fill="none" xmlns="http://www.w3.org/2000/svg">
<rect x="0.03125" y="-12.5028" width="216" height="216" rx="36.6897" fill="white" fill-opacity="0.930588"/>
<g opacity="0.930588" clip-path="url(#clip0_409_137)">
<path d="M117.391 31.0654L117.342 59.4106L117.294 87.7558L115.069 81.1756V81.1588L112.184 144.261C115.021 152.629 116.536 157.1 116.552 157.117C116.569 157.134 118.181 157.235 120.131 157.336C126.032 157.64 133.35 158.298 138.912 159.024C140.202 159.192 141.298 159.277 141.379 159.209C141.459 159.141 141.475 130.29 141.459 95.0783L141.411 31.0654H117.391Z" fill="#B1060F"/>
<path d="M73.945 30.9816V95.0619C73.945 130.308 73.9772 159.176 74.0256 159.227C74.074 159.277 76.1536 159.058 78.6685 158.771C81.1833 158.484 84.6493 158.113 86.3743 157.961C89.0182 157.725 96.9497 157.202 97.8524 157.185C98.1265 157.185 98.1426 155.751 98.1748 130.038L98.2232 102.891L100.142 108.56C100.432 109.437 100.528 109.707 100.819 110.567L103.704 47.4826C103.092 45.6772 103.414 46.622 102.721 44.5636C100.367 37.5955 98.3683 31.7071 98.2876 31.4371L98.1265 30.9647H73.945V30.9816Z" fill="#B1060F"/>
<path d="M117.391 31.0654L117.342 59.4106L117.294 87.7558L115.069 81.1756V81.1588L112.184 144.261C115.021 152.629 116.536 157.1 116.552 157.117C116.569 157.134 118.181 157.235 120.131 157.336C126.032 157.64 133.35 158.298 138.912 159.024C140.202 159.192 141.298 159.277 141.379 159.209C141.459 159.141 141.475 130.29 141.459 95.0783L141.411 31.0654H117.391Z" fill="#B1060F"/>
<path d="M73.945 30.9816V95.0619C73.945 130.308 73.9772 159.176 74.0256 159.227C74.074 159.277 76.1536 159.058 78.6685 158.771C81.1833 158.484 84.6493 158.113 86.3743 157.961C89.0182 157.725 96.9497 157.202 97.8524 157.185C98.1265 157.185 98.1426 155.751 98.1748 130.038L98.2232 102.891L100.142 108.56C100.432 109.437 100.528 109.707 100.819 110.567L103.704 47.4826C103.092 45.6772 103.414 46.622 102.721 44.5636C100.367 37.5955 98.3683 31.7071 98.2876 31.4371L98.1265 30.9647H73.945V30.9816Z" fill="#B1060F"/>
<path d="M73.945 30.9816V66.953L98.1587 134.172C98.1587 132.636 98.1587 131.792 98.1748 130.038L98.2232 102.891L100.142 108.56C110.781 140.144 116.504 157.084 116.537 157.117C116.553 157.134 118.165 157.235 120.115 157.337C126.016 157.641 133.335 158.299 138.896 159.024C140.186 159.193 141.282 159.277 141.363 159.21C141.411 159.159 141.444 145.02 141.444 125.061L117.359 52.5442L117.343 59.4111L117.294 87.7563L115.07 81.1762C112.893 74.7479 111.442 70.4455 102.689 44.5636C100.335 37.5955 98.3361 31.7071 98.2554 31.4371L98.0943 30.9647H73.945V30.9816Z" fill="url(#paint0_radial_409_137)"/>
<path d="M73.945 30.9816L98.2071 102.941V102.907L100.125 108.577C110.781 140.144 116.504 157.084 116.537 157.117C116.553 157.134 118.165 157.235 120.115 157.337C126.016 157.641 133.335 158.299 138.896 159.024C140.17 159.193 141.282 159.277 141.347 159.21L117.294 87.7394V87.7563L115.07 81.1762C112.893 74.7479 111.442 70.4455 102.689 44.5636C100.335 37.5955 98.3361 31.7071 98.2554 31.4371L98.0942 30.9647H86.0196L73.945 30.9816Z" fill="#E50914"/>
</g>
<rect x="0.03125" y="257.56" width="216" height="216" rx="36.6897" fill="white" fill-opacity="0.930588"/>
<g opacity="0.930588" clip-path="url(#clip1_409_137)">
<path d="M169.948 332.579C165.895 332.579 163.021 335.749 163.021 340.616V358.47H156.835V327.045H162.947V330.882C163.701 329.61 164.781 328.563 166.075 327.849C167.37 327.135 168.833 326.781 170.31 326.822H172.533V332.579H169.948ZM152.56 342.757C152.56 333.386 145.893 326.378 136.87 326.378C134.738 326.392 132.63 326.828 130.667 327.66C128.704 328.493 126.925 329.705 125.432 331.227C123.939 332.749 122.763 334.552 121.969 336.531C121.176 338.509 120.781 340.626 120.808 342.757C120.808 352.121 128.031 359.204 137.455 359.204C140.087 359.253 142.692 358.67 145.052 357.502C147.411 356.333 149.455 354.615 151.011 352.492L146.523 349.203C145.492 350.64 144.13 351.807 142.551 352.603C140.972 353.399 139.223 353.8 137.455 353.774C134.936 353.762 132.506 352.848 130.603 351.198C128.7 349.548 127.452 347.271 127.083 344.78H152.575L152.56 342.757ZM127.217 339.876C128.32 335.083 132.15 331.838 136.795 331.838C141.44 331.838 145.263 335.083 146.3 339.876H127.217ZM101.214 326.378C99.1465 326.38 97.1 326.791 95.1927 327.588C93.2854 328.385 91.5549 329.553 90.1014 331.023V315.31H83.9155V358.47H90.0273V354.485C92.9881 357.48 97.0169 359.177 101.229 359.204C103.413 359.25 105.585 358.86 107.617 358.056C109.649 357.252 111.5 356.05 113.062 354.522C114.623 352.993 115.864 351.168 116.711 349.154C117.558 347.139 117.994 344.976 117.994 342.791C117.994 340.606 117.558 338.442 116.711 336.428C115.864 334.414 114.623 332.589 113.062 331.06C111.5 329.531 109.649 328.33 107.617 327.526C105.585 326.722 103.413 326.331 101.229 326.378H101.214ZM100.769 353.677C98.6131 353.688 96.5025 353.057 94.7052 351.866C92.908 350.675 91.505 348.976 90.6745 346.987C89.8439 344.997 89.6232 342.805 90.0402 340.69C90.4573 338.574 91.4934 336.63 93.0169 335.105C94.5406 333.579 96.483 332.54 98.5979 332.12C100.713 331.7 102.905 331.918 104.896 332.746C106.887 333.574 108.587 334.974 109.78 336.77C110.974 338.566 111.607 340.675 111.6 342.832C111.602 344.254 111.323 345.662 110.779 346.976C110.235 348.29 109.438 349.484 108.431 350.489C107.425 351.494 106.23 352.29 104.915 352.833C103.6 353.374 102.191 353.651 100.769 353.648V353.677ZM61.1351 353.381C67.1062 353.381 71.7438 348.803 71.7438 341.943V315.31H78.1518V358.47H71.8178V354.388C70.338 355.918 68.5633 357.131 66.601 357.955C64.6388 358.779 62.5298 359.196 60.4018 359.181C51.1933 359.181 44.1036 352.47 44.1036 342.291V315.31H50.6303V341.98C50.6303 348.877 55.0753 353.381 61.1351 353.381Z" fill="#262626"/>
<path d="M43.2228 371.427H73.5003V378.835H51.4015V389.354H72.8854V396.511H51.4015V407.208H73.5003V414.617H43.2228V371.427ZM157.118 415.395C166.399 415.395 171.63 410.949 171.63 404.845C171.63 400.497 168.533 397.252 162.051 395.844L155.199 394.444C151.22 393.703 149.968 392.962 149.968 391.481C149.968 389.562 151.887 388.384 155.42 388.384C159.251 388.384 162.088 389.414 162.829 392.955H170.86C170.422 386.288 165.629 381.887 155.91 381.887C147.509 381.887 141.611 385.354 141.611 392.073C141.611 396.718 144.857 399.741 151.857 401.215L159.517 402.986C162.54 403.578 163.348 404.393 163.348 405.645C163.348 407.638 161.066 408.89 157.377 408.89C152.739 408.89 150.086 407.86 149.057 404.319H140.982C142.16 410.972 147.094 415.395 157.118 415.395ZM138.648 414.587H129.958C124.506 414.587 121.483 411.194 121.483 406.912V389.947H115.372V382.717H121.513V373.642H129.588V382.717H138.648V389.947H129.588V404.845C129.588 406.542 130.766 407.357 132.611 407.357H138.648V414.587ZM103.83 382.732V385.606C100.987 383.203 97.3809 381.89 93.6582 381.902C91.4293 381.855 89.2136 382.253 87.1408 383.074C85.068 383.895 83.1799 385.121 81.587 386.68C79.9942 388.24 78.7287 390.102 77.8648 392.157C77.0009 394.212 76.5559 396.419 76.5559 398.648C76.5559 400.877 77.0009 403.084 77.8648 405.139C78.7287 407.194 79.9942 409.056 81.587 410.616C83.1799 412.176 85.068 413.402 87.1408 414.223C89.2136 415.043 91.4293 415.442 93.6582 415.395C97.3815 415.411 100.989 414.097 103.83 411.69V414.572H111.882V382.717L103.83 382.732ZM94.3248 408.401C92.3932 408.423 90.4986 407.87 88.8819 406.813C87.2651 405.756 85.9992 404.242 85.245 402.463C84.4909 400.685 84.2824 398.722 84.6462 396.825C85.0101 394.928 85.9298 393.182 87.2884 391.808C88.6471 390.435 90.3834 389.497 92.2765 389.113C94.1697 388.728 96.1343 388.916 97.9208 389.651C99.7072 390.386 101.235 391.636 102.309 393.241C103.384 394.846 103.957 396.735 103.956 398.667C103.967 399.94 103.726 401.203 103.247 402.383C102.767 403.563 102.058 404.636 101.161 405.539C100.264 406.443 99.1967 407.16 98.0208 407.649C96.8448 408.138 95.5835 408.388 94.31 408.386L94.3248 408.401Z" fill="#5FB709"/>
</g>
<rect x="0.03125" y="527.622" width="216" height="216" rx="36.6897" fill="white" fill-opacity="0.930588"/>
<g opacity="0.930588" clip-path="url(#clip2_409_137)">
<path d="M50.6528 644.912C51.1975 646.315 51.9516 647.514 52.9154 648.51C53.879 649.506 55.0208 650.268 56.3404 650.797C57.6602 651.325 59.0952 651.589 60.6455 651.589C62.1539 651.589 63.5678 651.315 64.8877 650.766C66.2075 650.217 67.3596 649.445 68.3442 648.449C69.3287 647.453 70.0934 646.264 70.6381 644.882C71.1828 643.499 71.4551 641.955 71.4551 640.247V613.904H78.054V656.59H71.518V652.626C70.0516 654.13 68.3232 655.289 66.333 656.102C64.3428 656.915 62.1957 657.321 59.8913 657.321C57.545 657.321 55.3559 656.925 53.3237 656.132C51.2918 655.34 49.532 654.212 48.0447 652.748C46.5575 651.284 45.3842 649.526 44.5254 647.473C43.6664 645.42 43.237 643.134 43.237 640.613V613.904H49.8358V640.247C49.8358 641.955 50.1081 643.51 50.6528 644.912Z" fill="#010202"/>
<path d="M89.4288 613.904V629.454C90.8952 628.031 92.5922 626.903 94.5194 626.069C96.4467 625.236 98.5416 624.819 100.804 624.819C103.15 624.819 105.35 625.246 107.403 626.1C109.456 626.953 111.236 628.112 112.745 629.576C114.253 631.039 115.447 632.767 116.327 634.759C117.207 636.751 117.647 638.865 117.647 641.101C117.647 643.337 117.207 645.441 116.327 647.412C115.447 649.384 114.253 651.102 112.745 652.565C111.236 654.028 109.456 655.187 107.403 656.041C105.35 656.895 103.15 657.321 100.804 657.321C98.5415 657.321 96.4363 656.905 94.488 656.071C92.5398 655.238 90.8324 654.11 89.3659 652.687V656.59H83.0814V613.904H89.4288ZM90.1515 645.308C90.7171 646.609 91.5028 647.748 92.5083 648.723C93.5138 649.699 94.687 650.472 96.0276 651.041C97.3685 651.61 98.8139 651.894 100.364 651.894C101.873 651.894 103.297 651.61 104.638 651.041C105.978 650.472 107.141 649.699 108.126 648.723C109.11 647.748 109.896 646.609 110.482 645.308C111.069 644.008 111.362 642.605 111.362 641.101C111.362 639.597 111.069 638.184 110.482 636.863C109.896 635.541 109.11 634.393 108.126 633.417C107.141 632.442 105.978 631.679 104.638 631.131C103.297 630.582 101.872 630.307 100.364 630.307C98.8559 630.307 97.4313 630.582 96.0907 631.131C94.75 631.68 93.5769 632.442 92.5712 633.417C91.5658 634.393 90.7696 635.541 90.1831 636.863C89.5965 638.184 89.3032 639.597 89.3032 641.101C89.3031 642.605 89.5859 644.008 90.1515 645.308Z" fill="#010202"/>
<path d="M121.228 634.819C122.066 632.868 123.218 631.15 124.684 629.667C126.151 628.183 127.89 627.014 129.901 626.16C131.912 625.307 134.091 624.88 136.437 624.88C138.742 624.88 140.879 625.286 142.848 626.099C144.817 626.912 146.513 628.041 147.938 629.484C149.363 630.927 150.473 632.634 151.269 634.606C152.065 636.578 152.463 638.722 152.463 641.04V643.052H126.381C126.591 644.312 127.011 645.481 127.639 646.558C128.267 647.635 129.053 648.57 129.995 649.363C130.938 650.156 132.007 650.776 133.2 651.223C134.395 651.67 135.662 651.894 137.003 651.894C140.816 651.894 143.895 650.369 146.241 647.32L150.83 650.613C149.237 652.687 147.268 654.313 144.922 655.492C142.576 656.671 139.936 657.26 137.003 657.26C134.615 657.26 132.384 656.853 130.31 656.04C128.236 655.227 126.434 654.089 124.905 652.625C123.376 651.162 122.172 649.444 121.291 647.473C120.412 645.501 119.971 643.356 119.971 641.039C119.971 638.844 120.391 636.771 121.228 634.819ZM130.058 632.411C128.277 633.854 127.094 635.775 126.507 638.173H146.053C145.508 635.775 144.346 633.854 142.565 632.411C140.784 630.967 138.7 630.246 136.311 630.246C133.924 630.246 131.839 630.967 130.058 632.411Z" fill="#010202"/>
<path d="M164.341 633.112C163 634.535 162.33 636.466 162.33 638.906V656.59H155.982V625.49H162.267V629.332C163.063 628.072 164.1 627.075 165.377 626.344C166.655 625.612 168.174 625.246 169.934 625.246H172.133V630.978H169.494C167.399 630.978 165.681 631.69 164.341 633.112Z" fill="#010202"/>
</g>
<defs>
<radialGradient id="paint0_radial_409_137" cx="0" cy="0" r="1" gradientUnits="userSpaceOnUse" gradientTransform="translate(106.564 94.355) rotate(-19.9221) scale(4.47123 169.685)">
<stop/>
<stop offset="1" stop-opacity="0"/>
</radialGradient>
<clipPath id="clip0_409_137">
<rect width="68.7407" height="129.625" fill="white" transform="translate(73.6609 30.6847)"/>
</clipPath>
<clipPath id="clip1_409_137">
<rect width="129.617" height="100.5" fill="white" transform="translate(43.2228 315.31)"/>
</clipPath>
<clipPath id="clip2_409_137">
<rect width="129.589" height="43.4375" fill="white" transform="translate(43.237 613.904)"/>
</clipPath>
</defs>
</svg>
