<svg width="217" height="810" viewBox="0 0 217 810" fill="none" xmlns="http://www.w3.org/2000/svg">
<rect x="0.96875" y="-68.6538" width="216" height="216" rx="36.6897" fill="white" fill-opacity="0.930588"/>
<g opacity="0.930588" clip-path="url(#clip0_409_119)">
<path d="M130.828 41.3249C130.828 41.3249 130.116 41.3728 129.767 41.4282C128.418 41.6454 128.016 42.0106 128.016 43.6719V56.7758C128.016 58.5626 129.129 58.6691 130.699 58.7574C134.53 58.9747 136.756 55.5714 136.756 50.0673C136.756 44.5597 134.545 41.3251 130.828 41.3251C130.828 41.3251 130.116 41.373 129.767 41.4284C128.418 41.6457 128.016 42.0109 128.016 43.6721V56.776C128.016 58.5628 129.129 58.6693 130.699 58.7576C134.53 58.9749 136.756 55.5716 136.756 50.0675C136.756 44.5599 134.545 41.3253 130.828 41.3253L130.828 41.3249ZM90.608 41.5169C87.1717 41.5169 85.0494 44.7957 85.0494 50.2302C85.0494 55.5427 87.1376 58.7585 90.6709 58.7585C94.1083 58.7585 96.2636 55.417 96.2636 50.1714C96.2636 44.8588 94.0753 41.5169 90.608 41.5169ZM111.118 41.5169C107.681 41.5169 105.554 44.7957 105.554 50.2302C105.554 55.5427 107.648 58.7585 111.18 58.7585C114.614 58.7585 116.77 55.417 116.77 50.1714C116.77 44.8588 114.584 41.5169 111.118 41.5169ZM130.828 41.3253C130.828 41.3253 130.116 41.3732 129.767 41.4286C128.418 41.6459 128.017 42.0111 128.017 43.6723V56.7762C128.017 58.5631 129.129 58.6696 130.699 58.7579C134.53 58.9751 136.756 55.5718 136.756 50.0677C136.756 44.5601 134.545 41.3255 130.828 41.3255C130.828 41.3255 130.117 41.3734 129.767 41.4288C128.418 41.6461 128.017 42.0113 128.017 43.6725V56.7764C128.017 58.5633 129.129 58.6698 130.699 58.7581C134.53 58.9753 136.756 55.572 136.756 50.0679C136.756 44.5604 134.545 41.3257 130.828 41.3257L130.828 41.3253ZM111.118 41.5174C107.681 41.5174 105.555 44.7962 105.555 50.2306C105.555 55.5432 107.648 58.7589 111.18 58.7589C114.615 58.7589 116.77 55.4174 116.77 50.1718C116.77 44.8593 114.585 41.5174 111.118 41.5174ZM90.6082 41.5174C87.1718 41.5174 85.0496 44.7962 85.0496 50.2306C85.0496 55.5432 87.1377 58.7589 90.6711 58.7589C94.1085 58.7589 96.2637 55.4174 96.2637 50.1718C96.2637 44.8593 94.0755 41.5174 90.6082 41.5174ZM93.4163 72.3135C93.364 72.2177 92.5942 70.6257 92.5025 70.4266C92.4174 70.2498 92.2044 70.2391 92.1267 70.4342C92.0383 70.6514 91.2791 72.1774 91.2279 72.2871C91.1428 72.4681 91.2386 72.5863 91.4122 72.5863H93.2277C93.3608 72.5863 93.4929 72.4681 93.4162 72.3137L93.4163 72.3135ZM90.6082 41.5176C87.1717 41.5176 85.0495 44.7964 85.0495 50.2308C85.0495 55.5434 87.1377 58.7591 90.671 58.7591C94.1085 58.7591 96.2637 55.4176 96.2637 50.1721C96.2637 44.8595 94.0754 41.5176 90.6082 41.5176ZM111.118 41.5176C107.681 41.5176 105.555 44.7964 105.555 50.2308C105.555 55.5434 107.648 58.7591 111.18 58.7591C114.614 58.7591 116.77 55.4176 116.77 50.1721C116.77 44.8595 114.585 41.5176 111.118 41.5176ZM130.828 41.326C130.828 41.326 130.117 41.3739 129.767 41.4292C128.418 41.6465 128.017 42.0117 128.017 43.673V56.7769C128.017 58.5637 129.129 58.6702 130.699 58.7585C134.53 58.9758 136.756 55.5725 136.756 50.0683C136.756 44.5608 134.545 41.3262 130.828 41.3262C130.828 41.3262 130.117 41.3741 129.767 41.4295C128.418 41.6467 128.017 42.0119 128.017 43.6732V56.7771C128.017 58.5639 129.129 58.6704 130.699 58.7587C134.531 58.976 136.756 55.5726 136.756 50.0685C136.756 44.561 134.546 41.3264 130.828 41.3264L130.828 41.326ZM111.119 41.518C107.681 41.518 105.555 44.7968 105.555 50.2312C105.555 55.5438 107.648 58.7596 111.18 58.7596C114.615 58.7596 116.77 55.418 116.77 50.1725C116.77 44.8599 114.585 41.518 111.119 41.518ZM90.6083 41.518C87.1719 41.518 85.0497 44.7968 85.0497 50.2312C85.0497 55.5438 87.1379 58.7596 90.6712 58.7596C94.1086 58.7596 96.2639 55.418 96.2639 50.1725C96.2639 44.8599 94.0756 41.518 90.6083 41.518ZM93.4164 72.3141C93.3641 72.2183 92.5943 70.6264 92.5027 70.4272C92.4175 70.2504 92.2045 70.2398 92.1268 70.4348C92.0384 70.6521 91.2792 72.178 91.228 72.2877C91.1429 72.4687 91.2387 72.5869 91.4123 72.5869H93.2278C93.3609 72.5869 93.493 72.4687 93.4163 72.3143C93.3641 72.2185 92.5943 70.6266 92.5026 70.4274C92.4175 70.2506 92.2045 70.24 92.1267 70.435C92.0384 70.6523 91.2792 72.1782 91.228 72.288C91.1429 72.4689 91.2387 72.5872 91.4122 72.5872H93.2278C93.3609 72.5872 93.493 72.4689 93.4163 72.3146L93.4164 72.3141ZM90.6082 41.5176C87.1718 41.5176 85.0496 44.7964 85.0496 50.2308C85.0496 55.5434 87.1377 58.7591 90.6711 58.7591C94.1085 58.7591 96.2638 55.4176 96.2638 50.1721C96.2638 44.8595 94.0755 41.5176 90.6082 41.5176ZM105.239 69.068H102.925C102.685 69.068 102.435 69.152 102.435 69.4503V71.138C102.435 71.4032 102.685 71.5576 102.925 71.5576H105.239C106.016 71.5576 106.65 71.1487 106.65 70.3128C106.65 69.4769 106.016 69.068 105.239 69.068ZM111.119 41.5176C107.682 41.5176 105.555 44.7964 105.555 50.2308C105.555 55.5434 107.649 58.7592 111.181 58.7592C114.615 58.7592 116.77 55.4176 116.77 50.1721C116.77 44.8595 114.585 41.5176 111.119 41.5176ZM130.828 41.326C130.828 41.326 130.117 41.3739 129.768 41.4293C128.419 41.6466 128.017 42.0118 128.017 43.673V56.7769C128.017 58.5637 129.13 58.6702 130.7 58.7585C134.531 58.9758 136.757 55.5724 136.757 50.0684C136.757 44.5608 134.546 41.3262 130.828 41.3262C130.828 41.3262 130.117 41.3741 129.768 41.4295C128.419 41.6468 128.017 42.012 128.017 43.6732V56.7771C128.017 58.564 129.13 58.6704 130.7 58.7587C134.531 58.976 136.757 55.5727 136.757 50.0686C136.757 44.561 134.546 41.3264 130.829 41.3264L130.828 41.326ZM111.119 41.5181C107.682 41.5181 105.555 44.7968 105.555 50.2313C105.555 55.5439 107.649 58.7596 111.181 58.7596C114.615 58.7596 116.77 55.4181 116.77 50.1725C116.77 44.8599 114.585 41.5181 111.119 41.5181ZM90.6088 41.5181C87.1724 41.5181 85.0502 44.7968 85.0502 50.2313C85.0502 55.5439 87.1383 58.7596 90.6717 58.7596C94.1091 58.7596 96.2644 55.4181 96.2644 50.1725C96.2644 44.8599 94.0761 41.5181 90.6088 41.5181ZM105.239 69.0685H102.925C102.686 69.0685 102.436 69.1525 102.436 69.4507V71.1385C102.436 71.4036 102.686 71.5581 102.925 71.5581H105.239C106.017 71.5581 106.65 71.1492 106.65 70.3133C106.65 69.4774 106.017 69.0685 105.239 69.0685ZM93.4167 72.3142C93.3644 72.2184 92.5947 70.6264 92.503 70.4273C92.4179 70.2505 92.2049 70.2398 92.1271 70.4349C92.0388 70.6522 91.2795 72.1781 91.2284 72.2878C91.1432 72.4688 91.2391 72.587 91.4126 72.587H93.2282C93.3612 72.587 93.4934 72.4688 93.4167 72.3144C93.3644 72.2186 92.5946 70.6267 92.503 70.4274C92.4178 70.2507 92.2048 70.2401 92.1271 70.4351C92.0387 70.6524 91.2795 72.1783 91.2283 72.288C91.1432 72.469 91.239 72.5872 91.4126 72.5872H93.2281C93.3612 72.5872 93.4933 72.469 93.4166 72.3146L93.4167 72.3142ZM90.6086 41.5177C87.1722 41.5177 85.05 44.7964 85.05 50.2309C85.05 55.5435 87.1381 58.7592 90.6714 58.7592C94.1089 58.7592 96.2641 55.4177 96.2641 50.1721C96.2641 44.8596 94.0758 41.5177 90.6086 41.5177ZM105.239 69.0681H102.925C102.686 69.0681 102.435 69.1521 102.435 69.4504V71.1381C102.435 71.4032 102.686 71.5577 102.925 71.5577H105.239C106.016 71.5577 106.65 71.1488 106.65 70.3129C106.65 69.477 106.016 69.0681 105.239 69.0681ZM111.119 41.5177C107.682 41.5177 105.555 44.7965 105.555 50.2309C105.555 55.5435 107.649 58.7593 111.181 58.7593C114.615 58.7593 116.771 55.4177 116.771 50.1722C116.771 44.8596 114.585 41.5177 111.119 41.5177ZM130.829 41.3261C130.829 41.3261 130.117 41.374 129.768 41.4294C128.419 41.6466 128.018 42.0118 128.018 43.6731V56.777C128.018 58.5638 129.13 58.6703 130.7 58.7586C134.531 58.9759 136.757 55.5725 136.757 50.0685C136.757 44.5609 134.546 41.3263 130.829 41.3263C130.829 41.3263 130.118 41.3742 129.768 41.4296C128.419 41.6468 128.018 42.0121 128.018 43.6733V56.7772C128.018 58.564 129.13 58.6705 130.7 58.7588C134.531 58.9761 136.757 55.5728 136.757 50.0687C136.757 44.5611 134.546 41.3265 130.829 41.3265L130.829 41.3261ZM111.119 41.5181C107.682 41.5181 105.556 44.797 105.556 50.2314C105.556 55.5439 107.649 58.7597 111.181 58.7597C114.616 58.7597 116.771 55.4182 116.771 50.1726C116.771 44.86 114.586 41.5181 111.119 41.5181ZM90.6092 41.5181C87.1728 41.5181 85.0506 44.797 85.0506 50.2314C85.0506 55.5439 87.1387 58.7597 90.672 58.7597C94.1095 58.7597 96.2647 55.4182 96.2647 50.1726C96.2647 44.86 94.0764 41.5181 90.6092 41.5181ZM105.24 69.0685H102.926C102.686 69.0685 102.436 69.1526 102.436 69.4508V71.1386C102.436 71.4037 102.686 71.5582 102.926 71.5582H105.24C106.017 71.5582 106.651 71.1493 106.651 70.3134C106.651 69.4775 106.017 69.0686 105.24 69.0686V69.0685ZM93.4171 72.3143C93.3648 72.2185 92.595 70.6265 92.5034 70.4274C92.4182 70.2506 92.2052 70.2399 92.1275 70.435C92.0391 70.6522 91.2799 72.1782 91.2287 72.2879C91.1436 72.4689 91.2394 72.5871 91.413 72.5871H93.2285C93.3616 72.5871 93.4936 72.4689 93.417 72.3145L93.4171 72.3143ZM157.1 60.3735C157.1 60.1562 156.883 60.104 156.67 60.104H156.376V60.6386H156.596C156.865 60.6386 157.1 60.6237 157.1 60.3735ZM157.1 61.7067L156.555 60.9368H156.372V61.7067H156.046V59.8059H156.76C157.207 59.8059 157.41 59.9827 157.41 60.3736C157.41 60.7526 157.199 60.8995 156.924 60.9293L157.475 61.7067H157.1ZM156.662 59.496C155.928 59.496 155.383 60.0455 155.383 60.8037C155.383 61.5629 155.928 62.1081 156.662 62.1081C157.399 62.1081 157.94 61.5629 157.94 60.8037C157.94 60.0455 157.399 59.496 156.662 59.496ZM92.4986 70.4267C92.4135 70.25 92.2005 70.2393 92.1227 70.4343C92.0344 70.6516 91.2751 72.1775 91.224 72.2873C91.1388 72.4682 91.2347 72.5865 91.4082 72.5865H93.2238C93.3569 72.5865 93.489 72.4682 93.4123 72.3139C93.36 72.2181 92.5902 70.6261 92.4986 70.427V70.4267ZM90.6042 41.5178C87.1678 41.5178 85.0455 44.7965 85.0455 50.231C85.0455 55.5436 87.1337 58.7593 90.667 58.7593C94.1045 58.7593 96.2597 55.4178 96.2597 50.1722C96.2597 44.8597 94.0714 41.5178 90.6042 41.5178ZM105.235 69.0682H102.921C102.681 69.0682 102.431 69.1522 102.431 69.4504V71.1382C102.431 71.4033 102.681 71.5578 102.921 71.5578H105.235C106.012 71.5578 106.646 71.1489 106.646 70.3129C106.646 69.4769 106.012 69.0681 105.235 69.0681V69.0682ZM111.115 41.5177C107.677 41.5177 105.551 44.7965 105.551 50.2309C105.551 55.5435 107.644 58.7593 111.177 58.7593C114.611 58.7593 116.766 55.4177 116.766 50.1722C116.766 44.8596 114.581 41.5177 111.115 41.5177ZM136.753 50.0691C136.753 44.5616 134.542 41.3269 130.825 41.3269C130.825 41.3269 130.113 41.3748 129.764 41.4302C128.415 41.6475 128.013 42.0127 128.013 43.674V56.7779C128.013 58.5647 129.126 58.6712 130.696 58.7595C134.527 58.9767 136.753 55.5734 136.753 50.0693V50.0691ZM158.323 34.9056C158.198 35.4795 157.84 35.6904 157.21 35.6904L156.411 35.6938H144.146C143.093 35.6938 142.735 35.484 142.735 34.7875C142.735 34.3275 143.093 33.9474 143.512 33.9474H144.146C144.363 33.9474 144.582 33.7556 144.647 33.5459C144.743 33.2914 144.769 33.137 144.769 32.2936V18.3088C144.769 17.4985 144.743 17.3355 144.647 17.0822C144.582 16.8053 144.33 16.6178 144.146 16.6178H143.512C143.093 16.6178 142.709 16.2089 142.709 15.7447C142.709 15.0515 143.093 14.8267 144.146 14.8267H156.631C157.262 14.8267 157.615 15.0376 157.744 15.6115L158.186 17.786C158.355 18.5889 158.072 19.0203 157.501 19.0203C157.199 19.0203 156.908 18.9425 156.698 18.5336C156.661 18.4708 156.532 18.2429 156.388 17.8595C156.082 17.0556 155.452 16.9565 153.996 16.9565H151.05C149.344 16.9565 149.152 17.1812 149.152 18.8425V22.5567C149.152 23.2563 149.251 23.5619 149.44 23.6877C149.584 23.7867 149.816 23.809 150.712 23.809H152.166C153.478 23.809 153.665 23.7132 153.761 23.087L153.784 22.8953C153.88 22.3651 154.16 22.1148 154.632 22.1148C155.287 22.1148 155.504 22.4864 155.504 23.5844V26.2113C155.504 27.3051 155.287 27.6809 154.632 27.6809C154.16 27.6809 153.88 27.3976 153.784 26.8674L153.751 26.6607C153.658 26.0347 153.471 25.942 152.156 25.942H150.712C149.817 25.942 149.584 25.9644 149.441 26.0634C149.251 26.189 149.152 26.4914 149.152 27.1954V31.1588C149.152 32.8136 149.251 33.1629 149.746 33.3546C150.148 33.5058 150.581 33.5718 151.606 33.5718L154.715 33.5642C155.831 33.5642 156.621 33.2149 157.007 32.4045C157.184 32.0361 157.239 31.8956 157.277 31.8327C157.486 31.4238 157.817 31.2439 158.123 31.2439C158.691 31.2439 158.971 31.6751 158.804 32.4781L158.322 34.906L158.323 34.9056ZM156.662 62.4337C155.758 62.4337 155.036 61.7043 155.036 60.8045C155.036 59.8982 155.758 59.1731 156.662 59.1731C157.56 59.1731 158.287 59.8983 158.287 60.8045C158.287 61.7043 157.56 62.4337 156.662 62.4337ZM149.378 61.0229C148.224 61.0229 146.988 60.8599 146.095 60.5799C145.646 60.4584 145.595 60.4254 145.417 60.4254C145.152 60.4254 145.019 60.4883 144.751 60.7353C144.456 60.9601 144.301 61.0229 144.024 61.0229C143.502 61.0229 143.244 60.7353 143.06 59.9868L142.271 56.8592C142.212 56.6719 142.19 56.3875 142.19 56.2331C142.19 55.6773 142.621 55.2567 143.177 55.2567C143.502 55.2567 143.77 55.4228 143.961 55.6774L144.411 56.296C145.494 57.8251 147.245 58.7718 149.032 58.7718C151.062 58.7718 152.447 57.6366 152.447 55.9829C152.447 55.1352 152.097 54.3877 151.43 53.6359C150.753 52.8883 149.912 52.1994 148.114 50.9502C145.153 48.8759 144.876 48.6875 143.904 47.5682C143.116 46.6546 142.713 45.5343 142.713 44.2852C142.713 41.2535 145.019 39.2495 148.464 39.2495C149.348 39.2495 150.251 39.3336 151.162 39.5295C151.256 39.5626 151.511 39.6211 151.952 39.7212C152.097 39.7499 152.259 39.783 152.381 39.783C152.587 39.783 152.826 39.6808 153.099 39.4997C153.408 39.275 153.508 39.2495 153.759 39.2495C154.219 39.2495 154.514 39.5625 154.64 40.1227L155.387 43.5047C155.442 43.6517 155.442 43.8401 155.442 43.9391C155.442 44.348 155.077 44.6867 154.544 44.6867C154.208 44.6867 154.001 44.5621 153.714 44.1607C153.01 43.0958 152.879 42.9732 152.226 42.4696C151.386 41.8137 150.31 41.4634 149.286 41.4634C147.841 41.4634 146.906 42.2854 146.906 43.5675C146.906 44.0276 146.988 44.5025 147.245 44.8486C147.561 45.3203 148.063 45.8145 148.682 46.2862C149.068 46.562 149.562 46.9198 150.228 47.3842C152.697 49.104 153.508 49.7311 154.514 50.7587C155.571 51.8523 156.205 53.4145 156.205 55.0213C156.205 58.6356 153.508 61.023 149.378 61.023V61.0229ZM141.483 69.0829H139.663C139.413 69.0829 139.232 69.1649 139.232 69.4663L139.242 74.9074C139.242 75.2913 138.97 75.3361 138.543 75.3361C138.131 75.3361 137.854 75.2943 137.854 74.9223V69.4738C137.854 69.2087 137.758 69.083 137.427 69.083H135.585C135.286 69.083 135.201 68.7966 135.201 68.557C135.201 68.2918 135.179 67.7796 135.574 67.7796H141.453C141.718 67.7796 141.895 67.9266 141.895 68.4132C141.895 68.8444 141.781 69.083 141.483 69.083V69.0829ZM126.363 70.7666H128.96C129.273 70.7666 129.355 71.0402 129.355 71.4374C129.355 71.7835 129.28 72.0858 128.99 72.0858H126.4C126.193 72.0858 126.006 72.2296 126.006 72.4692V73.5704C126.006 73.8355 126.15 73.9611 126.363 73.9611H130.817C131.112 73.9611 131.215 74.1561 131.215 74.6432C131.215 74.9931 131.134 75.2803 130.821 75.2803H125.085C124.752 75.2803 124.616 75.1218 124.616 74.7279V68.2652C124.616 67.9713 124.734 67.7647 125.077 67.7647H130.832C131.175 67.7647 131.236 67.9926 131.236 68.4015C131.236 68.7816 131.185 69.083 130.814 69.083H126.315C126.135 69.083 126.006 69.2235 126.006 69.4185V70.4354C126.006 70.6495 126.16 70.7666 126.363 70.7666H126.363ZM121.637 59.5854C121.637 59.1137 121.95 58.7166 122.38 58.7166H123.018C123.232 58.7166 123.445 58.5504 123.548 58.3076C123.611 58.0829 123.644 57.8944 123.644 57.0766V43.1549C123.644 42.3403 123.611 42.1497 123.548 41.924C123.445 41.6855 123.232 41.5151 123.018 41.5151H122.38C121.95 41.5151 121.637 41.1178 121.637 40.6461C121.637 39.9645 122.107 39.8687 123.018 39.7324C123.931 39.5993 126.481 39.2501 130.382 39.2501C134.28 39.2501 136.7 40.0966 138.616 42.0347C140.455 43.8812 141.453 46.7245 141.453 50.1032C141.453 53.8866 140.178 57.0142 137.858 58.8607C136.056 60.3196 133.794 60.9831 130.382 60.9831C126.481 60.9831 123.931 60.6327 123.018 60.4996C122.107 60.3676 121.637 60.2718 121.637 59.5859V59.5854ZM111.081 61.0118C106.038 61.0118 102.427 58.1644 101.267 53.5736C101.252 53.5406 101.241 53.5076 101.234 53.4703C101.131 52.955 100.666 52.9177 100.556 53.4669C100.556 53.4851 100.541 53.5031 100.533 53.5224C99.362 58.179 95.7329 61.0116 90.5712 61.0116C84.3854 61.0116 80.3587 56.7308 80.3587 50.2019C80.3587 43.5198 84.3562 39.2679 90.6334 39.2679C95.7874 39.2679 99.4539 42.1419 100.577 46.8274C100.695 47.3651 101.152 47.3246 101.251 46.8135C101.251 46.8058 101.251 46.7986 101.261 46.7944C102.407 42.1078 106.014 39.2679 111.145 39.2679C117.394 39.2679 121.453 43.4857 121.453 50.0477C121.453 56.7308 117.424 61.0116 111.082 61.0116L111.081 61.0118ZM119.741 75.3401C119.107 75.3401 118.934 75.2404 118.772 75.045L116.366 72.4772C116.038 72.1929 115.71 72.1493 115.261 72.1493C115.01 72.1493 114.815 72.407 114.815 72.7052V74.8934C114.815 75.3102 114.458 75.3361 114.067 75.3361C113.654 75.3361 113.437 75.2215 113.437 74.8904V68.2104C113.437 67.8164 113.684 67.7504 114.17 67.7504C114.554 67.7504 114.815 67.8387 114.815 68.1998V70.2156C114.815 70.5392 114.963 70.6979 115.165 70.6979C115.751 70.6979 115.876 70.5722 116.094 70.3849C116.336 70.1783 118.805 67.9122 118.805 67.9122C119.115 67.647 119.428 67.6513 119.726 67.9378C119.973 68.1742 120.083 68.4393 119.807 68.7119C119.615 68.8994 117.449 70.8597 117.449 70.8597C117.18 71.0918 117.247 71.3091 117.431 71.5114C117.431 71.5114 120.031 74.3779 120.304 74.6731C120.713 75.1178 120.337 75.3401 119.741 75.3401H119.741ZM106.521 72.9151C106.581 73.0045 107.634 74.5325 107.788 74.7618C108.02 75.1078 107.811 75.3361 107.093 75.3361C106.691 75.3361 106.422 75.2663 106.248 75.0081L105.081 73.195C104.948 72.9927 104.756 72.8638 104.495 72.8638H102.826C102.624 72.8638 102.432 73.03 102.432 73.2323L102.442 75.042C102.442 75.398 101.75 75.3401 101.522 75.3401C101.223 75.3401 101.058 75.2544 101.058 74.9203L101.069 68.0411C101.069 67.8611 101.223 67.7536 101.389 67.7536H105.346C106.875 67.7536 108.025 68.7375 108.025 70.3146C108.025 71.6775 107.041 72.1238 106.647 72.4581C106.452 72.6285 106.404 72.7456 106.521 72.915V72.9151ZM95.3994 75.3391C95.1705 75.3391 94.8244 75.3022 94.7168 75.052L94.2313 74.0469C94.1684 73.9138 94.0396 73.8073 93.8809 73.8073H90.7822C90.5873 73.8073 90.4105 73.9541 90.2998 74.231L89.8695 75.052C89.7737 75.2913 89.3052 75.3292 89.0879 75.3292C88.8963 75.3292 88.2669 75.3062 88.465 74.8864L91.7555 68.0601C91.847 67.861 92.0206 67.7098 92.3305 67.7098C92.6393 67.7098 92.8086 67.8131 92.9119 68.0335C92.9119 68.0335 96.0543 74.7319 96.1427 74.9273C96.3056 75.2763 95.6273 75.3391 95.3994 75.3391ZM83.4882 75.3391C83.2966 75.3391 82.9398 75.2334 82.9398 74.9822L82.4095 70.9704C82.3754 70.8043 82.3136 70.7308 82.1806 70.7308C82.0741 70.7308 82.0187 70.7819 81.9452 70.8746L80.1435 73.1811C80.0508 73.3056 79.9294 73.3834 79.7856 73.3834C79.5801 73.3834 79.4907 73.3311 79.3735 73.1586L77.7156 70.9224C77.6421 70.8298 77.5612 70.8043 77.476 70.8043C77.3439 70.8043 77.2769 70.9224 77.2587 71.0769L76.7392 74.9562C76.6912 75.2763 76.2972 75.3391 75.9724 75.3391C75.7477 75.3391 75.3654 75.2334 75.3654 74.9453L76.1278 68.4062C76.2088 68.0154 76.2929 67.7908 76.8573 67.7908C77.0011 67.7908 77.2332 67.8313 77.4132 68.1113L79.4726 71.0067C79.5834 71.1654 79.7091 71.2985 79.8454 71.2942C79.9817 71.2908 80.1212 71.1505 80.2393 70.9961L82.4127 68.041C82.5458 67.8386 82.7482 67.7535 82.9878 67.7535C83.2486 67.7535 83.4403 67.8131 83.551 68.2518L84.3135 74.9562C84.3508 75.3391 83.7502 75.3391 83.4882 75.3391ZM70.5317 57.1448C70.5317 57.9882 70.5317 58.1394 70.6052 58.3598C70.7373 58.6101 71.0216 58.773 71.2719 58.773H71.9789C72.4687 58.773 72.8084 59.1744 72.8084 59.6462C72.8084 60.3352 72.4251 60.5524 71.2718 60.5524H65.5172C64.4491 60.5524 64.0733 60.3352 64.0733 59.6462C64.0733 59.1744 64.4491 58.773 64.8794 58.773H65.5172C65.7302 58.773 65.941 58.6101 66.0443 58.3598C66.1103 58.1393 66.1434 57.9882 66.1434 57.1448V43.1584C66.1434 42.348 66.1178 42.1862 66.0177 41.9359C65.9517 41.659 65.7015 41.4674 65.5172 41.4674H64.8837C64.463 41.4674 64.0807 41.0628 64.0807 40.5952C64.0807 39.9062 64.463 39.6815 65.5172 39.6815H79.0751C79.7045 39.6815 80.0623 39.8913 80.1869 40.4653L80.6299 42.6398C80.7992 43.4384 80.5148 43.874 79.9473 43.874C79.6417 43.874 79.3509 43.7931 79.1412 43.3841C79.1038 43.3245 78.9793 43.0924 78.8313 42.7133C78.5257 41.9103 77.8952 41.807 76.4407 41.807H72.425C70.716 41.807 70.5242 42.0349 70.5242 43.6929V47.4105C70.5242 48.1101 70.6233 48.4125 70.815 48.5413C70.9587 48.6414 71.1866 48.6628 72.0864 48.6628H74.6719C75.9838 48.6628 76.1713 48.5669 76.2671 47.9408L76.2896 47.7459C76.3854 47.2155 76.6654 46.9643 77.1329 46.9643C77.7931 46.9643 78.0104 47.3402 78.0104 48.4348V51.065C78.0104 52.1597 77.7931 52.5346 77.1329 52.5346C76.6654 52.5346 76.3854 52.2513 76.2896 51.721L76.2565 51.5144C76.1638 50.8883 75.9764 50.7924 74.6613 50.7924H72.0864C71.1866 50.7924 70.9587 50.8148 70.8149 50.9138C70.6233 51.0427 70.5242 51.3451 70.5242 52.049L70.5349 57.1443L70.5317 57.1448ZM60.2374 18.1143C59.7699 16.829 59.6219 16.6747 58.6198 16.4574C57.9532 16.3349 57.7466 16.1177 57.7466 15.6129C57.7466 15.0827 58.0789 14.8026 58.7966 14.8026H65.255C65.9663 14.8026 66.2825 15.0827 66.2825 15.6459C66.2825 16.1731 65.9662 16.3871 65.1559 16.4574C64.467 16.5191 64.1869 16.7407 64.1869 17.2379C64.1869 17.452 64.2124 17.6767 64.3009 17.9343L64.5478 18.6488C64.5478 18.6488 68.0001 28.4269 68.5454 29.9996C68.637 30.2509 68.9213 30.2392 69.0171 29.9591C69.6241 28.2169 71.2747 23.424 71.3343 23.2291C71.5036 22.6765 71.5771 22.094 71.3779 21.4561C71.3087 21.2315 70.2512 18.1146 70.2512 18.1146C70.1331 17.776 70.0628 17.5257 69.9925 17.3969C69.8083 16.94 69.5548 16.7739 68.8329 16.5822C68.1876 16.4236 67.9405 16.2106 67.9405 15.7463C67.9405 15.1457 68.3016 14.8029 69.031 14.8029H75.1689C75.8802 14.8029 76.2262 15.0829 76.2262 15.6462C76.2262 16.1435 75.91 16.3874 75.2136 16.4864C74.3808 16.5822 74.1561 16.7739 74.1561 17.334C74.1561 17.6173 74.2189 17.8973 74.4767 18.6491C74.4767 18.6491 77.5051 28.2322 77.9843 29.7391C78.076 30.0224 78.3454 29.9596 78.422 29.7093C78.8937 28.177 81.8892 18.1151 81.8892 18.1151C81.9776 17.802 82.0106 17.5517 82.0106 17.3643C82.0106 16.8957 81.6752 16.6455 80.916 16.5497C80.227 16.4868 79.9107 16.1738 79.9107 15.6764C79.9107 15.0504 80.2685 14.8033 81.1001 14.8033H91.9396C92.9715 14.8033 93.3134 15.0131 93.3134 15.6988C93.3134 16.211 92.9716 16.5826 92.5402 16.5826H91.9396C91.682 16.5826 91.4381 16.7744 91.3423 16.9809C91.2836 17.2131 91.2582 17.4303 91.2582 18.2109V22.2456C91.2582 23.6896 91.3828 23.811 92.5403 23.811H96.788C97.4099 23.811 97.7315 23.712 97.8891 23.5309C98.0328 23.3393 98.0328 23.2178 98.0328 22.0572V18.2108C98.0328 17.3973 98.0328 17.2131 97.9562 16.9809C97.8455 16.7413 97.5984 16.5826 97.3844 16.5826H96.788C96.3163 16.5826 95.9372 16.211 95.9372 15.6988C95.9372 15.013 96.3163 14.8033 97.3844 14.8033H103.07C104.134 14.8033 104.514 15.0131 104.514 15.6988C104.514 16.211 104.134 16.5826 103.707 16.5826H103.07C102.856 16.5826 102.605 16.7743 102.538 16.9809C102.45 17.213 102.429 17.4303 102.429 18.2108V32.2553C102.429 33.0688 102.45 33.253 102.538 33.5075C102.606 33.7247 102.856 33.8801 103.07 33.8801H103.707C104.171 33.8801 104.514 34.2891 104.514 34.7523C104.514 35.4456 104.171 35.6596 103.07 35.6596H97.3844C96.3163 35.6596 95.9778 35.4456 95.9778 34.7523C95.9778 34.2892 96.3569 33.8801 96.7881 33.8801H97.3844C97.5985 33.8801 97.8456 33.7247 97.9562 33.5075C98.0329 33.253 98.0329 33.0688 98.0329 32.2553V27.6901C98.0329 26.5293 98.0329 26.408 97.8892 26.2205C97.7316 26.0364 97.41 25.9362 96.7881 25.9362H92.5404C91.3829 25.9362 91.2583 26.0587 91.2583 27.5027V32.2553C91.2583 33.0688 91.2838 33.253 91.3424 33.5075C91.4382 33.7248 91.6821 33.8802 91.9397 33.8802H92.5403C92.9717 33.8802 93.2921 34.2892 93.2921 34.7896C93.2921 35.4456 92.9344 35.6596 91.9397 35.6596H86.2405C85.1906 35.6596 84.8104 35.4455 84.8104 34.7523C84.8104 34.2891 85.1906 33.8801 85.6207 33.8801H86.2405C86.4609 33.8801 86.7187 33.7247 86.7783 33.5074C86.8741 33.253 86.8741 33.0911 86.8741 32.2552V18.2108C86.8741 16.6156 86.1255 16.5091 85.5771 16.5826C85.0245 16.6604 84.7007 17.0107 84.361 18.1151L79.3764 34.1639C78.927 35.6931 78.5032 36.1307 77.5682 36.1307C76.6354 36.1307 76.1605 35.7261 75.7845 34.5686C75.7845 34.5686 73.2097 26.8695 73.1245 26.6151C73.0361 26.3606 72.7709 26.3531 72.6975 26.5969C72.6273 26.8429 69.8564 34.5686 69.8564 34.5686C69.555 35.3172 69.4773 35.5345 69.2228 35.7889C68.9768 35.9732 68.5668 36.1307 68.158 36.1307C67.2517 36.1307 66.8067 35.7548 66.3754 34.5686L60.2374 18.115V18.1143ZM101.747 8.6463C102.793 4.76274 106.569 0.842985 110.743 2.04092C114.284 3.0504 114.033 5.97563 116.608 6.89248C117.533 7.22043 117.459 8.14904 116.653 8.30339C115.293 8.56104 113.458 7.5739 112.088 6.3323C110.485 4.87761 107.881 4.94042 106.609 5.90842C106.053 6.3323 106.336 6.73792 106.846 6.62405C108.024 6.36949 110.021 6.30348 111.558 8.02749C113.067 9.72178 115.882 11.2359 118.373 9.611C119.058 9.16589 119.504 8.24476 120.2 8.44388C120.944 8.65368 120.955 9.73664 119.98 10.9964C117.676 13.9663 115.315 13.6127 112.784 16.0917C110.256 18.5708 109.745 21.3895 109.745 24.9702C109.745 30.5225 111.929 33.8853 115.621 33.8853C119.213 33.8853 121.467 30.3935 121.467 24.9046C121.467 20.38 120.396 17.4548 117.709 16.423C116.409 15.9406 116.631 14.6702 118.307 14.4711C119.688 14.3092 121.04 14.7799 122.525 15.8746C125.086 17.7605 126.363 20.7592 126.363 24.7761C126.363 31.7649 122.153 36.2375 115.526 36.2375C109.056 36.2375 104.845 31.7651 104.845 24.9379C104.845 20.5464 106.495 17.1643 109.35 15.2562C110.544 14.3637 112.563 13.3361 114.541 12.6664C114.95 12.5258 114.947 11.7996 114.221 11.9402C113.355 12.1137 111.763 12.2383 110.448 11.7079C107.497 10.5441 106.639 8.46223 103.165 9.95411C102.118 10.4035 101.444 9.76665 101.747 8.6464L101.747 8.6463ZM128.147 14.828H133.924C135.051 14.828 135.434 15.0527 135.434 15.7458C135.434 16.2432 135.051 16.6191 134.606 16.6191H133.924C133.637 16.6191 133.356 16.7735 133.268 17.0279C133.175 17.2377 133.175 17.4295 133.175 18.244V31.3769C133.175 32.7517 133.235 33.0722 133.604 33.2852C133.924 33.5066 134.402 33.5652 135.659 33.5652H137.42C138.536 33.5652 139.325 33.216 139.712 32.4056C139.888 32.0329 139.944 31.8966 139.98 31.8338C140.191 31.4249 140.522 31.2406 140.824 31.2406C141.395 31.2406 141.675 31.6761 141.509 32.4791L141.027 34.9071C140.901 35.481 140.544 35.6918 139.914 35.6918H128.148C127.105 35.6918 126.762 35.4853 126.762 34.7888C126.762 34.3288 127.105 33.9487 127.543 33.9487H128.148C128.354 33.9487 128.608 33.757 128.671 33.5472C128.763 33.3151 128.792 33.1638 128.792 32.3834V18.2435C128.792 17.3992 128.763 17.2745 128.671 17.0274C128.608 16.773 128.354 16.6185 128.148 16.6185H127.543C127.072 16.6185 126.692 16.2427 126.692 15.7453C126.692 15.0522 127.072 14.8274 128.148 14.8274L128.147 14.828ZM108.629 -25.4622C73.0214 -25.4622 44.1566 3.40348 44.1566 39.0102C44.1566 74.6182 73.0223 103.483 108.629 103.483C144.241 103.483 173.101 74.6172 173.101 39.0102C173.101 3.40268 144.24 -25.4622 108.629 -25.4622ZM157.097 60.375C157.097 60.1577 156.88 60.1055 156.667 60.1055H156.373V60.6401H156.593C156.862 60.6401 157.097 60.6252 157.097 60.375ZM157.097 61.7082L156.552 60.9383H156.369V61.7082H156.043V59.8074H156.758C157.204 59.8074 157.407 59.9842 157.407 60.375C157.407 60.7541 157.197 60.901 156.921 60.9308L157.472 61.7082H157.097ZM156.659 59.4975C155.925 59.4975 155.38 60.047 155.38 60.8052C155.38 61.5644 155.925 62.1096 156.659 62.1096C157.396 62.1096 157.937 61.5644 157.937 60.8052C157.937 60.047 157.396 59.4975 156.659 59.4975ZM93.4099 72.3152C93.3577 72.2193 92.5878 70.6274 92.4962 70.4281C92.4111 70.2515 92.1981 70.2408 92.1203 70.4358C92.032 70.6531 91.2727 72.179 91.2216 72.2888C91.1364 72.4697 91.2322 72.588 91.4058 72.588H93.2213C93.3545 72.588 93.4865 72.4697 93.4099 72.3154V72.3152ZM105.232 69.0696H102.919C102.679 69.0696 102.429 69.1537 102.429 69.4519V71.1397C102.429 71.4048 102.679 71.5593 102.919 71.5593H105.232C106.01 71.5593 106.643 71.1504 106.643 70.3145C106.643 69.4786 106.01 69.0697 105.232 69.0697V69.0696ZM90.602 41.5193C87.1656 41.5193 85.0434 44.7981 85.0434 50.2325C85.0434 55.5451 87.1316 58.7609 90.6648 58.7609C94.1023 58.7609 96.2575 55.4193 96.2575 50.1738C96.2575 44.8612 94.0692 41.5193 90.602 41.5193ZM111.112 41.5193C107.675 41.5193 105.548 44.7981 105.548 50.2325C105.548 55.5451 107.642 58.7609 111.174 58.7609C114.608 58.7609 116.764 55.4193 116.764 50.1738C116.764 44.8612 114.578 41.5193 111.112 41.5193ZM130.822 41.3277C130.822 41.3277 130.11 41.3755 129.761 41.431C128.412 41.6482 128.011 42.0134 128.011 43.6747V56.7786C128.011 58.5654 129.123 58.6719 130.693 58.7602C134.524 58.9775 136.75 55.5742 136.75 50.0701C136.75 44.5625 134.539 41.3279 130.822 41.3279L130.822 41.3277ZM157.093 60.3755C157.093 60.1582 156.876 60.106 156.663 60.106H156.369V60.6406H156.589C156.858 60.6406 157.093 60.6257 157.093 60.3755ZM157.093 61.7087L156.548 60.9387H156.364V61.7087H156.039V59.8079H156.753C157.2 59.8079 157.403 59.9847 157.403 60.3755C157.403 60.7545 157.192 60.9015 156.917 60.9313L157.468 61.7087H157.093ZM156.655 59.498C155.921 59.498 155.375 60.0475 155.375 60.8056C155.375 61.5649 155.921 62.11 156.655 62.11C157.392 62.11 157.933 61.5648 157.933 60.8056C157.933 60.0475 157.392 59.498 156.655 59.498ZM130.818 41.3279C130.818 41.3279 130.106 41.3757 129.757 41.4312C128.408 41.6484 128.006 42.0136 128.006 43.6749V56.7788C128.006 58.5656 129.119 58.6721 130.689 58.7604C134.52 58.9777 136.746 55.5743 136.746 50.0703C136.746 44.5627 134.535 41.3281 130.818 41.3281V41.3279ZM111.108 41.5197C107.671 41.5197 105.544 44.7985 105.544 50.2329C105.544 55.5455 107.638 58.7613 111.17 58.7613C114.604 58.7613 116.759 55.4197 116.759 50.1742C116.759 44.8616 114.574 41.5197 111.108 41.5197ZM105.228 69.0701H102.914C102.674 69.0701 102.424 69.1541 102.424 69.4524V71.1402C102.424 71.4053 102.674 71.5598 102.914 71.5598H105.228C106.005 71.5598 106.639 71.1509 106.639 70.315C106.639 69.4791 106.005 69.0702 105.228 69.0702V69.0701ZM90.5974 41.5198C87.1611 41.5198 85.0388 44.7985 85.0388 50.233C85.0388 55.5456 87.127 58.7613 90.6604 58.7613C94.0978 58.7613 96.2531 55.4198 96.2531 50.1742C96.2531 44.8617 94.0647 41.5198 90.5974 41.5198ZM93.4055 72.3159C93.3534 72.2201 92.5834 70.6281 92.4918 70.4289C92.4067 70.2522 92.1937 70.2415 92.1159 70.4366C92.0276 70.6538 91.2683 72.1798 91.2172 72.2895C91.132 72.4705 91.2278 72.5887 91.4014 72.5887H93.2169C93.3501 72.5887 93.4821 72.4705 93.4055 72.3161C93.3534 72.2203 92.5834 70.6283 92.4917 70.4291C92.4066 70.2524 92.1936 70.2417 92.1159 70.4368C92.0275 70.654 91.2683 72.18 91.2171 72.2897C91.132 72.4707 91.2278 72.5889 91.4014 72.5889H93.2169C93.3501 72.5889 93.4821 72.4707 93.4054 72.3163L93.4055 72.3159ZM105.228 69.0706H102.914C102.674 69.0706 102.424 69.1546 102.424 69.4529V71.1407C102.424 71.4058 102.674 71.5602 102.914 71.5602H105.228C106.005 71.5602 106.639 71.1513 106.639 70.3154C106.639 69.4795 106.005 69.0706 105.228 69.0706ZM90.5975 41.5194C87.1612 41.5194 85.0389 44.7982 85.0389 50.2326C85.0389 55.5452 87.1271 58.7609 90.6604 58.7609C94.0978 58.7609 96.2532 55.4194 96.2532 50.1739C96.2532 44.8613 94.0648 41.5194 90.5975 41.5194ZM111.108 41.5194C107.67 41.5194 105.544 44.7982 105.544 50.2326C105.544 55.5452 107.638 58.7609 111.17 58.7609C114.604 58.7609 116.759 55.4194 116.759 50.1739C116.759 44.8613 114.574 41.5194 111.108 41.5194ZM130.817 41.3278C130.817 41.3278 130.106 41.3756 129.757 41.431C128.407 41.6483 128.006 42.0135 128.006 43.6748V56.7787C128.006 58.5655 129.119 58.672 130.688 58.7603C134.52 58.9776 136.745 55.5742 136.745 50.0701C136.745 44.5626 134.535 41.328 130.817 41.328C130.817 41.328 130.106 41.3759 129.757 41.4313C128.408 41.6485 128.006 42.0137 128.006 43.675V56.7789C128.006 58.5657 129.119 58.6722 130.689 58.7605C134.52 58.9778 136.746 55.5744 136.746 50.0704C136.746 44.5628 134.535 41.3282 130.818 41.3282L130.817 41.3278ZM111.108 41.5198C107.671 41.5198 105.544 44.7986 105.544 50.233C105.544 55.5456 107.638 58.7614 111.17 58.7614C114.604 58.7614 116.759 55.4198 116.759 50.1743C116.759 44.8617 114.574 41.5198 111.108 41.5198ZM105.228 69.0702H102.914C102.674 69.0702 102.424 69.1542 102.424 69.4525V71.1403C102.424 71.4054 102.674 71.5598 102.914 71.5598H105.228C106.005 71.5598 106.639 71.1509 106.639 70.315C106.639 69.4791 106.005 69.0702 105.228 69.0702ZM90.5973 41.5199C87.1609 41.5199 85.0387 44.7986 85.0387 50.2331C85.0387 55.5457 87.1269 58.7614 90.6602 58.7614C94.0976 58.7614 96.2529 55.4199 96.2529 50.1743C96.2529 44.8618 94.0645 41.5199 90.5973 41.5199ZM93.4053 72.316C93.3532 72.2202 92.5833 70.6282 92.4916 70.429C92.4065 70.2523 92.1935 70.2416 92.1157 70.4367C92.0274 70.6539 91.2681 72.1798 91.217 72.2896C91.1318 72.4705 91.2277 72.5888 91.4012 72.5888H93.2169C93.3499 72.5888 93.482 72.4705 93.4053 72.3162C93.3532 72.2204 92.5832 70.6284 92.4916 70.4292C92.4064 70.2525 92.1934 70.2418 92.1157 70.4369C92.0273 70.6541 91.2681 72.1801 91.2169 72.2898C91.1318 72.4708 91.2276 72.589 91.4012 72.589H93.2168C93.3499 72.589 93.4819 72.4708 93.4052 72.3164L93.4053 72.316ZM105.228 69.0707H102.914C102.674 69.0707 102.424 69.1547 102.424 69.453V71.1407C102.424 71.4059 102.674 71.5603 102.914 71.5603H105.228C106.005 71.5603 106.639 71.1514 106.639 70.3155C106.639 69.4796 106.005 69.0707 105.228 69.0707ZM90.5974 41.5195C87.161 41.5195 85.0387 44.7982 85.0387 50.2327C85.0387 55.5453 87.127 58.761 90.6603 58.761C94.0977 58.761 96.253 55.4195 96.253 50.1739C96.253 44.8614 94.0646 41.5195 90.5974 41.5195ZM111.108 41.5195C107.67 41.5195 105.544 44.7982 105.544 50.2327C105.544 55.5453 107.637 58.761 111.169 58.761C114.604 58.761 116.759 55.4195 116.759 50.1739C116.759 44.8614 114.574 41.5195 111.108 41.5195ZM130.817 41.3278C130.817 41.3278 130.106 41.3757 129.757 41.4311C128.407 41.6484 128.006 42.0136 128.006 43.6749V56.7788C128.006 58.5656 129.119 58.6721 130.688 58.7604C134.52 58.9776 136.745 55.5743 136.745 50.0702C136.745 44.5627 134.535 41.3281 130.817 41.3281C130.817 41.3281 130.106 41.376 129.757 41.4313C128.407 41.6486 128.006 42.0138 128.006 43.6751V56.779C128.006 58.5658 129.119 58.6723 130.688 58.7606C134.52 58.9779 136.745 55.5745 136.745 50.0704C136.745 44.5629 134.535 41.3283 130.817 41.3283L130.817 41.3278ZM111.108 41.5199C107.67 41.5199 105.544 44.7987 105.544 50.2331C105.544 55.5457 107.638 58.7614 111.17 58.7614C114.604 58.7614 116.759 55.4199 116.759 50.1744C116.759 44.8618 114.574 41.5199 111.108 41.5199ZM105.228 69.0703H102.914C102.674 69.0703 102.424 69.1543 102.424 69.4526V71.1404C102.424 71.4055 102.674 71.5599 102.914 71.5599H105.228C106.005 71.5599 106.638 71.151 106.638 70.3151C106.638 69.4792 106.005 69.0703 105.228 69.0703ZM90.5971 41.5199C87.1608 41.5199 85.0385 44.7987 85.0385 50.2332C85.0385 55.5457 87.1267 58.7615 90.6601 58.7615C94.0974 58.7615 96.2527 55.42 96.2527 50.1744C96.2527 44.8618 94.0644 41.5199 90.5971 41.5199ZM93.4052 72.3161C93.3531 72.2202 92.5831 70.6283 92.4915 70.429C92.4063 70.2524 92.1933 70.2417 92.1156 70.4367C92.0272 70.654 91.268 72.1799 91.2168 72.2897C91.1317 72.4706 91.2275 72.5889 91.4011 72.5889H93.2167C93.3498 72.5889 93.4818 72.4706 93.4051 72.3163L93.4052 72.3161ZM90.5971 41.5202C87.1607 41.5202 85.0384 44.7989 85.0384 50.2334C85.0384 55.546 87.1267 58.7617 90.66 58.7617C94.0974 58.7617 96.2527 55.4202 96.2527 50.1746C96.2527 44.8621 94.0643 41.5202 90.5971 41.5202ZM111.107 41.5202C107.67 41.5202 105.543 44.7989 105.543 50.2334C105.543 55.546 107.637 58.7617 111.169 58.7617C114.603 58.7617 116.759 55.4202 116.759 50.1746C116.759 44.8621 114.574 41.5202 111.107 41.5202ZM130.817 41.3285C130.817 41.3285 130.105 41.3764 129.756 41.4318C128.407 41.6491 128.006 42.0143 128.006 43.6755V56.7794C128.006 58.5663 129.118 58.6728 130.688 58.7611C134.519 58.9783 136.745 55.5749 136.745 50.0709C136.745 44.5634 134.534 41.3287 130.817 41.3287C130.817 41.3287 130.106 41.3766 129.756 41.432C128.407 41.6493 128.006 42.0145 128.006 43.6757V56.7797C128.006 58.5665 129.118 58.673 130.688 58.7613C134.519 58.9785 136.745 55.5752 136.745 50.0711C136.745 44.5636 134.534 41.329 130.817 41.329L130.817 41.3285ZM111.108 41.5206C107.67 41.5206 105.544 44.7994 105.544 50.2338C105.544 55.5464 107.637 58.7621 111.169 58.7621C114.604 58.7621 116.759 55.4206 116.759 50.1751C116.759 44.8625 114.574 41.5206 111.108 41.5206ZM90.5972 41.5206C87.1609 41.5206 85.0386 44.7994 85.0386 50.2338C85.0386 55.5464 87.1268 58.7621 90.6602 58.7621C94.0975 58.7621 96.2529 55.4206 96.2529 50.1751C96.2529 44.8625 94.0645 41.5206 90.5972 41.5206C87.1609 41.5206 85.0386 44.7994 85.0386 50.2338C85.0386 55.5464 87.1268 58.7621 90.6602 58.7621C94.0975 58.7621 96.2529 55.4206 96.2529 50.1751C96.2529 44.8625 94.0645 41.5206 90.5972 41.5206ZM111.108 41.5206C107.67 41.5206 105.544 44.7994 105.544 50.2338C105.544 55.5464 107.637 58.7621 111.169 58.7621C114.604 58.7621 116.759 55.4206 116.759 50.1751C116.759 44.8625 114.574 41.5206 111.108 41.5206ZM130.817 41.329C130.817 41.329 130.106 41.3769 129.756 41.4322C128.407 41.6495 128.006 42.0147 128.006 43.676V56.7799C128.006 58.5667 129.119 58.6732 130.688 58.7615C134.52 58.9788 136.745 55.5754 136.745 50.0713C136.745 44.5638 134.535 41.3292 130.817 41.3292C130.817 41.3292 130.106 41.3771 129.756 41.4325C128.407 41.6497 128.006 42.0149 128.006 43.6762V56.7801C128.006 58.5669 129.119 58.6734 130.688 58.7617C134.52 58.979 136.745 55.5756 136.745 50.0715C136.745 44.564 134.535 41.3294 130.817 41.3294L130.817 41.329ZM111.108 41.521C107.67 41.521 105.544 44.7998 105.544 50.2342C105.544 55.5468 107.637 58.7626 111.17 58.7626C114.604 58.7626 116.759 55.421 116.759 50.1755C116.759 44.8629 114.574 41.521 111.108 41.521ZM90.5974 41.521C87.1611 41.521 85.0388 44.7998 85.0388 50.2342C85.0388 55.5468 87.127 58.7626 90.6604 58.7626C94.0977 58.7626 96.253 55.421 96.253 50.1755C96.253 44.8629 94.0647 41.521 90.5974 41.521Z" fill="#006F46"/>
</g>
<rect x="0.96875" y="201.409" width="216" height="216" rx="36.6897" fill="white" fill-opacity="0.930588"/>
<g opacity="0.930588" clip-path="url(#clip1_409_119)">
<path d="M108.821 244.596C73.1083 244.596 44.1562 273.548 44.1562 309.262C44.1562 344.977 73.1083 373.927 108.821 373.927C144.538 373.927 173.487 344.977 173.487 309.262C173.487 273.551 144.538 244.599 108.82 244.599L108.821 244.596ZM138.476 337.862C138.2 338.315 137.837 338.708 137.409 339.02C136.981 339.332 136.496 339.556 135.981 339.68C135.466 339.804 134.931 339.826 134.408 339.743C133.885 339.66 133.383 339.475 132.932 339.198C117.749 329.924 98.6359 327.824 76.1268 332.967C75.0846 333.204 73.9909 333.017 73.086 332.448C72.1812 331.879 71.5393 330.974 71.3015 329.932C71.1831 329.416 71.1675 328.882 71.2558 328.36C71.3441 327.838 71.5345 327.338 71.8161 326.89C72.0977 326.442 72.465 326.053 72.8968 325.747C73.3288 325.441 73.8168 325.223 74.333 325.106C98.9656 319.478 120.095 321.901 137.14 332.318C139.04 333.484 139.642 335.963 138.476 337.862ZM146.39 320.255C144.931 322.627 141.827 323.376 139.456 321.916C122.075 311.232 95.5789 308.138 75.0196 314.379C72.3532 315.184 69.537 313.682 68.7278 311.02C68.3416 309.74 68.4788 308.36 69.109 307.181C69.7393 306.002 70.8112 305.122 72.0899 304.732C95.5742 297.606 124.77 301.058 144.731 313.324C147.101 314.784 147.85 317.888 146.39 320.255V320.255ZM147.07 301.92C126.229 289.54 91.8438 288.402 71.9455 294.442C68.7502 295.411 65.3712 293.607 64.4028 290.412C63.9372 288.876 64.1004 287.219 64.8564 285.804C65.6124 284.389 66.8994 283.333 68.4344 282.866C91.2762 275.932 129.248 277.272 153.243 291.517C153.927 291.921 154.525 292.457 155.001 293.092C155.478 293.728 155.824 294.452 156.021 295.222C156.217 295.991 156.259 296.793 156.146 297.579C156.032 298.365 155.765 299.122 155.359 299.805C153.66 302.679 149.938 303.626 147.074 301.92H147.07Z" fill="#61D96C"/>
</g>
<rect x="0.96875" y="471.471" width="216" height="216" rx="36.6897" fill="white" fill-opacity="0.930588"/>
<g opacity="0.930588" clip-path="url(#clip2_409_119)">
<path d="M155.748 621.019C102.42 646.399 69.3247 625.164 48.1391 612.267C46.8281 611.455 44.6 612.457 46.5332 614.678C53.5912 623.236 76.7217 643.863 106.914 643.863C137.127 643.863 155.1 627.377 157.349 624.502C159.582 621.65 158.005 620.077 155.747 621.019H155.748ZM170.725 612.748C169.293 610.883 162.017 610.536 157.438 611.098C152.852 611.645 145.968 614.447 146.567 616.13C146.874 616.761 147.501 616.478 150.651 616.195C153.81 615.879 162.661 614.763 164.504 617.173C166.357 619.6 161.682 631.163 160.827 633.028C160.003 634.893 161.143 635.374 162.693 634.132C164.22 632.891 166.988 629.675 168.845 625.125C170.689 620.55 171.813 614.168 170.724 612.748H170.725Z" fill="#FF9900"/>
<path fill-rule="evenodd" clip-rule="evenodd" d="M119.891 569.231C119.891 575.89 120.059 581.444 116.693 587.358C113.977 592.166 109.673 595.123 104.865 595.123C98.302 595.123 94.4796 590.123 94.4796 582.742C94.4796 568.173 107.533 565.529 119.891 565.529V569.231ZM137.128 610.894C135.998 611.904 134.363 611.976 133.089 611.303C127.416 606.591 126.406 604.403 123.281 599.907C113.905 609.476 107.269 612.336 95.1049 612.336C80.7285 612.336 69.5254 603.465 69.5254 585.699C69.5254 571.828 77.0505 562.38 87.7479 557.764C97.028 553.677 109.986 552.956 119.891 551.826V549.614C119.891 545.551 120.203 540.743 117.823 537.233C115.732 534.084 111.741 532.786 108.231 532.786C101.716 532.786 95.898 536.127 94.4796 543.051C94.1907 544.59 93.0612 546.104 91.5227 546.176L74.9343 544.398C73.5403 544.085 72.0018 542.955 72.3864 540.815C76.2088 520.717 94.3589 514.659 110.61 514.659C118.929 514.659 129.795 516.871 136.358 523.169C144.676 530.934 143.883 541.296 143.883 552.571V579.208C143.883 587.214 147.201 590.724 150.326 595.051C151.431 596.59 151.672 598.441 150.278 599.595C146.792 602.503 140.589 607.913 137.176 610.942L137.127 610.894" fill="black"/>
<path d="M155.748 621.019C102.42 646.399 69.3247 625.164 48.1391 612.267C46.8281 611.455 44.6 612.457 46.5332 614.678C53.5912 623.236 76.7217 643.863 106.914 643.863C137.127 643.863 155.1 627.377 157.349 624.502C159.582 621.65 158.005 620.077 155.747 621.019H155.748ZM170.725 612.748C169.293 610.883 162.017 610.536 157.438 611.098C152.852 611.645 145.968 614.447 146.567 616.13C146.874 616.761 147.501 616.478 150.651 616.195C153.81 615.879 162.661 614.763 164.504 617.173C166.357 619.6 161.682 631.163 160.827 633.028C160.003 634.893 161.143 635.374 162.693 634.132C164.22 632.891 166.988 629.675 168.845 625.125C170.689 620.55 171.813 614.168 170.724 612.748H170.725Z" fill="#FF9900"/>
<path fill-rule="evenodd" clip-rule="evenodd" d="M119.891 569.231C119.891 575.89 120.059 581.444 116.693 587.358C113.977 592.166 109.673 595.123 104.865 595.123C98.302 595.123 94.4796 590.123 94.4796 582.742C94.4796 568.173 107.533 565.529 119.891 565.529V569.231ZM137.128 610.894C135.998 611.904 134.363 611.976 133.089 611.303C127.416 606.591 126.406 604.403 123.281 599.907C113.905 609.476 107.269 612.336 95.1049 612.336C80.7285 612.336 69.5254 603.465 69.5254 585.699C69.5254 571.828 77.0505 562.38 87.7479 557.764C97.028 553.677 109.986 552.956 119.891 551.826V549.614C119.891 545.551 120.203 540.743 117.823 537.233C115.732 534.084 111.741 532.786 108.231 532.786C101.716 532.786 95.898 536.127 94.4796 543.051C94.1907 544.59 93.0612 546.104 91.5227 546.176L74.9343 544.398C73.5403 544.085 72.0018 542.955 72.3864 540.815C76.2088 520.717 94.3589 514.659 110.61 514.659C118.929 514.659 129.795 516.871 136.358 523.169C144.676 530.934 143.883 541.296 143.883 552.571V579.208C143.883 587.214 147.201 590.724 150.326 595.051C151.431 596.59 151.672 598.441 150.278 599.595C146.792 602.503 140.589 607.913 137.176 610.942L137.127 610.894" fill="black"/>
</g>
<rect x="0.96875" y="741.534" width="216" height="216" rx="36.6897" fill="white" fill-opacity="0.930588"/>
<defs>
<clipPath id="clip0_409_119">
<rect width="129.625" height="129.625" fill="white" transform="translate(44.1564 -25.4661)"/>
</clipPath>
<clipPath id="clip1_409_119">
<rect width="129.625" height="129.625" fill="white" transform="translate(44.1562 244.596)"/>
</clipPath>
<clipPath id="clip2_409_119">
<rect width="126.384" height="129.625" fill="white" transform="translate(45.7766 514.659)"/>
</clipPath>
</defs>
</svg>
