<svg width="406" height="24" viewBox="0 0 406 24" fill="none" xmlns="http://www.w3.org/2000/svg">
<g clip-path="url(#clip0_409_21)">
<g clip-path="url(#clip1_409_21)">
<path d="M6.37331 23.3565H0.411011V1.42407H12.6753V7.1568H6.37331V10.7071H12.3113V16.4406H6.37331V23.3565Z" fill="#A0A1A8"/>
<path d="M32.2566 12.3796C32.2566 2.33341 23.2396 1.42407 19.5062 1.42407H13.4961V23.3358H19.5062L19.4969 17.6231V7.06623C23.1946 7.06623 26.3363 8.4313 26.3363 12.3446C26.3363 16.2573 23.1946 17.6223 19.4969 17.6223L19.5062 23.3351C24.1517 23.3358 32.2566 22.4465 32.2566 12.3796Z" fill="#A0A1A8"/>
<path d="M39.2519 1.375H33.2896V23.3531H39.2519V1.375Z" fill="#A0A1A8"/>
<path d="M51.4255 17.5517C48.5614 17.5517 46.1911 15.2195 46.1911 12.3595C46.1911 9.49958 48.5614 7.16669 51.4255 7.16669C54.0368 7.16669 55.4022 8.55459 56.3015 10.3825V2.51304C56.3015 2.51304 53.6615 1.32983 51.2013 1.32983C45.7372 1.32983 39.817 6.35221 39.817 12.3595C39.817 19.7141 45.4638 23.3885 51.2013 23.3885C53.6607 23.3885 56.3015 22.2067 56.3015 22.2067V14.4057C55.2252 16.26 54.0227 17.5517 51.4255 17.5517Z" fill="#A0A1A8"/>
<path d="M51.4928 16.9096C53.9946 16.9096 56.0227 14.883 56.0227 12.3829C56.0227 9.88287 53.9946 7.8562 51.4928 7.8562C48.991 7.8562 46.963 9.88287 46.963 12.3829C46.963 14.883 48.991 16.9096 51.4928 16.9096Z" fill="#A0A1A8"/>
</g>
</g>
<path d="M72.6152 7.78125V0.759308H75.1867C75.685 0.759308 76.0976 0.841596 76.4245 1.00617C76.7513 1.16846 76.9959 1.38904 77.1582 1.66791C77.3205 1.94449 77.4016 2.2565 77.4016 2.60394C77.4016 2.89652 77.3479 3.14339 77.2405 3.34453C77.1331 3.5434 76.9891 3.7034 76.8085 3.82455C76.6302 3.94341 76.4336 4.03027 76.2187 4.08513V4.1537C76.4519 4.16513 76.6793 4.24056 76.9011 4.38C77.1251 4.51714 77.3102 4.71258 77.4565 4.9663C77.6028 5.22002 77.6759 5.52861 77.6759 5.89205C77.6759 6.25091 77.5914 6.57321 77.4222 6.85893C77.2554 7.14237 76.9971 7.36752 76.6473 7.53438C76.2976 7.69896 75.8507 7.78125 75.3067 7.78125H72.6152ZM73.6747 6.87265H75.2039C75.7113 6.87265 76.0747 6.77436 76.2942 6.57778C76.5136 6.3812 76.6233 6.13548 76.6233 5.84062C76.6233 5.61889 76.5673 5.41546 76.4553 5.23031C76.3433 5.04516 76.1833 4.89773 75.9753 4.78801C75.7696 4.67829 75.525 4.62343 75.2416 4.62343H73.6747V6.87265ZM73.6747 3.79712H75.0941C75.3319 3.79712 75.5456 3.7514 75.7353 3.65997C75.9273 3.56854 76.0793 3.44054 76.1913 3.27596C76.3056 3.1091 76.3628 2.91252 76.3628 2.68623C76.3628 2.39593 76.261 2.1525 76.0576 1.95592C75.8542 1.75934 75.5422 1.66105 75.1216 1.66105H73.6747V3.79712ZM80.576 7.89783C80.2423 7.89783 79.9405 7.83611 79.6708 7.71268C79.4011 7.58696 79.1874 7.40524 79.0297 7.16752C78.8742 6.92979 78.7965 6.63836 78.7965 6.2932C78.7965 5.99605 78.8536 5.75147 78.9679 5.55946C79.0822 5.36746 79.2365 5.21545 79.4308 5.10345C79.6251 4.99145 79.8422 4.90687 80.0823 4.84973C80.3223 4.79258 80.5668 4.74915 80.816 4.71944C81.1314 4.68286 81.3874 4.65315 81.584 4.63029C81.7806 4.60515 81.9235 4.56515 82.0126 4.51029C82.1018 4.45543 82.1463 4.36628 82.1463 4.24285V4.21885C82.1463 3.91941 82.0617 3.6874 81.8926 3.52283C81.7257 3.35825 81.4766 3.27596 81.1451 3.27596C80.8 3.27596 80.528 3.35253 80.3291 3.50568C80.1325 3.65654 79.9965 3.82455 79.9211 4.0097L78.9576 3.79026C79.0719 3.47025 79.2388 3.21196 79.4582 3.01538C79.68 2.81652 79.9348 2.67251 80.2228 2.58337C80.5108 2.49194 80.8137 2.44622 81.1314 2.44622C81.3417 2.44622 81.5646 2.47136 81.8 2.52165C82.0377 2.56965 82.2595 2.6588 82.4652 2.78909C82.6732 2.91938 82.8435 3.10567 82.9761 3.34796C83.1086 3.58797 83.1749 3.89998 83.1749 4.28399V7.78125H82.1738V7.06123H82.1326C82.0663 7.1938 81.9669 7.32409 81.8343 7.4521C81.7017 7.5801 81.5314 7.68639 81.3234 7.77096C81.1154 7.85554 80.8663 7.89783 80.576 7.89783ZM80.7989 7.07494C81.0823 7.07494 81.3246 7.01894 81.5257 6.90694C81.7292 6.79493 81.8835 6.64864 81.9886 6.46806C82.096 6.2852 82.1498 6.08977 82.1498 5.88176V5.20288C82.1132 5.23945 82.0423 5.27374 81.9372 5.30574C81.8343 5.33546 81.7166 5.36174 81.584 5.3846C81.4514 5.40517 81.3223 5.4246 81.1966 5.44289C81.0709 5.45889 80.9657 5.4726 80.8811 5.48403C80.6823 5.50918 80.5006 5.55146 80.336 5.61089C80.1737 5.67032 80.0434 5.75604 79.9451 5.86804C79.8491 5.97776 79.8011 6.12405 79.8011 6.30692C79.8011 6.56064 79.8948 6.75265 80.0823 6.88294C80.2697 7.01094 80.5086 7.07494 80.7989 7.07494ZM85.7587 4.65429V7.78125H84.7335V2.51479H85.7175V3.37196H85.7827C85.9038 3.0931 86.0935 2.86909 86.3518 2.69994C86.6124 2.53079 86.9404 2.44622 87.3359 2.44622C87.6947 2.44622 88.009 2.52165 88.2788 2.67251C88.5485 2.82109 88.7576 3.04281 88.9062 3.33768C89.0548 3.63254 89.1291 3.99713 89.1291 4.43143V7.78125H88.1039V4.55486C88.1039 4.17313 88.0045 3.87484 87.8056 3.65997C87.6067 3.44282 87.3336 3.33425 86.9861 3.33425C86.7484 3.33425 86.537 3.38568 86.3518 3.48854C86.169 3.5914 86.0238 3.74226 85.9164 3.94113C85.8113 4.1377 85.7587 4.37543 85.7587 4.65429ZM91.64 5.99491L91.6331 4.74344H91.8114L93.9098 2.51479H95.1372L92.744 5.05202H92.5829L91.64 5.99491ZM90.6971 7.78125V0.759308H91.7223V7.78125H90.6971ZM94.0229 7.78125L92.1371 5.27831L92.8434 4.56172L95.2812 7.78125H94.0229ZM96.2646 7.78125V2.51479H97.2898V7.78125H96.2646ZM96.7824 1.7022C96.6041 1.7022 96.4509 1.64276 96.3229 1.5239C96.1972 1.40276 96.1344 1.25875 96.1344 1.09189C96.1344 0.922742 96.1972 0.778737 96.3229 0.659876C96.4509 0.538729 96.6041 0.478156 96.7824 0.478156C96.9607 0.478156 97.1127 0.538729 97.2384 0.659876C97.3664 0.778737 97.4304 0.922742 97.4304 1.09189C97.4304 1.25875 97.3664 1.40276 97.2384 1.5239C97.1127 1.64276 96.9607 1.7022 96.7824 1.7022ZM99.8873 4.65429V7.78125H98.8621V2.51479H99.8461V3.37196H99.9113C100.032 3.0931 100.222 2.86909 100.48 2.69994C100.741 2.53079 101.069 2.44622 101.464 2.44622C101.823 2.44622 102.138 2.52165 102.407 2.67251C102.677 2.82109 102.886 3.04281 103.035 3.33768C103.183 3.63254 103.258 3.99713 103.258 4.43143V7.78125H102.233V4.55486C102.233 4.17313 102.133 3.87484 101.934 3.65997C101.735 3.44282 101.462 3.33425 101.115 3.33425C100.877 3.33425 100.666 3.38568 100.48 3.48854C100.298 3.5914 100.152 3.74226 100.045 3.94113C99.9399 4.1377 99.8873 4.37543 99.8873 4.65429ZM107.034 9.86589C106.615 9.86589 106.255 9.81103 105.954 9.70131C105.654 9.59159 105.41 9.44645 105.22 9.26587C105.03 9.08529 104.889 8.88757 104.795 8.67271L105.676 8.30927C105.738 8.40984 105.82 8.51613 105.923 8.62813C106.028 8.74242 106.17 8.83957 106.348 8.91957C106.529 8.99958 106.761 9.03958 107.044 9.03958C107.433 9.03958 107.754 8.94472 108.008 8.755C108.261 8.56756 108.388 8.26812 108.388 7.85668V6.82122H108.323C108.261 6.93322 108.172 7.0578 108.056 7.19495C107.941 7.33209 107.783 7.45095 107.582 7.55153C107.381 7.6521 107.119 7.70239 106.797 7.70239C106.381 7.70239 106.006 7.60524 105.673 7.41095C105.341 7.21437 105.078 6.92522 104.884 6.5435C104.692 6.15948 104.596 5.68747 104.596 5.12745C104.596 4.56743 104.691 4.08742 104.881 3.6874C105.073 3.28739 105.335 2.98109 105.669 2.76852C106.003 2.55365 106.381 2.44622 106.804 2.44622C107.131 2.44622 107.395 2.50108 107.596 2.6108C107.797 2.71823 107.954 2.84395 108.066 2.98795C108.18 3.13196 108.268 3.25882 108.33 3.36854H108.405V2.51479H109.41V7.89783C109.41 8.35041 109.305 8.72185 109.094 9.01215C108.884 9.30244 108.6 9.51731 108.241 9.65674C107.884 9.79617 107.482 9.86589 107.034 9.86589ZM107.023 6.85208C107.318 6.85208 107.567 6.7835 107.771 6.64636C107.977 6.50692 108.132 6.30806 108.237 6.04977C108.345 5.78919 108.398 5.47718 108.398 5.11373C108.398 4.75944 108.346 4.44743 108.241 4.1777C108.136 3.90798 107.981 3.69769 107.778 3.54683C107.574 3.39368 107.323 3.31711 107.023 3.31711C106.715 3.31711 106.458 3.39711 106.252 3.55711C106.046 3.71483 105.891 3.9297 105.786 4.20171C105.683 4.47371 105.631 4.77772 105.631 5.11373C105.631 5.45889 105.684 5.76176 105.789 6.02234C105.894 6.28292 106.05 6.48635 106.255 6.63264C106.463 6.77893 106.719 6.85208 107.023 6.85208ZM117.673 3.80055L116.743 3.96513C116.705 3.84626 116.643 3.73312 116.558 3.62569C116.476 3.51825 116.364 3.43025 116.222 3.36168C116.081 3.2931 115.903 3.25882 115.691 3.25882C115.401 3.25882 115.158 3.32396 114.964 3.45425C114.77 3.58226 114.672 3.74798 114.672 3.95141C114.672 4.12742 114.738 4.26914 114.868 4.37657C114.998 4.484 115.209 4.572 115.499 4.64058L116.335 4.83258C116.82 4.94459 117.181 5.11716 117.419 5.35031C117.657 5.58346 117.775 5.88633 117.775 6.25891C117.775 6.57435 117.684 6.85551 117.501 7.10237C117.321 7.34695 117.068 7.53896 116.743 7.67839C116.421 7.81782 116.047 7.88754 115.622 7.88754C115.032 7.88754 114.551 7.76182 114.179 7.51038C113.806 7.25666 113.578 6.89665 113.493 6.43035L114.484 6.27949C114.546 6.53778 114.672 6.73322 114.864 6.86579C115.056 6.99608 115.307 7.06123 115.615 7.06123C115.951 7.06123 116.22 6.99151 116.421 6.85208C116.622 6.71036 116.723 6.53778 116.723 6.33435C116.723 6.16977 116.661 6.03148 116.538 5.91948C116.417 5.80747 116.23 5.7229 115.979 5.66575L115.087 5.47032C114.596 5.35831 114.232 5.18002 113.997 4.93544C113.764 4.69086 113.647 4.38114 113.647 4.00627C113.647 3.6954 113.734 3.42339 113.908 3.19024C114.082 2.95709 114.322 2.77537 114.628 2.64508C114.934 2.51251 115.285 2.44622 115.681 2.44622C116.25 2.44622 116.698 2.56965 117.025 2.81652C117.351 3.0611 117.567 3.38911 117.673 3.80055ZM121.366 7.88754C120.847 7.88754 120.4 7.77668 120.025 7.55496C119.652 7.33095 119.364 7.01665 119.161 6.61207C118.96 6.2052 118.859 5.72861 118.859 5.18231C118.859 4.64286 118.96 4.16742 119.161 3.75598C119.364 3.34453 119.648 3.02338 120.011 2.79252C120.377 2.56165 120.804 2.44622 121.294 2.44622C121.591 2.44622 121.879 2.49536 122.158 2.59365C122.436 2.69194 122.687 2.84623 122.908 3.05653C123.13 3.26682 123.305 3.53997 123.433 3.87598C123.561 4.20971 123.625 4.61543 123.625 5.09316V5.4566H119.439V4.68858H122.62C122.62 4.41886 122.566 4.17999 122.456 3.97198C122.346 3.76169 122.192 3.59597 121.993 3.47482C121.796 3.35368 121.566 3.2931 121.3 3.2931C121.012 3.2931 120.761 3.36396 120.546 3.50568C120.333 3.64512 120.169 3.82798 120.052 4.05427C119.938 4.27828 119.881 4.52172 119.881 4.78458V5.3846C119.881 5.73661 119.943 6.03605 120.066 6.28292C120.192 6.52978 120.367 6.71836 120.591 6.84865C120.815 6.97665 121.076 7.04065 121.376 7.04065C121.57 7.04065 121.747 7.01323 121.907 6.95837C122.067 6.90122 122.206 6.81665 122.322 6.70464C122.439 6.59264 122.528 6.45435 122.59 6.28977L123.56 6.46464C123.482 6.75036 123.343 7.00065 123.142 7.21552C122.943 7.4281 122.692 7.59382 122.391 7.71268C122.091 7.82925 121.75 7.88754 121.366 7.88754ZM124.956 7.78125V2.51479H125.946V3.35139H126.001C126.097 3.06795 126.266 2.84509 126.509 2.6828C126.753 2.51822 127.03 2.43593 127.339 2.43593C127.403 2.43593 127.478 2.43822 127.565 2.44279C127.654 2.44736 127.724 2.45308 127.774 2.45993V3.44054C127.733 3.42911 127.66 3.41654 127.555 3.40282C127.449 3.38682 127.344 3.37882 127.239 3.37882C126.997 3.37882 126.781 3.43025 126.591 3.53311C126.404 3.63369 126.255 3.77426 126.145 3.95484C126.036 4.13313 125.981 4.33657 125.981 4.56515V7.78125H124.956ZM133.52 2.51479L131.61 7.78125H130.513L128.6 2.51479H129.7L131.034 6.5675H131.089L132.419 2.51479H133.52ZM134.676 7.78125V2.51479H135.702V7.78125H134.676ZM135.194 1.7022C135.016 1.7022 134.863 1.64276 134.735 1.5239C134.609 1.40276 134.546 1.25875 134.546 1.09189C134.546 0.922742 134.609 0.778737 134.735 0.659876C134.863 0.538729 135.016 0.478156 135.194 0.478156C135.372 0.478156 135.524 0.538729 135.65 0.659876C135.778 0.778737 135.842 0.922742 135.842 1.09189C135.842 1.25875 135.778 1.40276 135.65 1.5239C135.524 1.64276 135.372 1.7022 135.194 1.7022ZM139.492 7.88754C138.982 7.88754 138.544 7.77211 138.176 7.54124C137.81 7.30809 137.529 6.98694 137.332 6.57778C137.136 6.16863 137.037 5.70004 137.037 5.17202C137.037 4.63715 137.138 4.16513 137.339 3.75598C137.54 3.34453 137.824 3.02338 138.189 2.79252C138.555 2.56165 138.986 2.44622 139.482 2.44622C139.882 2.44622 140.239 2.52051 140.552 2.66908C140.865 2.81537 141.117 3.0211 141.309 3.28625C141.504 3.5514 141.619 3.86112 141.656 4.21542H140.658C140.603 3.96855 140.477 3.75598 140.281 3.57768C140.087 3.39939 139.826 3.31025 139.499 3.31025C139.213 3.31025 138.963 3.38568 138.748 3.53654C138.536 3.68512 138.37 3.8977 138.251 4.17428C138.132 4.44857 138.073 4.77315 138.073 5.14802C138.073 5.53203 138.131 5.86347 138.248 6.14234C138.364 6.42121 138.529 6.63721 138.741 6.79036C138.956 6.94351 139.209 7.02008 139.499 7.02008C139.693 7.02008 139.869 6.98465 140.027 6.91379C140.187 6.84065 140.321 6.73664 140.428 6.60178C140.538 6.46692 140.615 6.30463 140.658 6.11491H141.656C141.619 6.45549 141.508 6.7595 141.323 7.02694C141.138 7.29438 140.89 7.50467 140.579 7.65782C140.271 7.81097 139.908 7.88754 139.492 7.88754ZM145.215 7.88754C144.696 7.88754 144.249 7.77668 143.874 7.55496C143.502 7.33095 143.214 7.01665 143.01 6.61207C142.809 6.2052 142.709 5.72861 142.709 5.18231C142.709 4.64286 142.809 4.16742 143.01 3.75598C143.214 3.34453 143.497 3.02338 143.861 2.79252C144.226 2.56165 144.654 2.44622 145.143 2.44622C145.44 2.44622 145.728 2.49536 146.007 2.59365C146.286 2.69194 146.536 2.84623 146.758 3.05653C146.98 3.26682 147.154 3.53997 147.282 3.87598C147.41 4.20971 147.474 4.61543 147.474 5.09316V5.4566H143.288V4.68858H146.47C146.47 4.41886 146.415 4.17999 146.305 3.97198C146.196 3.76169 146.041 3.59597 145.842 3.47482C145.646 3.35368 145.415 3.2931 145.15 3.2931C144.862 3.2931 144.61 3.36396 144.395 3.50568C144.183 3.64512 144.018 3.82798 143.902 4.05427C143.787 4.27828 143.73 4.52172 143.73 4.78458V5.3846C143.73 5.73661 143.792 6.03605 143.915 6.28292C144.041 6.52978 144.216 6.71836 144.44 6.84865C144.664 6.97665 144.926 7.04065 145.225 7.04065C145.419 7.04065 145.597 7.01323 145.757 6.95837C145.917 6.90122 146.055 6.81665 146.172 6.70464C146.288 6.59264 146.377 6.45435 146.439 6.28977L147.409 6.46464C147.332 6.75036 147.192 7.00065 146.991 7.21552C146.792 7.4281 146.542 7.59382 146.24 7.71268C145.941 7.82925 145.599 7.88754 145.215 7.88754ZM152.751 3.80055L151.822 3.96513C151.783 3.84626 151.722 3.73312 151.637 3.62569C151.555 3.51825 151.443 3.43025 151.301 3.36168C151.159 3.2931 150.982 3.25882 150.77 3.25882C150.479 3.25882 150.237 3.32396 150.043 3.45425C149.848 3.58226 149.751 3.74798 149.751 3.95141C149.751 4.12742 149.816 4.26914 149.947 4.37657C150.077 4.484 150.287 4.572 150.578 4.64058L151.414 4.83258C151.899 4.94459 152.26 5.11716 152.498 5.35031C152.735 5.58346 152.854 5.88633 152.854 6.25891C152.854 6.57435 152.763 6.85551 152.58 7.10237C152.399 7.34695 152.147 7.53896 151.822 7.67839C151.5 7.81782 151.126 7.88754 150.701 7.88754C150.111 7.88754 149.63 7.76182 149.258 7.51038C148.885 7.25666 148.656 6.89665 148.572 6.43035L149.563 6.27949C149.624 6.53778 149.751 6.73322 149.943 6.86579C150.135 6.99608 150.386 7.06123 150.694 7.06123C151.03 7.06123 151.299 6.99151 151.5 6.85208C151.701 6.71036 151.802 6.53778 151.802 6.33435C151.802 6.16977 151.74 6.03148 151.617 5.91948C151.495 5.80747 151.309 5.7229 151.058 5.66575L150.166 5.47032C149.675 5.35831 149.311 5.18002 149.076 4.93544C148.843 4.69086 148.726 4.38114 148.726 4.00627C148.726 3.6954 148.813 3.42339 148.987 3.19024C149.16 2.95709 149.4 2.77537 149.707 2.64508C150.013 2.51251 150.364 2.44622 150.759 2.44622C151.328 2.44622 151.777 2.56965 152.103 2.81652C152.43 3.0611 152.646 3.38911 152.751 3.80055ZM156.923 9.75617V2.51479H157.924V3.36854H158.01C158.069 3.25882 158.155 3.13196 158.267 2.98795C158.379 2.84395 158.534 2.71823 158.733 2.6108C158.932 2.50108 159.195 2.44622 159.522 2.44622C159.947 2.44622 160.326 2.55365 160.66 2.76852C160.994 2.98338 161.256 3.2931 161.445 3.69769C161.637 4.10227 161.733 4.58915 161.733 5.15831C161.733 5.72747 161.638 6.21548 161.449 6.62236C161.259 7.02694 160.998 7.33895 160.667 7.55839C160.336 7.77554 159.957 7.88411 159.532 7.88411C159.212 7.88411 158.95 7.83039 158.747 7.72296C158.546 7.61553 158.388 7.48981 158.274 7.34581C158.159 7.2018 158.071 7.0738 158.01 6.96179H157.948V9.75617H156.923ZM157.927 5.14802C157.927 5.51832 157.981 5.8429 158.089 6.12177C158.196 6.40063 158.351 6.61893 158.555 6.77665C158.758 6.93208 159.008 7.0098 159.302 7.0098C159.609 7.0098 159.865 6.92865 160.07 6.76636C160.276 6.60178 160.432 6.37892 160.537 6.09777C160.644 5.81661 160.698 5.50003 160.698 5.14802C160.698 4.80058 160.645 4.48857 160.54 4.21199C160.437 3.93541 160.282 3.71712 160.074 3.55711C159.868 3.39711 159.611 3.31711 159.302 3.31711C159.005 3.31711 158.754 3.39368 158.548 3.54683C158.345 3.69997 158.19 3.9137 158.085 4.18799C157.98 4.46229 157.927 4.7823 157.927 5.14802ZM163.075 7.78125V2.51479H164.066V3.35139H164.121C164.217 3.06795 164.386 2.84509 164.628 2.6828C164.873 2.51822 165.149 2.43593 165.458 2.43593C165.522 2.43593 165.597 2.43822 165.684 2.44279C165.773 2.44736 165.843 2.45308 165.893 2.45993V3.44054C165.852 3.42911 165.779 3.41654 165.674 3.40282C165.569 3.38682 165.464 3.37882 165.359 3.37882C165.116 3.37882 164.9 3.43025 164.711 3.53311C164.523 3.63369 164.374 3.77426 164.265 3.95484C164.155 4.13313 164.1 4.33657 164.1 4.56515V7.78125H163.075ZM169.003 7.88754C168.51 7.88754 168.079 7.77439 167.711 7.5481C167.343 7.32181 167.057 7.00522 166.854 6.59835C166.65 6.19148 166.549 5.71604 166.549 5.17202C166.549 4.62572 166.65 4.14799 166.854 3.73883C167.057 3.32968 167.343 3.01195 167.711 2.78566C168.079 2.55937 168.51 2.44622 169.003 2.44622C169.497 2.44622 169.928 2.55937 170.296 2.78566C170.664 3.01195 170.95 3.32968 171.153 3.73883C171.357 4.14799 171.458 4.62572 171.458 5.17202C171.458 5.71604 171.357 6.19148 171.153 6.59835C170.95 7.00522 170.664 7.32181 170.296 7.5481C169.928 7.77439 169.497 7.88754 169.003 7.88754ZM169.007 7.02694C169.327 7.02694 169.592 6.94237 169.802 6.77322C170.013 6.60407 170.168 6.37892 170.269 6.09777C170.371 5.81661 170.423 5.50689 170.423 5.16859C170.423 4.83258 170.371 4.524 170.269 4.24285C170.168 3.95941 170.013 3.73198 169.802 3.56054C169.592 3.38911 169.327 3.30339 169.007 3.30339C168.685 3.30339 168.417 3.38911 168.205 3.56054C167.994 3.73198 167.838 3.95941 167.735 4.24285C167.634 4.524 167.584 4.83258 167.584 5.16859C167.584 5.50689 167.634 5.81661 167.735 6.09777C167.838 6.37892 167.994 6.60407 168.205 6.77322C168.417 6.94237 168.685 7.02694 169.007 7.02694ZM177.122 2.51479L175.212 7.78125H174.115L172.202 2.51479H173.302L174.636 6.5675H174.691L176.021 2.51479H177.122ZM178.279 7.78125V2.51479H179.304V7.78125H178.279ZM178.796 1.7022C178.618 1.7022 178.465 1.64276 178.337 1.5239C178.211 1.40276 178.148 1.25875 178.148 1.09189C178.148 0.922742 178.211 0.778737 178.337 0.659876C178.465 0.538729 178.618 0.478156 178.796 0.478156C178.975 0.478156 179.127 0.538729 179.252 0.659876C179.38 0.778737 179.444 0.922742 179.444 1.09189C179.444 1.25875 179.38 1.40276 179.252 1.5239C179.127 1.64276 178.975 1.7022 178.796 1.7022ZM182.847 7.88411C182.422 7.88411 182.043 7.77554 181.709 7.55839C181.378 7.33895 181.117 7.02694 180.927 6.62236C180.74 6.21548 180.646 5.72747 180.646 5.15831C180.646 4.58915 180.741 4.10227 180.931 3.69769C181.123 3.2931 181.386 2.98338 181.719 2.76852C182.053 2.55365 182.431 2.44622 182.854 2.44622C183.181 2.44622 183.444 2.50108 183.643 2.6108C183.844 2.71823 184 2.84395 184.109 2.98795C184.221 3.13196 184.308 3.25882 184.37 3.36854H184.432V0.759308H185.457V7.78125H184.456V6.96179H184.37C184.308 7.0738 184.219 7.2018 184.102 7.34581C183.988 7.48981 183.83 7.61553 183.629 7.72296C183.428 7.83039 183.167 7.88411 182.847 7.88411ZM183.074 7.0098C183.369 7.0098 183.618 6.93208 183.821 6.77665C184.027 6.61893 184.182 6.40063 184.288 6.12177C184.395 5.8429 184.449 5.51832 184.449 5.14802C184.449 4.7823 184.396 4.46229 184.291 4.18799C184.186 3.9137 184.032 3.69997 183.828 3.54683C183.625 3.39368 183.373 3.31711 183.074 3.31711C182.765 3.31711 182.508 3.39711 182.302 3.55711C182.097 3.71712 181.941 3.93541 181.836 4.21199C181.733 4.48857 181.682 4.80058 181.682 5.14802C181.682 5.50003 181.734 5.81661 181.839 6.09777C181.945 6.37892 182.1 6.60178 182.306 6.76636C182.514 6.92865 182.77 7.0098 183.074 7.0098ZM189.383 7.88754C188.864 7.88754 188.417 7.77668 188.042 7.55496C187.67 7.33095 187.382 7.01665 187.178 6.61207C186.977 6.2052 186.876 5.72861 186.876 5.18231C186.876 4.64286 186.977 4.16742 187.178 3.75598C187.382 3.34453 187.665 3.02338 188.028 2.79252C188.394 2.56165 188.822 2.44622 189.311 2.44622C189.608 2.44622 189.896 2.49536 190.175 2.59365C190.454 2.69194 190.704 2.84623 190.926 3.05653C191.147 3.26682 191.322 3.53997 191.45 3.87598C191.578 4.20971 191.642 4.61543 191.642 5.09316V5.4566H187.456V4.68858H190.638C190.638 4.41886 190.583 4.17999 190.473 3.97198C190.363 3.76169 190.209 3.59597 190.01 3.47482C189.814 3.35368 189.583 3.2931 189.318 3.2931C189.03 3.2931 188.778 3.36396 188.563 3.50568C188.351 3.64512 188.186 3.82798 188.07 4.05427C187.955 4.27828 187.898 4.52172 187.898 4.78458V5.3846C187.898 5.73661 187.96 6.03605 188.083 6.28292C188.209 6.52978 188.384 6.71836 188.608 6.84865C188.832 6.97665 189.094 7.04065 189.393 7.04065C189.587 7.04065 189.765 7.01323 189.925 6.95837C190.085 6.90122 190.223 6.81665 190.339 6.70464C190.456 6.59264 190.545 6.45435 190.607 6.28977L191.577 6.46464C191.499 6.75036 191.36 7.00065 191.159 7.21552C190.96 7.4281 190.71 7.59382 190.408 7.71268C190.109 7.82925 189.767 7.88754 189.383 7.88754ZM194.944 7.88411C194.519 7.88411 194.14 7.77554 193.806 7.55839C193.475 7.33895 193.214 7.02694 193.024 6.62236C192.837 6.21548 192.743 5.72747 192.743 5.15831C192.743 4.58915 192.838 4.10227 193.028 3.69769C193.22 3.2931 193.483 2.98338 193.816 2.76852C194.15 2.55365 194.528 2.44622 194.951 2.44622C195.278 2.44622 195.541 2.50108 195.74 2.6108C195.941 2.71823 196.096 2.84395 196.206 2.98795C196.318 3.13196 196.405 3.25882 196.467 3.36854H196.528V0.759308H197.554V7.78125H196.552V6.96179H196.467C196.405 7.0738 196.316 7.2018 196.199 7.34581C196.085 7.48981 195.927 7.61553 195.726 7.72296C195.525 7.83039 195.264 7.88411 194.944 7.88411ZM195.171 7.0098C195.466 7.0098 195.715 6.93208 195.918 6.77665C196.124 6.61893 196.279 6.40063 196.384 6.12177C196.492 5.8429 196.546 5.51832 196.546 5.14802C196.546 4.7823 196.493 4.46229 196.388 4.18799C196.283 3.9137 196.128 3.69997 195.925 3.54683C195.722 3.39368 195.47 3.31711 195.171 3.31711C194.862 3.31711 194.605 3.39711 194.399 3.55711C194.193 3.71712 194.038 3.93541 193.933 4.21199C193.83 4.48857 193.779 4.80058 193.779 5.14802C193.779 5.50003 193.831 5.81661 193.936 6.09777C194.041 6.37892 194.197 6.60178 194.403 6.76636C194.611 6.92865 194.867 7.0098 195.171 7.0098ZM202.04 7.78125V0.759308H203.066V3.36854H203.127C203.187 3.25882 203.273 3.13196 203.385 2.98795C203.497 2.84395 203.652 2.71823 203.851 2.6108C204.05 2.50108 204.313 2.44622 204.639 2.44622C205.065 2.44622 205.444 2.55365 205.778 2.76852C206.111 2.98338 206.373 3.2931 206.563 3.69769C206.755 4.10227 206.851 4.58915 206.851 5.15831C206.851 5.72747 206.756 6.21548 206.566 6.62236C206.377 7.02694 206.116 7.33895 205.785 7.55839C205.453 7.77554 205.075 7.88411 204.65 7.88411C204.33 7.88411 204.068 7.83039 203.865 7.72296C203.663 7.61553 203.506 7.48981 203.391 7.34581C203.277 7.2018 203.189 7.0738 203.127 6.96179H203.042V7.78125H202.04ZM203.045 5.14802C203.045 5.51832 203.099 5.8429 203.206 6.12177C203.314 6.40063 203.469 6.61893 203.673 6.77665C203.876 6.93208 204.125 7.0098 204.42 7.0098C204.726 7.0098 204.982 6.92865 205.188 6.76636C205.394 6.60178 205.549 6.37892 205.654 6.09777C205.762 5.81661 205.815 5.50003 205.815 5.14802C205.815 4.80058 205.763 4.48857 205.658 4.21199C205.555 3.93541 205.399 3.71712 205.191 3.55711C204.986 3.39711 204.729 3.31711 204.42 3.31711C204.123 3.31711 203.871 3.39368 203.666 3.54683C203.462 3.69997 203.308 3.9137 203.203 4.18799C203.098 4.46229 203.045 4.7823 203.045 5.14802ZM208.664 9.75617C208.511 9.75617 208.372 9.7436 208.246 9.71846C208.12 9.6956 208.026 9.67045 207.965 9.64302L208.212 8.803C208.399 8.85328 208.566 8.875 208.712 8.86814C208.858 8.86129 208.988 8.80643 209.1 8.70357C209.214 8.60071 209.314 8.4327 209.401 8.19955L209.528 7.84982L207.601 2.51479H208.698L210.032 6.60178H210.087L211.421 2.51479H212.521L210.351 8.48413C210.25 8.75842 210.122 8.99043 209.967 9.18015C209.812 9.37216 209.626 9.51616 209.412 9.61217C209.197 9.70817 208.948 9.75617 208.664 9.75617ZM222.341 3.04281H221.271C221.23 2.81423 221.153 2.61308 221.041 2.43936C220.929 2.26564 220.792 2.11821 220.63 1.99706C220.468 1.87592 220.286 1.78448 220.085 1.72277C219.886 1.66105 219.674 1.63019 219.45 1.63019C219.046 1.63019 218.683 1.73191 218.363 1.93535C218.046 2.13878 217.794 2.43708 217.609 2.83023C217.426 3.22339 217.335 3.7034 217.335 4.27028C217.335 4.84173 217.426 5.32403 217.609 5.71718C217.794 6.11034 218.047 6.40749 218.367 6.60864C218.687 6.80979 219.047 6.91036 219.447 6.91036C219.669 6.91036 219.879 6.88065 220.078 6.82122C220.279 6.7595 220.461 6.66921 220.623 6.55035C220.785 6.43149 220.922 6.28634 221.034 6.11491C221.149 5.94119 221.228 5.74233 221.271 5.51832L222.341 5.52175C222.284 5.8669 222.173 6.18463 222.008 6.47492C221.846 6.76293 221.637 7.01208 221.381 7.22237C221.127 7.43038 220.837 7.59153 220.51 7.70582C220.183 7.82011 219.826 7.87725 219.44 7.87725C218.832 7.87725 218.29 7.73325 217.815 7.44524C217.339 7.15494 216.965 6.74007 216.69 6.20063C216.418 5.66118 216.282 5.01773 216.282 4.27028C216.282 3.52054 216.419 2.87709 216.694 2.33993C216.968 1.80048 217.343 1.38676 217.818 1.09875C218.294 0.808452 218.834 0.663304 219.44 0.663304C219.813 0.663304 220.16 0.717021 220.482 0.824453C220.807 0.929599 221.098 1.08503 221.357 1.29075C221.615 1.49419 221.829 1.74334 221.998 2.03821C222.167 2.33079 222.281 2.66566 222.341 3.04281ZM225.938 7.88754C225.444 7.88754 225.013 7.77439 224.645 7.5481C224.277 7.32181 223.991 7.00522 223.788 6.59835C223.584 6.19148 223.483 5.71604 223.483 5.17202C223.483 4.62572 223.584 4.14799 223.788 3.73883C223.991 3.32968 224.277 3.01195 224.645 2.78566C225.013 2.55937 225.444 2.44622 225.938 2.44622C226.431 2.44622 226.862 2.55937 227.23 2.78566C227.598 3.01195 227.884 3.32968 228.087 3.73883C228.291 4.14799 228.393 4.62572 228.393 5.17202C228.393 5.71604 228.291 6.19148 228.087 6.59835C227.884 7.00522 227.598 7.32181 227.23 7.5481C226.862 7.77439 226.431 7.88754 225.938 7.88754ZM225.941 7.02694C226.261 7.02694 226.526 6.94237 226.737 6.77322C226.947 6.60407 227.102 6.37892 227.203 6.09777C227.306 5.81661 227.357 5.50689 227.357 5.16859C227.357 4.83258 227.306 4.524 227.203 4.24285C227.102 3.95941 226.947 3.73198 226.737 3.56054C226.526 3.38911 226.261 3.30339 225.941 3.30339C225.619 3.30339 225.351 3.38911 225.139 3.56054C224.928 3.73198 224.772 3.95941 224.669 4.24285C224.568 4.524 224.518 4.83258 224.518 5.16859C224.518 5.50689 224.568 5.81661 224.669 6.09777C224.772 6.37892 224.928 6.60407 225.139 6.77322C225.351 6.94237 225.619 7.02694 225.941 7.02694ZM231.263 7.89783C230.929 7.89783 230.627 7.83611 230.357 7.71268C230.088 7.58696 229.874 7.40524 229.716 7.16752C229.561 6.92979 229.483 6.63836 229.483 6.2932C229.483 5.99605 229.54 5.75147 229.655 5.55946C229.769 5.36746 229.923 5.21545 230.117 5.10345C230.312 4.99145 230.529 4.90687 230.769 4.84973C231.009 4.79258 231.253 4.74915 231.503 4.71944C231.818 4.68286 232.074 4.65315 232.271 4.63029C232.467 4.60515 232.61 4.56515 232.699 4.51029C232.788 4.45543 232.833 4.36628 232.833 4.24285V4.21885C232.833 3.91941 232.748 3.6874 232.579 3.52283C232.412 3.35825 232.163 3.27596 231.832 3.27596C231.487 3.27596 231.215 3.35253 231.016 3.50568C230.819 3.65654 230.683 3.82455 230.608 4.0097L229.644 3.79026C229.759 3.47025 229.925 3.21196 230.145 3.01538C230.367 2.81652 230.621 2.67251 230.909 2.58337C231.197 2.49194 231.5 2.44622 231.818 2.44622C232.028 2.44622 232.251 2.47136 232.487 2.52165C232.724 2.56965 232.946 2.6588 233.152 2.78909C233.36 2.91938 233.53 3.10567 233.663 3.34796C233.795 3.58797 233.862 3.89998 233.862 4.28399V7.78125H232.86V7.06123H232.819C232.753 7.1938 232.654 7.32409 232.521 7.4521C232.388 7.5801 232.218 7.68639 232.01 7.77096C231.802 7.85554 231.553 7.89783 231.263 7.89783ZM231.485 7.07494C231.769 7.07494 232.011 7.01894 232.212 6.90694C232.416 6.79493 232.57 6.64864 232.675 6.46806C232.783 6.2852 232.836 6.08977 232.836 5.88176V5.20288C232.8 5.23945 232.729 5.27374 232.624 5.30574C232.521 5.33546 232.403 5.36174 232.271 5.3846C232.138 5.40517 232.009 5.4246 231.883 5.44289C231.758 5.45889 231.652 5.4726 231.568 5.48403C231.369 5.50918 231.187 5.55146 231.023 5.61089C230.86 5.67032 230.73 5.75604 230.632 5.86804C230.536 5.97776 230.488 6.12405 230.488 6.30692C230.488 6.56064 230.581 6.75265 230.769 6.88294C230.956 7.01094 231.195 7.07494 231.485 7.07494ZM239.367 3.80055L238.437 3.96513C238.399 3.84626 238.337 3.73312 238.252 3.62569C238.17 3.51825 238.058 3.43025 237.916 3.36168C237.775 3.2931 237.597 3.25882 237.385 3.25882C237.094 3.25882 236.852 3.32396 236.658 3.45425C236.464 3.58226 236.366 3.74798 236.366 3.95141C236.366 4.12742 236.432 4.26914 236.562 4.37657C236.692 4.484 236.902 4.572 237.193 4.64058L238.029 4.83258C238.514 4.94459 238.875 5.11716 239.113 5.35031C239.351 5.58346 239.469 5.88633 239.469 6.25891C239.469 6.57435 239.378 6.85551 239.195 7.10237C239.015 7.34695 238.762 7.53896 238.437 7.67839C238.115 7.81782 237.741 7.88754 237.316 7.88754C236.726 7.88754 236.245 7.76182 235.873 7.51038C235.5 7.25666 235.272 6.89665 235.187 6.43035L236.178 6.27949C236.24 6.53778 236.366 6.73322 236.558 6.86579C236.75 6.99608 237.001 7.06123 237.309 7.06123C237.645 7.06123 237.914 6.99151 238.115 6.85208C238.316 6.71036 238.417 6.53778 238.417 6.33435C238.417 6.16977 238.355 6.03148 238.232 5.91948C238.111 5.80747 237.924 5.7229 237.673 5.66575L236.781 5.47032C236.29 5.35831 235.926 5.18002 235.691 4.93544C235.458 4.69086 235.341 4.38114 235.341 4.00627C235.341 3.6954 235.428 3.42339 235.602 3.19024C235.776 2.95709 236.016 2.77537 236.322 2.64508C236.628 2.51251 236.979 2.44622 237.375 2.44622C237.944 2.44622 238.392 2.56965 238.719 2.81652C239.045 3.0611 239.261 3.38911 239.367 3.80055ZM243.248 2.51479V3.33768H240.371V2.51479H243.248ZM241.143 1.25304H242.168V6.23491C242.168 6.43378 242.198 6.5835 242.257 6.68407C242.317 6.78236 242.393 6.84979 242.487 6.88636C242.583 6.92065 242.687 6.93779 242.799 6.93779C242.881 6.93779 242.953 6.93208 243.015 6.92065C243.077 6.90922 243.125 6.90008 243.159 6.89322L243.344 7.74011C243.285 7.76296 243.2 7.78582 243.09 7.80868C242.981 7.83382 242.843 7.84754 242.679 7.84982C242.409 7.8544 242.158 7.80639 241.925 7.70582C241.691 7.60524 241.503 7.44981 241.359 7.23952C241.215 7.02923 241.143 6.76522 241.143 6.44749V1.25304ZM246.108 7.89783C245.774 7.89783 245.472 7.83611 245.203 7.71268C244.933 7.58696 244.719 7.40524 244.561 7.16752C244.406 6.92979 244.328 6.63836 244.328 6.2932C244.328 5.99605 244.385 5.75147 244.5 5.55946C244.614 5.36746 244.768 5.21545 244.963 5.10345C245.157 4.99145 245.374 4.90687 245.614 4.84973C245.854 4.79258 246.099 4.74915 246.348 4.71944C246.663 4.68286 246.919 4.65315 247.116 4.63029C247.312 4.60515 247.455 4.56515 247.544 4.51029C247.634 4.45543 247.678 4.36628 247.678 4.24285V4.21885C247.678 3.91941 247.594 3.6874 247.424 3.52283C247.258 3.35825 247.008 3.27596 246.677 3.27596C246.332 3.27596 246.06 3.35253 245.861 3.50568C245.664 3.65654 245.528 3.82455 245.453 4.0097L244.489 3.79026C244.604 3.47025 244.771 3.21196 244.99 3.01538C245.212 2.81652 245.467 2.67251 245.755 2.58337C246.043 2.49194 246.346 2.44622 246.663 2.44622C246.874 2.44622 247.096 2.47136 247.332 2.52165C247.57 2.56965 247.791 2.6588 247.997 2.78909C248.205 2.91938 248.375 3.10567 248.508 3.34796C248.64 3.58797 248.707 3.89998 248.707 4.28399V7.78125H247.706V7.06123H247.664C247.598 7.1938 247.499 7.32409 247.366 7.4521C247.234 7.5801 247.063 7.68639 246.855 7.77096C246.647 7.85554 246.398 7.89783 246.108 7.89783ZM246.331 7.07494C246.614 7.07494 246.856 7.01894 247.058 6.90694C247.261 6.79493 247.415 6.64864 247.52 6.46806C247.628 6.2852 247.682 6.08977 247.682 5.88176V5.20288C247.645 5.23945 247.574 5.27374 247.469 5.30574C247.366 5.33546 247.248 5.36174 247.116 5.3846C246.983 5.40517 246.854 5.4246 246.728 5.44289C246.603 5.45889 246.498 5.4726 246.413 5.48403C246.214 5.50918 246.032 5.55146 245.868 5.61089C245.706 5.67032 245.575 5.75604 245.477 5.86804C245.381 5.97776 245.333 6.12405 245.333 6.30692C245.333 6.56064 245.427 6.75265 245.614 6.88294C245.802 7.01094 246.04 7.07494 246.331 7.07494ZM251.291 0.759308V7.78125H250.265V0.759308H251.291ZM261.526 3.04281H260.456C260.415 2.81423 260.338 2.61308 260.226 2.43936C260.114 2.26564 259.977 2.11821 259.815 1.99706C259.652 1.87592 259.471 1.78448 259.27 1.72277C259.071 1.66105 258.859 1.63019 258.635 1.63019C258.231 1.63019 257.868 1.73191 257.548 1.93535C257.231 2.13878 256.979 2.43708 256.794 2.83023C256.611 3.22339 256.52 3.7034 256.52 4.27028C256.52 4.84173 256.611 5.32403 256.794 5.71718C256.979 6.11034 257.232 6.40749 257.552 6.60864C257.872 6.80979 258.232 6.91036 258.632 6.91036C258.854 6.91036 259.064 6.88065 259.263 6.82122C259.464 6.7595 259.646 6.66921 259.808 6.55035C259.97 6.43149 260.107 6.28634 260.219 6.11491C260.334 5.94119 260.412 5.74233 260.456 5.51832L261.526 5.52175C261.468 5.8669 261.358 6.18463 261.193 6.47492C261.031 6.76293 260.822 7.01208 260.566 7.22237C260.312 7.43038 260.022 7.59153 259.695 7.70582C259.368 7.82011 259.011 7.87725 258.625 7.87725C258.017 7.87725 257.475 7.73325 257 7.44524C256.524 7.15494 256.149 6.74007 255.875 6.20063C255.603 5.66118 255.467 5.01773 255.467 4.27028C255.467 3.52054 255.604 2.87709 255.879 2.33993C256.153 1.80048 256.528 1.38676 257.003 1.09875C257.479 0.808452 258.019 0.663304 258.625 0.663304C258.998 0.663304 259.345 0.717021 259.667 0.824453C259.992 0.929599 260.283 1.08503 260.542 1.29075C260.8 1.49419 261.014 1.74334 261.183 2.03821C261.352 2.33079 261.466 2.66566 261.526 3.04281ZM265.123 7.88754C264.629 7.88754 264.198 7.77439 263.83 7.5481C263.462 7.32181 263.176 7.00522 262.973 6.59835C262.769 6.19148 262.668 5.71604 262.668 5.17202C262.668 4.62572 262.769 4.14799 262.973 3.73883C263.176 3.32968 263.462 3.01195 263.83 2.78566C264.198 2.55937 264.629 2.44622 265.123 2.44622C265.616 2.44622 266.047 2.55937 266.415 2.78566C266.783 3.01195 267.069 3.32968 267.272 3.73883C267.476 4.14799 267.577 4.62572 267.577 5.17202C267.577 5.71604 267.476 6.19148 267.272 6.59835C267.069 7.00522 266.783 7.32181 266.415 7.5481C266.047 7.77439 265.616 7.88754 265.123 7.88754ZM265.126 7.02694C265.446 7.02694 265.711 6.94237 265.921 6.77322C266.132 6.60407 266.287 6.37892 266.388 6.09777C266.491 5.81661 266.542 5.50689 266.542 5.16859C266.542 4.83258 266.491 4.524 266.388 4.24285C266.287 3.95941 266.132 3.73198 265.921 3.56054C265.711 3.38911 265.446 3.30339 265.126 3.30339C264.804 3.30339 264.536 3.38911 264.324 3.56054C264.113 3.73198 263.957 3.95941 263.854 4.24285C263.753 4.524 263.703 4.83258 263.703 5.16859C263.703 5.50689 263.753 5.81661 263.854 6.09777C263.957 6.37892 264.113 6.60407 264.324 6.77322C264.536 6.94237 264.804 7.02694 265.126 7.02694ZM268.915 7.78125V2.51479H269.899V3.37196H269.964C270.074 3.08167 270.253 2.85538 270.502 2.69309C270.752 2.52851 271.05 2.44622 271.397 2.44622C271.749 2.44622 272.044 2.52851 272.282 2.69309C272.522 2.85766 272.699 3.08395 272.813 3.37196H272.868C272.994 3.09081 273.194 2.8668 273.468 2.69994C273.743 2.53079 274.069 2.44622 274.449 2.44622C274.927 2.44622 275.316 2.59594 275.618 2.89538C275.922 3.19482 276.074 3.64626 276.074 4.24971V7.78125H275.049V4.34571C275.049 3.98913 274.952 3.73083 274.757 3.57083C274.563 3.41082 274.331 3.33082 274.061 3.33082C273.728 3.33082 273.468 3.43368 273.283 3.6394C273.098 3.84284 273.005 4.10456 273.005 4.42457V7.78125H271.984V4.28056C271.984 3.99484 271.894 3.76512 271.716 3.5914C271.538 3.41768 271.306 3.33082 271.02 3.33082C270.826 3.33082 270.646 3.38225 270.482 3.48511C270.32 3.58569 270.188 3.72626 270.088 3.90684C269.989 4.08742 269.94 4.29657 269.94 4.53429V7.78125H268.915ZM277.641 7.78125V2.51479H278.625V3.37196H278.69C278.8 3.08167 278.979 2.85538 279.229 2.69309C279.478 2.52851 279.776 2.44622 280.124 2.44622C280.476 2.44622 280.77 2.52851 281.008 2.69309C281.248 2.85766 281.425 3.08395 281.54 3.37196H281.594C281.72 3.09081 281.92 2.8668 282.194 2.69994C282.469 2.53079 282.796 2.44622 283.175 2.44622C283.653 2.44622 284.043 2.59594 284.344 2.89538C284.648 3.19482 284.8 3.64626 284.8 4.24971V7.78125H283.775V4.34571C283.775 3.98913 283.678 3.73083 283.484 3.57083C283.289 3.41082 283.057 3.33082 282.788 3.33082C282.454 3.33082 282.194 3.43368 282.009 3.6394C281.824 3.84284 281.732 4.10456 281.732 4.42457V7.78125H280.71V4.28056C280.71 3.99484 280.621 3.76512 280.442 3.5914C280.264 3.41768 280.032 3.33082 279.746 3.33082C279.552 3.33082 279.373 3.38225 279.208 3.48511C279.046 3.58569 278.914 3.72626 278.814 3.90684C278.715 4.08742 278.666 4.29657 278.666 4.53429V7.78125H277.641ZM289.703 5.59718V2.51479H290.732V7.78125H289.724V6.86922H289.669C289.548 7.15037 289.354 7.38467 289.086 7.5721C288.821 7.75725 288.491 7.84982 288.095 7.84982C287.757 7.84982 287.458 7.77554 287.197 7.62696C286.939 7.4761 286.735 7.25323 286.587 6.95837C286.441 6.6635 286.367 6.29892 286.367 5.86462V2.51479H287.393V5.74118C287.393 6.10005 287.492 6.38578 287.691 6.59835C287.89 6.81093 288.148 6.91722 288.466 6.91722C288.658 6.91722 288.849 6.86922 289.038 6.77322C289.23 6.67721 289.389 6.53207 289.515 6.33777C289.643 6.14348 289.706 5.89662 289.703 5.59718ZM293.328 4.65429V7.78125H292.303V2.51479H293.287V3.37196H293.352C293.473 3.0931 293.663 2.86909 293.921 2.69994C294.182 2.53079 294.51 2.44622 294.905 2.44622C295.264 2.44622 295.578 2.52165 295.848 2.67251C296.118 2.82109 296.327 3.04281 296.475 3.33768C296.624 3.63254 296.698 3.99713 296.698 4.43143V7.78125H295.673V4.55486C295.673 4.17313 295.574 3.87484 295.375 3.65997C295.176 3.44282 294.903 3.33425 294.555 3.33425C294.318 3.33425 294.106 3.38568 293.921 3.48854C293.738 3.5914 293.593 3.74226 293.486 3.94113C293.38 4.1377 293.328 4.37543 293.328 4.65429ZM298.266 7.78125V2.51479H299.291V7.78125H298.266ZM298.784 1.7022C298.606 1.7022 298.453 1.64276 298.325 1.5239C298.199 1.40276 298.136 1.25875 298.136 1.09189C298.136 0.922742 298.199 0.778737 298.325 0.659876C298.453 0.538729 298.606 0.478156 298.784 0.478156C298.962 0.478156 299.114 0.538729 299.24 0.659876C299.368 0.778737 299.432 0.922742 299.432 1.09189C299.432 1.25875 299.368 1.40276 299.24 1.5239C299.114 1.64276 298.962 1.7022 298.784 1.7022ZM303.322 2.51479V3.33768H300.445V2.51479H303.322ZM301.217 1.25304H302.242V6.23491C302.242 6.43378 302.272 6.5835 302.331 6.68407C302.391 6.78236 302.467 6.84979 302.561 6.88636C302.657 6.92065 302.761 6.93779 302.873 6.93779C302.955 6.93779 303.027 6.93208 303.089 6.92065C303.151 6.90922 303.199 6.90008 303.233 6.89322L303.418 7.74011C303.359 7.76296 303.274 7.78582 303.164 7.80868C303.055 7.83382 302.918 7.84754 302.753 7.84982C302.483 7.8544 302.232 7.80639 301.999 7.70582C301.765 7.60524 301.577 7.44981 301.433 7.23952C301.289 7.02923 301.217 6.76522 301.217 6.44749V1.25304ZM305.297 9.75617C305.144 9.75617 305.005 9.7436 304.879 9.71846C304.753 9.6956 304.66 9.67045 304.598 9.64302L304.845 8.803C305.032 8.85328 305.199 8.875 305.345 8.86814C305.492 8.86129 305.621 8.80643 305.733 8.70357C305.847 8.60071 305.948 8.4327 306.034 8.19955L306.161 7.84982L304.234 2.51479H305.332L306.665 6.60178H306.72L308.054 2.51479H309.155L306.984 8.48413C306.884 8.75842 306.756 8.99043 306.6 9.18015C306.445 9.37216 306.26 9.51616 306.045 9.61217C305.83 9.70817 305.581 9.75617 305.297 9.75617ZM313.142 7.78125V0.759308H315.713C316.212 0.759308 316.624 0.841596 316.951 1.00617C317.278 1.16846 317.522 1.38904 317.685 1.66791C317.847 1.94449 317.928 2.2565 317.928 2.60394C317.928 2.89652 317.874 3.14339 317.767 3.34453C317.66 3.5434 317.516 3.7034 317.335 3.82455C317.157 3.94341 316.96 4.03027 316.745 4.08513V4.1537C316.978 4.16513 317.206 4.24056 317.428 4.38C317.652 4.51714 317.837 4.71258 317.983 4.9663C318.129 5.22002 318.202 5.52861 318.202 5.89205C318.202 6.25091 318.118 6.57321 317.949 6.85893C317.782 7.14237 317.524 7.36752 317.174 7.53438C316.824 7.69896 316.377 7.78125 315.833 7.78125H313.142ZM314.201 6.87265H315.73C316.238 6.87265 316.601 6.77436 316.821 6.57778C317.04 6.3812 317.15 6.13548 317.15 5.84062C317.15 5.61889 317.094 5.41546 316.982 5.23031C316.87 5.04516 316.71 4.89773 316.502 4.78801C316.296 4.67829 316.052 4.62343 315.768 4.62343H314.201V6.87265ZM314.201 3.79712H315.621C315.858 3.79712 316.072 3.7514 316.262 3.65997C316.454 3.56854 316.606 3.44054 316.718 3.27596C316.832 3.1091 316.889 2.91252 316.889 2.68623C316.889 2.39593 316.788 2.1525 316.584 1.95592C316.381 1.75934 316.069 1.66105 315.648 1.66105H314.201V3.79712ZM321.102 7.89783C320.769 7.89783 320.467 7.83611 320.197 7.71268C319.928 7.58696 319.714 7.40524 319.556 7.16752C319.401 6.92979 319.323 6.63836 319.323 6.2932C319.323 5.99605 319.38 5.75147 319.494 5.55946C319.609 5.36746 319.763 5.21545 319.957 5.10345C320.152 4.99145 320.369 4.90687 320.609 4.84973C320.849 4.79258 321.093 4.74915 321.342 4.71944C321.658 4.68286 321.914 4.65315 322.111 4.63029C322.307 4.60515 322.45 4.56515 322.539 4.51029C322.628 4.45543 322.673 4.36628 322.673 4.24285V4.21885C322.673 3.91941 322.588 3.6874 322.419 3.52283C322.252 3.35825 322.003 3.27596 321.672 3.27596C321.326 3.27596 321.054 3.35253 320.856 3.50568C320.659 3.65654 320.523 3.82455 320.448 4.0097L319.484 3.79026C319.598 3.47025 319.765 3.21196 319.985 3.01538C320.206 2.81652 320.461 2.67251 320.749 2.58337C321.037 2.49194 321.34 2.44622 321.658 2.44622C321.868 2.44622 322.091 2.47136 322.327 2.52165C322.564 2.56965 322.786 2.6588 322.992 2.78909C323.2 2.91938 323.37 3.10567 323.503 3.34796C323.635 3.58797 323.701 3.89998 323.701 4.28399V7.78125H322.7V7.06123H322.659C322.593 7.1938 322.493 7.32409 322.361 7.4521C322.228 7.5801 322.058 7.68639 321.85 7.77096C321.642 7.85554 321.393 7.89783 321.102 7.89783ZM321.325 7.07494C321.609 7.07494 321.851 7.01894 322.052 6.90694C322.256 6.79493 322.41 6.64864 322.515 6.46806C322.623 6.2852 322.676 6.08977 322.676 5.88176V5.20288C322.64 5.23945 322.569 5.27374 322.464 5.30574C322.361 5.33546 322.243 5.36174 322.111 5.3846C321.978 5.40517 321.849 5.4246 321.723 5.44289C321.597 5.45889 321.492 5.4726 321.408 5.48403C321.209 5.50918 321.027 5.55146 320.862 5.61089C320.7 5.67032 320.57 5.75604 320.472 5.86804C320.376 5.97776 320.328 6.12405 320.328 6.30692C320.328 6.56064 320.421 6.75265 320.609 6.88294C320.796 7.01094 321.035 7.07494 321.325 7.07494ZM326.285 4.65429V7.78125H325.26V2.51479H326.244V3.37196H326.309C326.43 3.0931 326.62 2.86909 326.878 2.69994C327.139 2.53079 327.467 2.44622 327.862 2.44622C328.221 2.44622 328.536 2.52165 328.805 2.67251C329.075 2.82109 329.284 3.04281 329.433 3.33768C329.581 3.63254 329.656 3.99713 329.656 4.43143V7.78125H328.63V4.55486C328.63 4.17313 328.531 3.87484 328.332 3.65997C328.133 3.44282 327.86 3.33425 327.513 3.33425C327.275 3.33425 327.063 3.38568 326.878 3.48854C326.695 3.5914 326.55 3.74226 326.443 3.94113C326.338 4.1377 326.285 4.37543 326.285 4.65429ZM332.166 5.99491L332.16 4.74344H332.338L334.436 2.51479H335.664L333.271 5.05202H333.109L332.166 5.99491ZM331.224 7.78125V0.759308H332.249V7.78125H331.224ZM334.549 7.78125L332.664 5.27831L333.37 4.56172L335.808 7.78125H334.549ZM338.125 6.82122L338.073 7.19495C338.039 7.46924 337.981 7.75496 337.899 8.05212C337.819 8.35155 337.735 8.62928 337.648 8.88529C337.564 9.14129 337.494 9.34473 337.439 9.49559H336.712C336.742 9.35387 336.783 9.16187 336.836 8.91957C336.888 8.67956 336.94 8.41098 336.99 8.11383C337.04 7.81668 337.078 7.51381 337.103 7.20523L337.137 6.82122H338.125ZM342.483 0.759308H343.769L346.005 6.21777H346.087L348.322 0.759308H349.608V7.78125H348.6V2.69994H348.535L346.464 7.77096H345.627L343.556 2.69651H343.491V7.78125H342.483V0.759308ZM353.529 7.88754C353.01 7.88754 352.563 7.77668 352.188 7.55496C351.816 7.33095 351.528 7.01665 351.324 6.61207C351.123 6.2052 351.023 5.72861 351.023 5.18231C351.023 4.64286 351.123 4.16742 351.324 3.75598C351.528 3.34453 351.811 3.02338 352.175 2.79252C352.54 2.56165 352.968 2.44622 353.457 2.44622C353.754 2.44622 354.042 2.49536 354.321 2.59365C354.6 2.69194 354.85 2.84623 355.072 3.05653C355.294 3.26682 355.468 3.53997 355.596 3.87598C355.724 4.20971 355.788 4.61543 355.788 5.09316V5.4566H351.602V4.68858H354.784C354.784 4.41886 354.729 4.17999 354.619 3.97198C354.51 3.76169 354.355 3.59597 354.156 3.47482C353.96 3.35368 353.729 3.2931 353.464 3.2931C353.176 3.2931 352.924 3.36396 352.71 3.50568C352.497 3.64512 352.332 3.82798 352.216 4.05427C352.101 4.27828 352.044 4.52172 352.044 4.78458V5.3846C352.044 5.73661 352.106 6.03605 352.229 6.28292C352.355 6.52978 352.53 6.71836 352.754 6.84865C352.978 6.97665 353.24 7.04065 353.539 7.04065C353.734 7.04065 353.911 7.01323 354.071 6.95837C354.231 6.90122 354.369 6.81665 354.486 6.70464C354.602 6.59264 354.691 6.45435 354.753 6.28977L355.723 6.46464C355.646 6.75036 355.506 7.00065 355.305 7.21552C355.106 7.4281 354.856 7.59382 354.554 7.71268C354.255 7.82925 353.913 7.88754 353.529 7.88754ZM357.119 7.78125V2.51479H358.103V3.37196H358.168C358.278 3.08167 358.457 2.85538 358.707 2.69309C358.956 2.52851 359.254 2.44622 359.601 2.44622C359.953 2.44622 360.248 2.52851 360.486 2.69309C360.726 2.85766 360.903 3.08395 361.017 3.37196H361.072C361.198 3.09081 361.398 2.8668 361.672 2.69994C361.947 2.53079 362.273 2.44622 362.653 2.44622C363.131 2.44622 363.52 2.59594 363.822 2.89538C364.126 3.19482 364.278 3.64626 364.278 4.24971V7.78125H363.253V4.34571C363.253 3.98913 363.156 3.73083 362.962 3.57083C362.767 3.41082 362.535 3.33082 362.265 3.33082C361.932 3.33082 361.672 3.43368 361.487 3.6394C361.302 3.84284 361.209 4.10456 361.209 4.42457V7.78125H360.188V4.28056C360.188 3.99484 360.099 3.76512 359.92 3.5914C359.742 3.41768 359.51 3.33082 359.224 3.33082C359.03 3.33082 358.851 3.38225 358.686 3.48511C358.524 3.58569 358.392 3.72626 358.292 3.90684C358.193 4.08742 358.144 4.29657 358.144 4.53429V7.78125H357.119ZM365.928 7.78125V0.759308H366.953V3.36854H367.014C367.074 3.25882 367.16 3.13196 367.272 2.98795C367.384 2.84395 367.539 2.71823 367.738 2.6108C367.937 2.50108 368.2 2.44622 368.527 2.44622C368.952 2.44622 369.331 2.55365 369.665 2.76852C369.999 2.98338 370.26 3.2931 370.45 3.69769C370.642 4.10227 370.738 4.58915 370.738 5.15831C370.738 5.72747 370.643 6.21548 370.453 6.62236C370.264 7.02694 370.003 7.33895 369.672 7.55839C369.34 7.77554 368.962 7.88411 368.537 7.88411C368.217 7.88411 367.955 7.83039 367.752 7.72296C367.55 7.61553 367.393 7.48981 367.278 7.34581C367.164 7.2018 367.076 7.0738 367.014 6.96179H366.929V7.78125H365.928ZM366.932 5.14802C366.932 5.51832 366.986 5.8429 367.093 6.12177C367.201 6.40063 367.356 6.61893 367.56 6.77665C367.763 6.93208 368.012 7.0098 368.307 7.0098C368.613 7.0098 368.869 6.92865 369.075 6.76636C369.281 6.60178 369.436 6.37892 369.541 6.09777C369.649 5.81661 369.703 5.50003 369.703 5.14802C369.703 4.80058 369.65 4.48857 369.545 4.21199C369.442 3.93541 369.287 3.71712 369.079 3.55711C368.873 3.39711 368.616 3.31711 368.307 3.31711C368.01 3.31711 367.758 3.39368 367.553 3.54683C367.349 3.69997 367.195 3.9137 367.09 4.18799C366.985 4.46229 366.932 4.7823 366.932 5.14802ZM374.352 7.88754C373.833 7.88754 373.386 7.77668 373.011 7.55496C372.639 7.33095 372.351 7.01665 372.147 6.61207C371.946 6.2052 371.846 5.72861 371.846 5.18231C371.846 4.64286 371.946 4.16742 372.147 3.75598C372.351 3.34453 372.634 3.02338 372.998 2.79252C373.363 2.56165 373.791 2.44622 374.28 2.44622C374.577 2.44622 374.865 2.49536 375.144 2.59365C375.423 2.69194 375.673 2.84623 375.895 3.05653C376.117 3.26682 376.292 3.53997 376.42 3.87598C376.548 4.20971 376.612 4.61543 376.612 5.09316V5.4566H372.425V4.68858H375.607C375.607 4.41886 375.552 4.17999 375.442 3.97198C375.333 3.76169 375.178 3.59597 374.98 3.47482C374.783 3.35368 374.552 3.2931 374.287 3.2931C373.999 3.2931 373.747 3.36396 373.533 3.50568C373.32 3.64512 373.155 3.82798 373.039 4.05427C372.925 4.27828 372.867 4.52172 372.867 4.78458V5.3846C372.867 5.73661 372.929 6.03605 373.053 6.28292C373.178 6.52978 373.353 6.71836 373.577 6.84865C373.801 6.97665 374.063 7.04065 374.362 7.04065C374.557 7.04065 374.734 7.01323 374.894 6.95837C375.054 6.90122 375.192 6.81665 375.309 6.70464C375.425 6.59264 375.514 6.45435 375.576 6.28977L376.546 6.46464C376.469 6.75036 376.329 7.00065 376.128 7.21552C375.929 7.4281 375.679 7.59382 375.377 7.71268C375.078 7.82925 374.736 7.88754 374.352 7.88754ZM377.942 7.78125V2.51479H378.933V3.35139H378.988C379.084 3.06795 379.253 2.84509 379.495 2.6828C379.74 2.51822 380.017 2.43593 380.325 2.43593C380.389 2.43593 380.465 2.43822 380.551 2.44279C380.641 2.44736 380.71 2.45308 380.761 2.45993V3.44054C380.719 3.42911 380.646 3.41654 380.541 3.40282C380.436 3.38682 380.331 3.37882 380.226 3.37882C379.983 3.37882 379.767 3.43025 379.578 3.53311C379.39 3.63369 379.242 3.77426 379.132 3.95484C379.022 4.13313 378.967 4.33657 378.967 4.56515V7.78125H377.942ZM72.6152 19.7812V12.7593H76.9696V13.6713H73.6747V15.8108H76.6576V16.7194H73.6747V19.7812H72.6152ZM80.7388 19.7812H78.4656V12.7593H80.8109C81.4989 12.7593 82.0898 12.8999 82.5835 13.181C83.0772 13.4599 83.4555 13.8611 83.7184 14.3845C83.9835 14.9057 84.1161 15.5308 84.1161 16.26C84.1161 16.9914 83.9824 17.62 83.7149 18.1458C83.4498 18.6715 83.0658 19.0761 82.5629 19.3595C82.06 19.6407 81.452 19.7812 80.7388 19.7812ZM79.5251 18.8555H80.6806C81.2154 18.8555 81.66 18.7549 82.0143 18.5538C82.3686 18.3503 82.6338 18.0566 82.8098 17.6726C82.9858 17.2863 83.0738 16.8154 83.0738 16.26C83.0738 15.7091 82.9858 15.2417 82.8098 14.8577C82.6361 14.4736 82.3766 14.1822 82.0315 13.9833C81.6863 13.7845 81.2577 13.6851 80.7457 13.6851H79.5251V18.8555ZM86.6861 12.7593V19.7812H85.6267V12.7593H86.6861ZM94.2543 15.0428H93.1846C93.1434 14.8142 93.0669 14.6131 92.9549 14.4394C92.8429 14.2656 92.7057 14.1182 92.5434 13.9971C92.3811 13.8759 92.1994 13.7845 91.9983 13.7228C91.7994 13.6611 91.588 13.6302 91.364 13.6302C90.9594 13.6302 90.5971 13.7319 90.2771 13.9353C89.9593 14.1388 89.7079 14.4371 89.5228 14.8302C89.3399 15.2234 89.2485 15.7034 89.2485 16.2703C89.2485 16.8417 89.3399 17.324 89.5228 17.7172C89.7079 18.1103 89.9605 18.4075 90.2805 18.6086C90.6005 18.8098 90.9605 18.9104 91.3605 18.9104C91.5823 18.9104 91.7925 18.8806 91.9914 18.8212C92.1926 18.7595 92.3743 18.6692 92.5366 18.5504C92.6989 18.4315 92.836 18.2863 92.948 18.1149C93.0623 17.9412 93.1412 17.7423 93.1846 17.5183L94.2543 17.5217C94.1972 17.8669 94.0863 18.1846 93.9218 18.4749C93.7595 18.7629 93.5503 19.0121 93.2943 19.2224C93.0406 19.4304 92.7503 19.5915 92.4234 19.7058C92.0966 19.8201 91.74 19.8773 91.3537 19.8773C90.7457 19.8773 90.2039 19.7332 89.7285 19.4452C89.253 19.1549 88.8782 18.7401 88.6039 18.2006C88.3319 17.6612 88.1959 17.0177 88.1959 16.2703C88.1959 15.5205 88.333 14.8771 88.6073 14.3399C88.8816 13.8005 89.2565 13.3868 89.7319 13.0987C90.2074 12.8085 90.7479 12.6633 91.3537 12.6633C91.7263 12.6633 92.0737 12.717 92.396 12.8245C92.7206 12.9296 93.012 13.085 93.2703 13.2908C93.5286 13.4942 93.7423 13.7433 93.9115 14.0382C94.0806 14.3308 94.1949 14.6657 94.2543 15.0428ZM96.9667 18.8212L96.9152 19.1949C96.8809 19.4692 96.8227 19.755 96.7404 20.0521C96.6604 20.3516 96.5769 20.6293 96.4901 20.8853C96.4055 21.1413 96.3358 21.3447 96.2809 21.4956H95.554C95.5838 21.3539 95.6249 21.1619 95.6775 20.9196C95.7301 20.6796 95.7815 20.411 95.8318 20.1138C95.8821 19.8167 95.9198 19.5138 95.9449 19.2052L95.9792 18.8212H96.9667ZM101.243 21.7562V14.5148H102.244V15.3685H102.33C102.389 15.2588 102.475 15.132 102.587 14.988C102.699 14.8439 102.854 14.7182 103.053 14.6108C103.252 14.5011 103.515 14.4462 103.842 14.4462C104.267 14.4462 104.646 14.5537 104.98 14.7685C105.314 14.9834 105.575 15.2931 105.765 15.6977C105.957 16.1023 106.053 16.5891 106.053 17.1583C106.053 17.7275 105.958 18.2155 105.769 18.6224C105.579 19.0269 105.318 19.3389 104.987 19.5584C104.655 19.7755 104.277 19.8841 103.852 19.8841C103.532 19.8841 103.27 19.8304 103.067 19.723C102.866 19.6155 102.708 19.4898 102.594 19.3458C102.479 19.2018 102.391 19.0738 102.33 18.9618H102.268V21.7562H101.243ZM102.247 17.148C102.247 17.5183 102.301 17.8429 102.408 18.1218C102.516 18.4006 102.671 18.6189 102.875 18.7766C103.078 18.9321 103.327 19.0098 103.622 19.0098C103.929 19.0098 104.185 18.9287 104.39 18.7664C104.596 18.6018 104.751 18.3789 104.857 18.0978C104.964 17.8166 105.018 17.5 105.018 17.148C105.018 16.8006 104.965 16.4886 104.86 16.212C104.757 15.9354 104.602 15.7171 104.394 15.5571C104.188 15.3971 103.931 15.3171 103.622 15.3171C103.325 15.3171 103.074 15.3937 102.868 15.5468C102.664 15.7 102.51 15.9137 102.405 16.188C102.3 16.4623 102.247 16.7823 102.247 17.148ZM110.731 17.5972V14.5148H111.76V19.7812H110.752V18.8692H110.697C110.576 19.1504 110.381 19.3847 110.114 19.5721C109.849 19.7572 109.518 19.8498 109.123 19.8498C108.785 19.8498 108.485 19.7755 108.225 19.627C107.966 19.4761 107.763 19.2532 107.614 18.9584C107.468 18.6635 107.395 18.2989 107.395 17.8646V14.5148H108.42V17.7412C108.42 18.1001 108.519 18.3858 108.718 18.5984C108.917 18.8109 109.175 18.9172 109.493 18.9172C109.685 18.9172 109.876 18.8692 110.066 18.7732C110.258 18.6772 110.417 18.5321 110.542 18.3378C110.67 18.1435 110.733 17.8966 110.731 17.5972ZM113.33 19.7812V14.5148H114.321V15.3514H114.376C114.472 15.068 114.641 14.8451 114.883 14.6828C115.128 14.5182 115.405 14.4359 115.713 14.4359C115.777 14.4359 115.853 14.4382 115.939 14.4428C116.029 14.4474 116.098 14.4531 116.149 14.4599V15.4405C116.107 15.4291 116.034 15.4165 115.929 15.4028C115.824 15.3868 115.719 15.3788 115.614 15.3788C115.371 15.3788 115.155 15.4303 114.966 15.5331C114.778 15.6337 114.63 15.7743 114.52 15.9548C114.41 16.1331 114.355 16.3366 114.355 16.5651V19.7812H113.33ZM121.175 15.8005L120.246 15.9651C120.207 15.8463 120.145 15.7331 120.061 15.6257C119.979 15.5183 119.867 15.4303 119.725 15.3617C119.583 15.2931 119.406 15.2588 119.193 15.2588C118.903 15.2588 118.661 15.324 118.467 15.4543C118.272 15.5823 118.175 15.748 118.175 15.9514C118.175 16.1274 118.24 16.2691 118.371 16.3766C118.501 16.484 118.711 16.572 119.001 16.6406L119.838 16.8326C120.323 16.9446 120.684 17.1172 120.921 17.3503C121.159 17.5835 121.278 17.8863 121.278 18.2589C121.278 18.5744 121.187 18.8555 121.004 19.1024C120.823 19.347 120.571 19.539 120.246 19.6784C119.924 19.8178 119.55 19.8875 119.125 19.8875C118.535 19.8875 118.054 19.7618 117.681 19.5104C117.309 19.2567 117.08 18.8966 116.996 18.4303L117.987 18.2795C118.048 18.5378 118.175 18.7332 118.367 18.8658C118.559 18.9961 118.809 19.0612 119.118 19.0612C119.454 19.0612 119.723 18.9915 119.924 18.8521C120.125 18.7104 120.225 18.5378 120.225 18.3343C120.225 18.1698 120.164 18.0315 120.04 17.9195C119.919 17.8075 119.733 17.7229 119.481 17.6658L118.59 17.4703C118.099 17.3583 117.735 17.18 117.5 16.9354C117.267 16.6909 117.15 16.3811 117.15 16.0063C117.15 15.6954 117.237 15.4234 117.411 15.1902C117.584 14.9571 117.824 14.7754 118.131 14.6451C118.437 14.5125 118.788 14.4462 119.183 14.4462C119.752 14.4462 120.2 14.5697 120.527 14.8165C120.854 15.0611 121.07 15.3891 121.175 15.8005ZM125.934 17.5972V14.5148H126.963V19.7812H125.955V18.8692H125.9C125.779 19.1504 125.585 19.3847 125.317 19.5721C125.052 19.7572 124.722 19.8498 124.326 19.8498C123.988 19.8498 123.689 19.7755 123.428 19.627C123.17 19.4761 122.966 19.2532 122.818 18.9584C122.672 18.6635 122.598 18.2989 122.598 17.8646V14.5148H123.624V17.7412C123.624 18.1001 123.723 18.3858 123.922 18.5984C124.121 18.8109 124.379 18.9172 124.697 18.9172C124.889 18.9172 125.08 18.8692 125.269 18.7732C125.461 18.6772 125.62 18.5321 125.746 18.3378C125.874 18.1435 125.937 17.8966 125.934 17.5972ZM130.066 19.8978C129.733 19.8978 129.431 19.8361 129.161 19.7127C128.891 19.587 128.678 19.4052 128.52 19.1675C128.365 18.9298 128.287 18.6384 128.287 18.2932C128.287 17.996 128.344 17.7515 128.458 17.5595C128.573 17.3675 128.727 17.2155 128.921 17.1034C129.115 16.9914 129.333 16.9069 129.573 16.8497C129.813 16.7926 130.057 16.7492 130.306 16.7194C130.622 16.6829 130.878 16.6531 131.074 16.6303C131.271 16.6051 131.414 16.5651 131.503 16.5103C131.592 16.4554 131.637 16.3663 131.637 16.2428V16.2188C131.637 15.9194 131.552 15.6874 131.383 15.5228C131.216 15.3582 130.967 15.276 130.635 15.276C130.29 15.276 130.018 15.3525 129.819 15.5057C129.623 15.6565 129.487 15.8246 129.411 16.0097L128.448 15.7903C128.562 15.4703 128.729 15.212 128.949 15.0154C129.17 14.8165 129.425 14.6725 129.713 14.5834C130.001 14.4919 130.304 14.4462 130.622 14.4462C130.832 14.4462 131.055 14.4714 131.29 14.5217C131.528 14.5697 131.75 14.6588 131.955 14.7891C132.163 14.9194 132.334 15.1057 132.466 15.348C132.599 15.588 132.665 15.9 132.665 16.284V19.7812H131.664V19.0612H131.623C131.557 19.1938 131.457 19.3241 131.325 19.4521C131.192 19.5801 131.022 19.6864 130.814 19.771C130.606 19.8555 130.357 19.8978 130.066 19.8978ZM130.289 19.0749C130.573 19.0749 130.815 19.0189 131.016 18.9069C131.219 18.7949 131.374 18.6486 131.479 18.4681C131.586 18.2852 131.64 18.0898 131.64 17.8818V17.2029C131.603 17.2395 131.533 17.2737 131.427 17.3057C131.325 17.3355 131.207 17.3617 131.074 17.3846C130.942 17.4052 130.813 17.4246 130.687 17.4429C130.561 17.4589 130.456 17.4726 130.371 17.484C130.173 17.5092 129.991 17.5515 129.826 17.6109C129.664 17.6703 129.534 17.756 129.435 17.868C129.339 17.9778 129.291 18.1241 129.291 18.3069C129.291 18.5606 129.385 18.7526 129.573 18.8829C129.76 19.0109 129.999 19.0749 130.289 19.0749ZM135.249 16.6543V19.7812H134.224V14.5148H135.208V15.372H135.273C135.394 15.0931 135.584 14.8691 135.842 14.6999C136.103 14.5308 136.431 14.4462 136.826 14.4462C137.185 14.4462 137.499 14.5217 137.769 14.6725C138.039 14.8211 138.248 15.0428 138.396 15.3377C138.545 15.6325 138.619 15.9971 138.619 16.4314V19.7812H137.594V16.5549C137.594 16.1731 137.495 15.8748 137.296 15.66C137.097 15.4428 136.824 15.3342 136.476 15.3342C136.239 15.3342 136.027 15.3857 135.842 15.4885C135.659 15.5914 135.514 15.7423 135.407 15.9411C135.302 16.1377 135.249 16.3754 135.249 16.6543ZM142.646 14.5148V15.3377H139.769V14.5148H142.646ZM140.541 13.253H141.566V18.2349C141.566 18.4338 141.595 18.5835 141.655 18.6841C141.714 18.7824 141.791 18.8498 141.885 18.8864C141.981 18.9207 142.085 18.9378 142.197 18.9378C142.279 18.9378 142.351 18.9321 142.413 18.9207C142.474 18.9092 142.522 18.9001 142.557 18.8932L142.742 19.7401C142.682 19.763 142.598 19.7858 142.488 19.8087C142.378 19.8338 142.241 19.8475 142.077 19.8498C141.807 19.8544 141.555 19.8064 141.322 19.7058C141.089 19.6052 140.901 19.4498 140.757 19.2395C140.613 19.0292 140.541 18.7652 140.541 18.4475V13.253ZM149.18 14.5148V15.3377H146.303V14.5148H149.18ZM147.074 13.253H148.1V18.2349C148.1 18.4338 148.129 18.5835 148.189 18.6841C148.248 18.7824 148.325 18.8498 148.418 18.8864C148.514 18.9207 148.618 18.9378 148.73 18.9378C148.813 18.9378 148.885 18.9321 148.946 18.9207C149.008 18.9092 149.056 18.9001 149.09 18.8932L149.276 19.7401C149.216 19.763 149.132 19.7858 149.022 19.8087C148.912 19.8338 148.775 19.8475 148.61 19.8498C148.341 19.8544 148.089 19.8064 147.856 19.7058C147.623 19.6052 147.434 19.4498 147.29 19.2395C147.146 19.0292 147.074 18.7652 147.074 18.4475V13.253ZM152.668 19.8875C152.175 19.8875 151.744 19.7744 151.376 19.5481C151.008 19.3218 150.722 19.0052 150.519 18.5984C150.315 18.1915 150.214 17.716 150.214 17.172C150.214 16.6257 150.315 16.148 150.519 15.7388C150.722 15.3297 151.008 15.012 151.376 14.7857C151.744 14.5594 152.175 14.4462 152.668 14.4462C153.162 14.4462 153.593 14.5594 153.961 14.7857C154.329 15.012 154.615 15.3297 154.818 15.7388C155.022 16.148 155.123 16.6257 155.123 17.172C155.123 17.716 155.022 18.1915 154.818 18.5984C154.615 19.0052 154.329 19.3218 153.961 19.5481C153.593 19.7744 153.162 19.8875 152.668 19.8875ZM152.672 19.0269C152.992 19.0269 153.257 18.9424 153.467 18.7732C153.678 18.6041 153.833 18.3789 153.934 18.0978C154.037 17.8166 154.088 17.5069 154.088 17.1686C154.088 16.8326 154.037 16.524 153.934 16.2428C153.833 15.9594 153.678 15.732 153.467 15.5605C153.257 15.3891 152.992 15.3034 152.672 15.3034C152.35 15.3034 152.082 15.3891 151.87 15.5605C151.659 15.732 151.503 15.9594 151.4 16.2428C151.299 16.524 151.249 16.8326 151.249 17.1686C151.249 17.5069 151.299 17.8166 151.4 18.0978C151.503 18.3789 151.659 18.6041 151.87 18.7732C152.082 18.9424 152.35 19.0269 152.672 19.0269ZM160.234 12.7593V19.7812H159.209V12.7593H160.234ZM161.807 19.7812V14.5148H162.832V19.7812H161.807ZM162.324 13.7022C162.146 13.7022 161.993 13.6428 161.865 13.5239C161.739 13.4028 161.676 13.2588 161.676 13.0919C161.676 12.9227 161.739 12.7787 161.865 12.6599C161.993 12.5387 162.146 12.4782 162.324 12.4782C162.503 12.4782 162.655 12.5387 162.78 12.6599C162.908 12.7787 162.972 12.9227 162.972 13.0919C162.972 13.2588 162.908 13.4028 162.78 13.5239C162.655 13.6428 162.503 13.7022 162.324 13.7022ZM166.622 19.8875C166.113 19.8875 165.674 19.7721 165.306 19.5412C164.94 19.3081 164.659 18.9869 164.462 18.5778C164.266 18.1686 164.168 17.7 164.168 17.172C164.168 16.6371 164.268 16.1651 164.469 15.756C164.67 15.3445 164.954 15.0234 165.32 14.7925C165.685 14.5617 166.116 14.4462 166.612 14.4462C167.012 14.4462 167.369 14.5205 167.682 14.6691C167.995 14.8154 168.248 15.0211 168.44 15.2862C168.634 15.5514 168.749 15.8611 168.786 16.2154H167.788C167.733 15.9686 167.608 15.756 167.411 15.5777C167.217 15.3994 166.956 15.3102 166.629 15.3102C166.344 15.3102 166.093 15.3857 165.878 15.5365C165.666 15.6851 165.5 15.8977 165.381 16.1743C165.262 16.4486 165.203 16.7732 165.203 17.148C165.203 17.532 165.261 17.8635 165.378 18.1423C165.494 18.4212 165.659 18.6372 165.872 18.7904C166.086 18.9435 166.339 19.0201 166.629 19.0201C166.824 19.0201 167 18.9847 167.157 18.9138C167.317 18.8406 167.451 18.7366 167.559 18.6018C167.668 18.4669 167.745 18.3046 167.788 18.1149H168.786C168.749 18.4555 168.639 18.7595 168.453 19.0269C168.268 19.2944 168.02 19.5047 167.709 19.6578C167.401 19.811 167.038 19.8875 166.622 19.8875ZM172.345 19.8875C171.826 19.8875 171.379 19.7767 171.005 19.555C170.632 19.3309 170.344 19.0167 170.141 18.6121C169.939 18.2052 169.839 17.7286 169.839 17.1823C169.839 16.6429 169.939 16.1674 170.141 15.756C170.344 15.3445 170.627 15.0234 170.991 14.7925C171.357 14.5617 171.784 14.4462 172.273 14.4462C172.57 14.4462 172.858 14.4954 173.137 14.5937C173.416 14.6919 173.666 14.8462 173.888 15.0565C174.11 15.2668 174.285 15.54 174.413 15.876C174.541 16.2097 174.605 16.6154 174.605 17.0932V17.4566H170.418V16.6886H173.6C173.6 16.4189 173.545 16.18 173.436 15.972C173.326 15.7617 173.171 15.596 172.973 15.4748C172.776 15.3537 172.545 15.2931 172.28 15.2931C171.992 15.2931 171.741 15.364 171.526 15.5057C171.313 15.6451 171.149 15.828 171.032 16.0543C170.918 16.2783 170.861 16.5217 170.861 16.7846V17.3846C170.861 17.7366 170.922 18.0361 171.046 18.2829C171.171 18.5298 171.346 18.7184 171.57 18.8486C171.794 18.9767 172.056 19.0407 172.355 19.0407C172.55 19.0407 172.727 19.0132 172.887 18.9584C173.047 18.9012 173.185 18.8166 173.302 18.7046C173.418 18.5926 173.508 18.4543 173.569 18.2898L174.54 18.4646C174.462 18.7504 174.322 19.0007 174.121 19.2155C173.922 19.4281 173.672 19.5938 173.37 19.7127C173.071 19.8293 172.729 19.8875 172.345 19.8875ZM176.96 16.6543V19.7812H175.935V14.5148H176.919V15.372H176.984C177.106 15.0931 177.295 14.8691 177.554 14.6999C177.814 14.5308 178.142 14.4462 178.538 14.4462C178.896 14.4462 179.211 14.5217 179.481 14.6725C179.75 14.8211 179.959 15.0428 180.108 15.3377C180.257 15.6325 180.331 15.9971 180.331 16.4314V19.7812H179.306V16.5549C179.306 16.1731 179.206 15.8748 179.007 15.66C178.808 15.4428 178.535 15.3342 178.188 15.3342C177.95 15.3342 177.739 15.3857 177.554 15.4885C177.371 15.5914 177.226 15.7423 177.118 15.9411C177.013 16.1377 176.96 16.3754 176.96 16.6543ZM185.845 15.8005L184.916 15.9651C184.877 15.8463 184.815 15.7331 184.731 15.6257C184.649 15.5183 184.537 15.4303 184.395 15.3617C184.253 15.2931 184.076 15.2588 183.863 15.2588C183.573 15.2588 183.331 15.324 183.137 15.4543C182.942 15.5823 182.845 15.748 182.845 15.9514C182.845 16.1274 182.91 16.2691 183.041 16.3766C183.171 16.484 183.381 16.572 183.671 16.6406L184.508 16.8326C184.993 16.9446 185.354 17.1172 185.592 17.3503C185.829 17.5835 185.948 17.8863 185.948 18.2589C185.948 18.5744 185.857 18.8555 185.674 19.1024C185.493 19.347 185.241 19.539 184.916 19.6784C184.594 19.8178 184.22 19.8875 183.795 19.8875C183.205 19.8875 182.724 19.7618 182.351 19.5104C181.979 19.2567 181.75 18.8966 181.666 18.4303L182.657 18.2795C182.718 18.5378 182.845 18.7332 183.037 18.8658C183.229 18.9961 183.479 19.0612 183.788 19.0612C184.124 19.0612 184.393 18.9915 184.594 18.8521C184.795 18.7104 184.895 18.5378 184.895 18.3343C184.895 18.1698 184.834 18.0315 184.71 17.9195C184.589 17.8075 184.403 17.7229 184.151 17.6658L183.26 17.4703C182.769 17.3583 182.405 17.18 182.17 16.9354C181.937 16.6909 181.82 16.3811 181.82 16.0063C181.82 15.6954 181.907 15.4234 182.081 15.1902C182.254 14.9571 182.494 14.7754 182.801 14.6451C183.107 14.5125 183.458 14.4462 183.853 14.4462C184.422 14.4462 184.87 14.5697 185.197 14.8165C185.524 15.0611 185.74 15.3891 185.845 15.8005ZM189.538 19.8875C189.019 19.8875 188.572 19.7767 188.198 19.555C187.825 19.3309 187.537 19.0167 187.334 18.6121C187.132 18.2052 187.032 17.7286 187.032 17.1823C187.032 16.6429 187.132 16.1674 187.334 15.756C187.537 15.3445 187.82 15.0234 188.184 14.7925C188.55 14.5617 188.977 14.4462 189.466 14.4462C189.763 14.4462 190.051 14.4954 190.33 14.5937C190.609 14.6919 190.859 14.8462 191.081 15.0565C191.303 15.2668 191.478 15.54 191.606 15.876C191.734 16.2097 191.798 16.6154 191.798 17.0932V17.4566H187.611V16.6886H190.793C190.793 16.4189 190.738 16.18 190.628 15.972C190.519 15.7617 190.364 15.596 190.166 15.4748C189.969 15.3537 189.738 15.2931 189.473 15.2931C189.185 15.2931 188.934 15.364 188.719 15.5057C188.506 15.6451 188.342 15.828 188.225 16.0543C188.111 16.2783 188.054 16.5217 188.054 16.7846V17.3846C188.054 17.7366 188.115 18.0361 188.239 18.2829C188.364 18.5298 188.539 18.7184 188.763 18.8486C188.987 18.9767 189.249 19.0407 189.548 19.0407C189.743 19.0407 189.92 19.0132 190.08 18.9584C190.24 18.9012 190.378 18.8166 190.495 18.7046C190.611 18.5926 190.701 18.4543 190.762 18.2898L191.733 18.4646C191.655 18.7504 191.515 19.0007 191.314 19.2155C191.115 19.4281 190.865 19.5938 190.563 19.7127C190.264 19.8293 189.922 19.8875 189.538 19.8875ZM195.959 19.7812V12.7593H196.984V15.3685H197.046C197.105 15.2588 197.191 15.132 197.303 14.988C197.415 14.8439 197.57 14.7182 197.769 14.6108C197.968 14.5011 198.231 14.4462 198.558 14.4462C198.983 14.4462 199.362 14.5537 199.696 14.7685C200.03 14.9834 200.292 15.2931 200.481 15.6977C200.673 16.1023 200.769 16.5891 200.769 17.1583C200.769 17.7275 200.674 18.2155 200.485 18.6224C200.295 19.0269 200.034 19.3389 199.703 19.5584C199.372 19.7755 198.993 19.8841 198.568 19.8841C198.248 19.8841 197.986 19.8304 197.783 19.723C197.582 19.6155 197.424 19.4898 197.31 19.3458C197.195 19.2018 197.107 19.0738 197.046 18.9618H196.96V19.7812H195.959ZM196.963 17.148C196.963 17.5183 197.017 17.8429 197.125 18.1218C197.232 18.4006 197.387 18.6189 197.591 18.7766C197.794 18.9321 198.044 19.0098 198.338 19.0098C198.645 19.0098 198.901 18.9287 199.106 18.7664C199.312 18.6018 199.468 18.3789 199.573 18.0978C199.68 17.8166 199.734 17.5 199.734 17.148C199.734 16.8006 199.681 16.4886 199.576 16.212C199.473 15.9354 199.318 15.7171 199.11 15.5571C198.904 15.3971 198.647 15.3171 198.338 15.3171C198.041 15.3171 197.79 15.3937 197.584 15.5468C197.381 15.7 197.226 15.9137 197.121 16.188C197.016 16.4623 196.963 16.7823 196.963 17.148ZM202.582 21.7562C202.429 21.7562 202.29 21.7436 202.164 21.7185C202.038 21.6956 201.945 21.6705 201.883 21.643L202.13 20.803C202.317 20.8533 202.484 20.875 202.63 20.8681C202.777 20.8613 202.906 20.8064 203.018 20.7036C203.132 20.6007 203.233 20.4327 203.32 20.1995L203.446 19.8498L201.52 14.5148H202.617L203.951 18.6018H204.005L205.339 14.5148H206.44L204.269 20.4841C204.169 20.7584 204.041 20.9904 203.885 21.1802C203.73 21.3722 203.545 21.5162 203.33 21.6122C203.115 21.7082 202.866 21.7562 202.582 21.7562ZM210.427 12.7593H211.713L213.948 18.2178H214.03L216.266 12.7593H217.552V19.7812H216.544V14.6999H216.479L214.408 19.771H213.571L211.5 14.6965H211.435V19.7812H210.427V12.7593ZM220.735 19.8978C220.402 19.8978 220.1 19.8361 219.83 19.7127C219.561 19.587 219.347 19.4052 219.189 19.1675C219.034 18.9298 218.956 18.6384 218.956 18.2932C218.956 17.996 219.013 17.7515 219.127 17.5595C219.242 17.3675 219.396 17.2155 219.59 17.1034C219.785 16.9914 220.002 16.9069 220.242 16.8497C220.482 16.7926 220.726 16.7492 220.975 16.7194C221.291 16.6829 221.547 16.6531 221.744 16.6303C221.94 16.6051 222.083 16.5651 222.172 16.5103C222.261 16.4554 222.306 16.3663 222.306 16.2428V16.2188C222.306 15.9194 222.221 15.6874 222.052 15.5228C221.885 15.3582 221.636 15.276 221.305 15.276C220.959 15.276 220.687 15.3525 220.489 15.5057C220.292 15.6565 220.156 15.8246 220.081 16.0097L219.117 15.7903C219.231 15.4703 219.398 15.212 219.618 15.0154C219.839 14.8165 220.094 14.6725 220.382 14.5834C220.67 14.4919 220.973 14.4462 221.291 14.4462C221.501 14.4462 221.724 14.4714 221.96 14.5217C222.197 14.5697 222.419 14.6588 222.625 14.7891C222.833 14.9194 223.003 15.1057 223.136 15.348C223.268 15.588 223.334 15.9 223.334 16.284V19.7812H222.333V19.0612H222.292C222.226 19.1938 222.126 19.3241 221.994 19.4521C221.861 19.5801 221.691 19.6864 221.483 19.771C221.275 19.8555 221.026 19.8978 220.735 19.8978ZM220.958 19.0749C221.242 19.0749 221.484 19.0189 221.685 18.9069C221.889 18.7949 222.043 18.6486 222.148 18.4681C222.256 18.2852 222.309 18.0898 222.309 17.8818V17.2029C222.273 17.2395 222.202 17.2737 222.097 17.3057C221.994 17.3355 221.876 17.3617 221.744 17.3846C221.611 17.4052 221.482 17.4246 221.356 17.4429C221.23 17.4589 221.125 17.4726 221.041 17.484C220.842 17.5092 220.66 17.5515 220.495 17.6109C220.333 17.6703 220.203 17.756 220.105 17.868C220.009 17.9778 219.961 18.1241 219.961 18.3069C219.961 18.5606 220.054 18.7526 220.242 18.8829C220.429 19.0109 220.668 19.0749 220.958 19.0749ZM228.839 15.8005L227.91 15.9651C227.871 15.8463 227.81 15.7331 227.725 15.6257C227.643 15.5183 227.531 15.4303 227.389 15.3617C227.247 15.2931 227.07 15.2588 226.858 15.2588C226.567 15.2588 226.325 15.324 226.131 15.4543C225.936 15.5823 225.839 15.748 225.839 15.9514C225.839 16.1274 225.904 16.2691 226.035 16.3766C226.165 16.484 226.375 16.572 226.666 16.6406L227.502 16.8326C227.987 16.9446 228.348 17.1172 228.586 17.3503C228.823 17.5835 228.942 17.8863 228.942 18.2589C228.942 18.5744 228.851 18.8555 228.668 19.1024C228.487 19.347 228.235 19.539 227.91 19.6784C227.588 19.8178 227.214 19.8875 226.789 19.8875C226.199 19.8875 225.718 19.7618 225.346 19.5104C224.973 19.2567 224.744 18.8966 224.66 18.4303L225.651 18.2795C225.712 18.5378 225.839 18.7332 226.031 18.8658C226.223 18.9961 226.474 19.0612 226.782 19.0612C227.118 19.0612 227.387 18.9915 227.588 18.8521C227.789 18.7104 227.89 18.5378 227.89 18.3343C227.89 18.1698 227.828 18.0315 227.705 17.9195C227.583 17.8075 227.397 17.7229 227.146 17.6658L226.254 17.4703C225.763 17.3583 225.399 17.18 225.164 16.9354C224.931 16.6909 224.814 16.3811 224.814 16.0063C224.814 15.6954 224.901 15.4234 225.075 15.1902C225.248 14.9571 225.488 14.7754 225.795 14.6451C226.101 14.5125 226.452 14.4462 226.847 14.4462C227.417 14.4462 227.865 14.5697 228.191 14.8165C228.518 15.0611 228.734 15.3891 228.839 15.8005ZM232.721 14.5148V15.3377H229.844V14.5148H232.721ZM230.616 13.253H231.641V18.2349C231.641 18.4338 231.671 18.5835 231.73 18.6841C231.789 18.7824 231.866 18.8498 231.96 18.8864C232.056 18.9207 232.16 18.9378 232.272 18.9378C232.354 18.9378 232.426 18.9321 232.488 18.9207C232.549 18.9092 232.597 18.9001 232.632 18.8932L232.817 19.7401C232.757 19.763 232.673 19.7858 232.563 19.8087C232.453 19.8338 232.316 19.8475 232.152 19.8498C231.882 19.8544 231.631 19.8064 231.397 19.7058C231.164 19.6052 230.976 19.4498 230.832 19.2395C230.688 19.0292 230.616 18.7652 230.616 18.4475V13.253ZM236.261 19.8875C235.742 19.8875 235.296 19.7767 234.921 19.555C234.548 19.3309 234.26 19.0167 234.057 18.6121C233.855 18.2052 233.755 17.7286 233.755 17.1823C233.755 16.6429 233.855 16.1674 234.057 15.756C234.26 15.3445 234.544 15.0234 234.907 14.7925C235.273 14.5617 235.7 14.4462 236.189 14.4462C236.486 14.4462 236.774 14.4954 237.053 14.5937C237.332 14.6919 237.582 14.8462 237.804 15.0565C238.026 15.2668 238.201 15.54 238.329 15.876C238.457 16.2097 238.521 16.6154 238.521 17.0932V17.4566H234.334V16.6886H237.516C237.516 16.4189 237.461 16.18 237.352 15.972C237.242 15.7617 237.088 15.596 236.889 15.4748C236.692 15.3537 236.461 15.2931 236.196 15.2931C235.908 15.2931 235.657 15.364 235.442 15.5057C235.229 15.6451 235.065 15.828 234.948 16.0543C234.834 16.2783 234.777 16.5217 234.777 16.7846V17.3846C234.777 17.7366 234.838 18.0361 234.962 18.2829C235.088 18.5298 235.262 18.7184 235.486 18.8486C235.71 18.9767 235.972 19.0407 236.272 19.0407C236.466 19.0407 236.643 19.0132 236.803 18.9584C236.963 18.9012 237.101 18.8166 237.218 18.7046C237.334 18.5926 237.424 18.4543 237.485 18.2898L238.456 18.4646C238.378 18.7504 238.238 19.0007 238.037 19.2155C237.838 19.4281 237.588 19.5938 237.286 19.7127C236.987 19.8293 236.645 19.8875 236.261 19.8875ZM239.851 19.7812V14.5148H240.842V15.3514H240.897C240.993 15.068 241.162 14.8451 241.405 14.6828C241.649 14.5182 241.926 14.4359 242.234 14.4359C242.298 14.4359 242.374 14.4382 242.461 14.4428C242.55 14.4474 242.619 14.4531 242.67 14.4599V15.4405C242.629 15.4291 242.555 15.4165 242.45 15.4028C242.345 15.3868 242.24 15.3788 242.135 15.3788C241.893 15.3788 241.677 15.4303 241.487 15.5331C241.299 15.6337 241.151 15.7743 241.041 15.9548C240.931 16.1331 240.877 16.3366 240.877 16.5651V19.7812H239.851ZM245.78 19.8875C245.27 19.8875 244.831 19.7721 244.463 19.5412C244.097 19.3081 243.816 18.9869 243.62 18.5778C243.423 18.1686 243.325 17.7 243.325 17.172C243.325 16.6371 243.425 16.1651 243.627 15.756C243.828 15.3445 244.111 15.0234 244.477 14.7925C244.843 14.5617 245.273 14.4462 245.769 14.4462C246.17 14.4462 246.526 14.5205 246.839 14.6691C247.152 14.8154 247.405 15.0211 247.597 15.2862C247.791 15.5514 247.907 15.8611 247.943 16.2154H246.946C246.891 15.9686 246.765 15.756 246.568 15.5777C246.374 15.3994 246.114 15.3102 245.787 15.3102C245.501 15.3102 245.251 15.3857 245.036 15.5365C244.823 15.6851 244.657 15.8977 244.539 16.1743C244.42 16.4486 244.36 16.7732 244.36 17.148C244.36 17.532 244.419 17.8635 244.535 18.1423C244.652 18.4212 244.816 18.6372 245.029 18.7904C245.244 18.9435 245.496 19.0201 245.787 19.0201C245.981 19.0201 246.157 18.9847 246.315 18.9138C246.475 18.8406 246.608 18.7366 246.716 18.6018C246.826 18.4669 246.902 18.3046 246.946 18.1149H247.943C247.907 18.4555 247.796 18.7595 247.611 19.0269C247.426 19.2944 247.178 19.5047 246.867 19.6578C246.558 19.811 246.196 19.8875 245.78 19.8875ZM250.765 19.8978C250.432 19.8978 250.13 19.8361 249.86 19.7127C249.59 19.587 249.377 19.4052 249.219 19.1675C249.064 18.9298 248.986 18.6384 248.986 18.2932C248.986 17.996 249.043 17.7515 249.157 17.5595C249.272 17.3675 249.426 17.2155 249.62 17.1034C249.814 16.9914 250.032 16.9069 250.272 16.8497C250.512 16.7926 250.756 16.7492 251.005 16.7194C251.321 16.6829 251.577 16.6531 251.773 16.6303C251.97 16.6051 252.113 16.5651 252.202 16.5103C252.291 16.4554 252.336 16.3663 252.336 16.2428V16.2188C252.336 15.9194 252.251 15.6874 252.082 15.5228C251.915 15.3582 251.666 15.276 251.334 15.276C250.989 15.276 250.717 15.3525 250.518 15.5057C250.322 15.6565 250.186 15.8246 250.11 16.0097L249.147 15.7903C249.261 15.4703 249.428 15.212 249.648 15.0154C249.869 14.8165 250.124 14.6725 250.412 14.5834C250.7 14.4919 251.003 14.4462 251.321 14.4462C251.531 14.4462 251.754 14.4714 251.989 14.5217C252.227 14.5697 252.449 14.6588 252.655 14.7891C252.863 14.9194 253.033 15.1057 253.165 15.348C253.298 15.588 253.364 15.9 253.364 16.284V19.7812H252.363V19.0612H252.322C252.256 19.1938 252.156 19.3241 252.024 19.4521C251.891 19.5801 251.721 19.6864 251.513 19.771C251.305 19.8555 251.056 19.8978 250.765 19.8978ZM250.988 19.0749C251.272 19.0749 251.514 19.0189 251.715 18.9069C251.919 18.7949 252.073 18.6486 252.178 18.4681C252.285 18.2852 252.339 18.0898 252.339 17.8818V17.2029C252.303 17.2395 252.232 17.2737 252.127 17.3057C252.024 17.3355 251.906 17.3617 251.773 17.3846C251.641 17.4052 251.512 17.4246 251.386 17.4429C251.26 17.4589 251.155 17.4726 251.07 17.484C250.872 17.5092 250.69 17.5515 250.525 17.6109C250.363 17.6703 250.233 17.756 250.134 17.868C250.038 17.9778 249.99 18.1241 249.99 18.3069C249.99 18.5606 250.084 18.7526 250.272 18.8829C250.459 19.0109 250.698 19.0749 250.988 19.0749ZM254.923 19.7812V14.5148H255.914V15.3514H255.969C256.065 15.068 256.234 14.8451 256.476 14.6828C256.721 14.5182 256.997 14.4359 257.306 14.4359C257.37 14.4359 257.445 14.4382 257.532 14.4428C257.621 14.4474 257.691 14.4531 257.741 14.4599V15.4405C257.7 15.4291 257.627 15.4165 257.522 15.4028C257.417 15.3868 257.311 15.3788 257.206 15.3788C256.964 15.3788 256.748 15.4303 256.558 15.5331C256.371 15.6337 256.222 15.7743 256.113 15.9548C256.003 16.1331 255.948 16.3366 255.948 16.5651V19.7812H254.923ZM260.604 19.8841C260.179 19.8841 259.8 19.7755 259.466 19.5584C259.135 19.3389 258.874 19.0269 258.684 18.6224C258.497 18.2155 258.403 17.7275 258.403 17.1583C258.403 16.5891 258.498 16.1023 258.688 15.6977C258.88 15.2931 259.143 14.9834 259.476 14.7685C259.81 14.5537 260.188 14.4462 260.611 14.4462C260.938 14.4462 261.201 14.5011 261.4 14.6108C261.601 14.7182 261.756 14.8439 261.866 14.988C261.978 15.132 262.065 15.2588 262.127 15.3685H262.188V12.7593H263.214V19.7812H262.212V18.9618H262.127C262.065 19.0738 261.976 19.2018 261.859 19.3458C261.745 19.4898 261.587 19.6155 261.386 19.723C261.185 19.8304 260.924 19.8841 260.604 19.8841ZM260.831 19.0098C261.126 19.0098 261.375 18.9321 261.578 18.7766C261.784 18.6189 261.939 18.4006 262.044 18.1218C262.152 17.8429 262.206 17.5183 262.206 17.148C262.206 16.7823 262.153 16.4623 262.048 16.188C261.943 15.9137 261.788 15.7 261.585 15.5468C261.382 15.3937 261.13 15.3171 260.831 15.3171C260.522 15.3171 260.265 15.3971 260.059 15.5571C259.854 15.7171 259.698 15.9354 259.593 16.212C259.49 16.4886 259.439 16.8006 259.439 17.148C259.439 17.5 259.491 17.8166 259.596 18.0978C259.702 18.3789 259.857 18.6018 260.063 18.7664C260.271 18.9287 260.527 19.0098 260.831 19.0098ZM268.76 12.7593V19.7812H267.701V12.7593H268.76ZM271.439 16.6543V19.7812H270.414V14.5148H271.398V15.372H271.463C271.584 15.0931 271.774 14.8691 272.032 14.6999C272.293 14.5308 272.621 14.4462 273.016 14.4462C273.375 14.4462 273.689 14.5217 273.959 14.6725C274.229 14.8211 274.438 15.0428 274.586 15.3377C274.735 15.6325 274.809 15.9971 274.809 16.4314V19.7812H273.784V16.5549C273.784 16.1731 273.685 15.8748 273.486 15.66C273.287 15.4428 273.014 15.3342 272.666 15.3342C272.429 15.3342 272.217 15.3857 272.032 15.4885C271.849 15.5914 271.704 15.7423 271.597 15.9411C271.491 16.1377 271.439 16.3754 271.439 16.6543ZM278.836 14.5148V15.3377H275.959V14.5148H278.836ZM276.73 13.253H277.756V18.2349C277.756 18.4338 277.785 18.5835 277.845 18.6841C277.904 18.7824 277.981 18.8498 278.075 18.8864C278.171 18.9207 278.275 18.9378 278.387 18.9378C278.469 18.9378 278.541 18.9321 278.603 18.9207C278.664 18.9092 278.712 18.9001 278.747 18.8932L278.932 19.7401C278.872 19.763 278.788 19.7858 278.678 19.8087C278.568 19.8338 278.431 19.8475 278.267 19.8498C277.997 19.8544 277.745 19.8064 277.512 19.7058C277.279 19.6052 277.09 19.4498 276.946 19.2395C276.802 19.0292 276.73 18.7652 276.73 18.4475V13.253ZM282.376 19.8875C281.857 19.8875 281.41 19.7767 281.035 19.555C280.663 19.3309 280.375 19.0167 280.171 18.6121C279.97 18.2052 279.87 17.7286 279.87 17.1823C279.87 16.6429 279.97 16.1674 280.171 15.756C280.375 15.3445 280.658 15.0234 281.022 14.7925C281.387 14.5617 281.815 14.4462 282.304 14.4462C282.601 14.4462 282.889 14.4954 283.168 14.5937C283.447 14.6919 283.697 14.8462 283.919 15.0565C284.141 15.2668 284.316 15.54 284.444 15.876C284.572 16.2097 284.636 16.6154 284.636 17.0932V17.4566H280.449V16.6886H283.631C283.631 16.4189 283.576 16.18 283.466 15.972C283.357 15.7617 283.202 15.596 283.003 15.4748C282.807 15.3537 282.576 15.2931 282.311 15.2931C282.023 15.2931 281.771 15.364 281.557 15.5057C281.344 15.6451 281.179 15.828 281.063 16.0543C280.949 16.2783 280.891 16.5217 280.891 16.7846V17.3846C280.891 17.7366 280.953 18.0361 281.077 18.2829C281.202 18.5298 281.377 18.7184 281.601 18.8486C281.825 18.9767 282.087 19.0407 282.386 19.0407C282.581 19.0407 282.758 19.0132 282.918 18.9584C283.078 18.9012 283.216 18.8166 283.333 18.7046C283.449 18.5926 283.538 18.4543 283.6 18.2898L284.57 18.4646C284.493 18.7504 284.353 19.0007 284.152 19.2155C283.953 19.4281 283.703 19.5938 283.401 19.7127C283.102 19.8293 282.76 19.8875 282.376 19.8875ZM285.966 19.7812V14.5148H286.957V15.3514H287.012C287.108 15.068 287.277 14.8451 287.519 14.6828C287.764 14.5182 288.04 14.4359 288.349 14.4359C288.413 14.4359 288.488 14.4382 288.575 14.4428C288.664 14.4474 288.734 14.4531 288.784 14.4599V15.4405C288.743 15.4291 288.67 15.4165 288.565 15.4028C288.46 15.3868 288.355 15.3788 288.25 15.3788C288.007 15.3788 287.791 15.4303 287.602 15.5331C287.414 15.6337 287.266 15.7743 287.156 15.9548C287.046 16.1331 286.991 16.3366 286.991 16.5651V19.7812H285.966ZM290.89 16.6543V19.7812H289.865V14.5148H290.849V15.372H290.914C291.035 15.0931 291.225 14.8691 291.483 14.6999C291.744 14.5308 292.072 14.4462 292.467 14.4462C292.826 14.4462 293.14 14.5217 293.41 14.6725C293.68 14.8211 293.889 15.0428 294.037 15.3377C294.186 15.6325 294.26 15.9971 294.26 16.4314V19.7812H293.235V16.5549C293.235 16.1731 293.136 15.8748 292.937 15.66C292.738 15.4428 292.465 15.3342 292.117 15.3342C291.88 15.3342 291.668 15.3857 291.483 15.4885C291.3 15.5914 291.155 15.7423 291.048 15.9411C290.942 16.1377 290.89 16.3754 290.89 16.6543ZM297.361 19.8978C297.027 19.8978 296.725 19.8361 296.456 19.7127C296.186 19.587 295.972 19.4052 295.815 19.1675C295.659 18.9298 295.581 18.6384 295.581 18.2932C295.581 17.996 295.639 17.7515 295.753 17.5595C295.867 17.3675 296.021 17.2155 296.216 17.1034C296.41 16.9914 296.627 16.9069 296.867 16.8497C297.107 16.7926 297.352 16.7492 297.601 16.7194C297.916 16.6829 298.172 16.6531 298.369 16.6303C298.566 16.6051 298.708 16.5651 298.798 16.5103C298.887 16.4554 298.931 16.3663 298.931 16.2428V16.2188C298.931 15.9194 298.847 15.6874 298.678 15.5228C298.511 15.3582 298.262 15.276 297.93 15.276C297.585 15.276 297.313 15.3525 297.114 15.5057C296.918 15.6565 296.781 15.8246 296.706 16.0097L295.743 15.7903C295.857 15.4703 296.024 15.212 296.243 15.0154C296.465 14.8165 296.72 14.6725 297.008 14.5834C297.296 14.4919 297.599 14.4462 297.916 14.4462C298.127 14.4462 298.35 14.4714 298.585 14.5217C298.823 14.5697 299.044 14.6588 299.25 14.7891C299.458 14.9194 299.628 15.1057 299.761 15.348C299.894 15.588 299.96 15.9 299.96 16.284V19.7812H298.959V19.0612H298.918C298.851 19.1938 298.752 19.3241 298.619 19.4521C298.487 19.5801 298.316 19.6864 298.108 19.771C297.9 19.8555 297.651 19.8978 297.361 19.8978ZM297.584 19.0749C297.867 19.0749 298.11 19.0189 298.311 18.9069C298.514 18.7949 298.668 18.6486 298.774 18.4681C298.881 18.2852 298.935 18.0898 298.935 17.8818V17.2029C298.898 17.2395 298.827 17.2737 298.722 17.3057C298.619 17.3355 298.502 17.3617 298.369 17.3846C298.236 17.4052 298.107 17.4246 297.982 17.4429C297.856 17.4589 297.751 17.4726 297.666 17.484C297.467 17.5092 297.286 17.5515 297.121 17.6109C296.959 17.6703 296.828 17.756 296.73 17.868C296.634 17.9778 296.586 18.1241 296.586 18.3069C296.586 18.5606 296.68 18.7526 296.867 18.8829C297.055 19.0109 297.294 19.0749 297.584 19.0749ZM303.977 14.5148V15.3377H301.1V14.5148H303.977ZM301.872 13.253H302.897V18.2349C302.897 18.4338 302.927 18.5835 302.986 18.6841C303.045 18.7824 303.122 18.8498 303.216 18.8864C303.312 18.9207 303.416 18.9378 303.528 18.9378C303.61 18.9378 303.682 18.9321 303.744 18.9207C303.805 18.9092 303.853 18.9001 303.888 18.8932L304.073 19.7401C304.013 19.763 303.929 19.7858 303.819 19.8087C303.709 19.8338 303.572 19.8475 303.408 19.8498C303.138 19.8544 302.887 19.8064 302.653 19.7058C302.42 19.6052 302.232 19.4498 302.088 19.2395C301.944 19.0292 301.872 18.7652 301.872 18.4475V13.253ZM305.304 19.7812V14.5148H306.329V19.7812H305.304ZM305.822 13.7022C305.643 13.7022 305.49 13.6428 305.362 13.5239C305.237 13.4028 305.174 13.2588 305.174 13.0919C305.174 12.9227 305.237 12.7787 305.362 12.6599C305.49 12.5387 305.643 12.4782 305.822 12.4782C306 12.4782 306.152 12.5387 306.278 12.6599C306.406 12.7787 306.47 12.9227 306.47 13.0919C306.47 13.2588 306.406 13.4028 306.278 13.5239C306.152 13.6428 306 13.7022 305.822 13.7022ZM310.12 19.8875C309.626 19.8875 309.195 19.7744 308.827 19.5481C308.459 19.3218 308.173 19.0052 307.97 18.5984C307.767 18.1915 307.665 17.716 307.665 17.172C307.665 16.6257 307.767 16.148 307.97 15.7388C308.173 15.3297 308.459 15.012 308.827 14.7857C309.195 14.5594 309.626 14.4462 310.12 14.4462C310.614 14.4462 311.044 14.5594 311.412 14.7857C311.78 15.012 312.066 15.3297 312.27 15.7388C312.473 16.148 312.575 16.6257 312.575 17.172C312.575 17.716 312.473 18.1915 312.27 18.5984C312.066 19.0052 311.78 19.3218 311.412 19.5481C311.044 19.7744 310.614 19.8875 310.12 19.8875ZM310.123 19.0269C310.443 19.0269 310.708 18.9424 310.919 18.7732C311.129 18.6041 311.284 18.3789 311.385 18.0978C311.488 17.8166 311.539 17.5069 311.539 17.1686C311.539 16.8326 311.488 16.524 311.385 16.2428C311.284 15.9594 311.129 15.732 310.919 15.5605C310.708 15.3891 310.443 15.3034 310.123 15.3034C309.801 15.3034 309.533 15.3891 309.321 15.5605C309.111 15.732 308.954 15.9594 308.851 16.2428C308.751 16.524 308.7 16.8326 308.7 17.1686C308.7 17.5069 308.751 17.8166 308.851 18.0978C308.954 18.3789 309.111 18.6041 309.321 18.7732C309.533 18.9424 309.801 19.0269 310.123 19.0269ZM314.937 16.6543V19.7812H313.912V14.5148H314.896V15.372H314.961C315.082 15.0931 315.272 14.8691 315.53 14.6999C315.791 14.5308 316.119 14.4462 316.515 14.4462C316.873 14.4462 317.188 14.5217 317.457 14.6725C317.727 14.8211 317.936 15.0428 318.085 15.3377C318.233 15.6325 318.308 15.9971 318.308 16.4314V19.7812H317.283V16.5549C317.283 16.1731 317.183 15.8748 316.984 15.66C316.785 15.4428 316.512 15.3342 316.165 15.3342C315.927 15.3342 315.716 15.3857 315.53 15.4885C315.348 15.5914 315.202 15.7423 315.095 15.9411C314.99 16.1377 314.937 16.3754 314.937 16.6543ZM321.408 19.8978C321.075 19.8978 320.773 19.8361 320.503 19.7127C320.233 19.587 320.02 19.4052 319.862 19.1675C319.707 18.9298 319.629 18.6384 319.629 18.2932C319.629 17.996 319.686 17.7515 319.8 17.5595C319.915 17.3675 320.069 17.2155 320.263 17.1034C320.457 16.9914 320.675 16.9069 320.915 16.8497C321.155 16.7926 321.399 16.7492 321.648 16.7194C321.964 16.6829 322.22 16.6531 322.416 16.6303C322.613 16.6051 322.756 16.5651 322.845 16.5103C322.934 16.4554 322.979 16.3663 322.979 16.2428V16.2188C322.979 15.9194 322.894 15.6874 322.725 15.5228C322.558 15.3582 322.309 15.276 321.978 15.276C321.632 15.276 321.36 15.3525 321.161 15.5057C320.965 15.6565 320.829 15.8246 320.753 16.0097L319.79 15.7903C319.904 15.4703 320.071 15.212 320.291 15.0154C320.512 14.8165 320.767 14.6725 321.055 14.5834C321.343 14.4919 321.646 14.4462 321.964 14.4462C322.174 14.4462 322.397 14.4714 322.632 14.5217C322.87 14.5697 323.092 14.6588 323.298 14.7891C323.506 14.9194 323.676 15.1057 323.808 15.348C323.941 15.588 324.007 15.9 324.007 16.284V19.7812H323.006V19.0612H322.965C322.899 19.1938 322.799 19.3241 322.667 19.4521C322.534 19.5801 322.364 19.6864 322.156 19.771C321.948 19.8555 321.699 19.8978 321.408 19.8978ZM321.631 19.0749C321.915 19.0749 322.157 19.0189 322.358 18.9069C322.562 18.7949 322.716 18.6486 322.821 18.4681C322.928 18.2852 322.982 18.0898 322.982 17.8818V17.2029C322.946 17.2395 322.875 17.2737 322.77 17.3057C322.667 17.3355 322.549 17.3617 322.416 17.3846C322.284 17.4052 322.155 17.4246 322.029 17.4429C321.903 17.4589 321.798 17.4726 321.714 17.484C321.515 17.5092 321.333 17.5515 321.168 17.6109C321.006 17.6703 320.876 17.756 320.777 17.868C320.681 17.9778 320.633 18.1241 320.633 18.3069C320.633 18.5606 320.727 18.7526 320.915 18.8829C321.102 19.0109 321.341 19.0749 321.631 19.0749ZM326.591 12.7593V19.7812H325.566V12.7593H326.591ZM332.053 12.7593V19.7812H330.994V12.7593H332.053ZM334.732 16.6543V19.7812H333.707V14.5148H334.691V15.372H334.756C334.877 15.0931 335.067 14.8691 335.325 14.6999C335.586 14.5308 335.914 14.4462 336.31 14.4462C336.668 14.4462 336.983 14.5217 337.252 14.6725C337.522 14.8211 337.731 15.0428 337.88 15.3377C338.028 15.6325 338.103 15.9971 338.103 16.4314V19.7812H337.078V16.5549C337.078 16.1731 336.978 15.8748 336.779 15.66C336.58 15.4428 336.307 15.3342 335.96 15.3342C335.722 15.3342 335.511 15.3857 335.325 15.4885C335.143 15.5914 334.997 15.7423 334.89 15.9411C334.785 16.1377 334.732 16.3754 334.732 16.6543ZM341.889 19.8875C341.379 19.8875 340.94 19.7721 340.572 19.5412C340.207 19.3081 339.926 18.9869 339.729 18.5778C339.532 18.1686 339.434 17.7 339.434 17.172C339.434 16.6371 339.535 16.1651 339.736 15.756C339.937 15.3445 340.22 15.0234 340.586 14.7925C340.952 14.5617 341.383 14.4462 341.879 14.4462C342.279 14.4462 342.635 14.5205 342.949 14.6691C343.262 14.8154 343.514 15.0211 343.706 15.2862C343.901 15.5514 344.016 15.8611 344.053 16.2154H343.055C343 15.9686 342.874 15.756 342.678 15.5777C342.483 15.3994 342.223 15.3102 341.896 15.3102C341.61 15.3102 341.36 15.3857 341.145 15.5365C340.932 15.6851 340.767 15.8977 340.648 16.1743C340.529 16.4486 340.47 16.7732 340.47 17.148C340.47 17.532 340.528 17.8635 340.644 18.1423C340.761 18.4212 340.926 18.6372 341.138 18.7904C341.353 18.9435 341.606 19.0201 341.896 19.0201C342.09 19.0201 342.266 18.9847 342.424 18.9138C342.584 18.8406 342.718 18.7366 342.825 18.6018C342.935 18.4669 343.011 18.3046 343.055 18.1149H344.053C344.016 18.4555 343.905 18.7595 343.72 19.0269C343.535 19.2944 343.287 19.5047 342.976 19.6578C342.667 19.811 342.305 19.8875 341.889 19.8875ZM346.017 19.8464C345.83 19.8464 345.669 19.7801 345.534 19.6475C345.399 19.5127 345.332 19.3504 345.332 19.1607C345.332 18.9732 345.399 18.8132 345.534 18.6806C345.669 18.5458 345.83 18.4784 346.017 18.4784C346.205 18.4784 346.366 18.5458 346.501 18.6806C346.636 18.8132 346.703 18.9732 346.703 19.1607C346.703 19.2864 346.671 19.4018 346.607 19.507C346.545 19.6098 346.463 19.6921 346.36 19.7538C346.257 19.8155 346.143 19.8464 346.017 19.8464Z" fill="#A0A1A8"/>
<defs>
<clipPath id="clip0_409_21">
<rect width="56" height="22.2031" fill="white" transform="translate(0.40625 1.25)"/>
</clipPath>
<clipPath id="clip1_409_21">
<rect width="56" height="22.1875" fill="white" transform="translate(0.40625 1.26562)"/>
</clipPath>
</defs>
</svg>
