<svg width="395" height="62" viewBox="0 0 395 62" fill="none" xmlns="http://www.w3.org/2000/svg">
<g clip-path="url(#clip0_409_284)">
<path d="M176.211 0H10.1324C4.80861 0 0.492859 4.31575 0.492859 9.63949V51.5636C0.492859 56.8874 4.80861 61.2031 10.1324 61.2031H176.211C181.535 61.2031 185.851 56.8874 185.851 51.5636V9.63949C185.851 4.31575 181.535 0 176.211 0Z" fill="white"/>
<path d="M17.657 49.0416L30.6837 35.5097L17.6679 22.002C17.3203 22.2122 17.1051 22.6991 17.1051 23.3365V47.7199C17.1098 48.3573 17.3172 48.8087 17.657 49.0416Z" fill="black"/>
<path d="M31.1508 35.1362L35.0311 31.1049L19.2294 22.104C18.9633 21.9435 18.6611 21.8586 18.3532 21.8582L31.1492 35.1345L31.1508 35.1362Z" fill="black"/>
<path d="M31.1504 35.8848L18.3139 49.2194C18.6361 49.2249 18.9534 49.1376 19.2306 48.967L35.0634 39.9419L31.1504 35.8848Z" fill="black"/>
<path d="M40.7541 34.3708L35.4957 31.3699L31.5095 35.5112L35.5253 39.6784L40.7525 36.6856C41.8641 36.0499 41.8641 35.0032 40.7541 34.3708Z" fill="black"/>
<path d="M86.899 31.8788C83.6531 31.8788 81.0015 34.3564 81.0015 37.7749C81.0015 41.1656 83.6531 43.6692 86.899 43.6692C90.1519 43.6692 92.8029 41.1656 92.8029 37.7749C92.8029 34.3564 90.1519 31.8788 86.899 31.8788ZM86.899 41.3475C85.118 41.3475 83.5857 39.873 83.5857 37.7749C83.5857 35.649 85.118 34.2005 86.899 34.2005C88.6796 34.2005 90.2193 35.649 90.2193 37.7749C90.2193 39.873 88.6796 41.3475 86.899 41.3475ZM74.0314 31.8788C70.7786 31.8788 68.1339 34.3564 68.1339 37.7749C68.1339 41.1656 70.7786 43.6692 74.0314 43.6692C77.2824 43.6692 79.9287 41.1656 79.9287 37.7749C79.9287 34.3564 77.2824 31.8788 74.0314 31.8788ZM74.0314 41.3475C72.2487 41.3475 70.7113 39.873 70.7113 37.7749C70.7113 35.649 72.2487 34.2005 74.0314 34.2005C75.8124 34.2005 77.3446 35.649 77.3446 37.7749C77.3446 39.873 75.8124 41.3475 74.0314 41.3475ZM58.7196 33.6859V36.1912H64.6844C64.5097 37.5912 64.0434 38.6204 63.3283 39.3377C62.4577 40.204 61.1016 41.1656 58.7196 41.1656C55.0488 41.1656 52.1743 38.1941 52.1743 34.5123C52.1743 30.8305 55.0488 27.8591 58.7196 27.8591C60.7043 27.8591 62.1484 28.637 63.2143 29.6454L64.9745 27.8798C63.4837 26.4522 61.5007 25.3555 58.7196 25.3555C53.6858 25.3555 49.4554 29.4635 49.4554 34.5123C49.4554 39.5612 53.6858 43.6692 58.7196 43.6692C61.4402 43.6692 63.4837 42.7752 65.0902 41.098C66.7365 39.4468 67.2495 37.1251 67.2495 35.2504C67.2495 34.6683 67.2026 34.1329 67.1146 33.6859H58.7196ZM121.331 35.6282C120.846 34.3096 119.348 31.8788 116.298 31.8788C113.275 31.8788 110.758 34.268 110.758 37.7749C110.758 41.0772 113.249 43.6692 116.588 43.6692C119.288 43.6692 120.846 42.0181 121.487 41.0564L119.483 39.7171C118.815 40.6978 117.904 41.3475 116.588 41.3475C115.28 41.3475 114.342 40.7463 113.741 39.5612L121.602 36.2987L121.331 35.6282ZM113.316 37.5912C113.249 35.318 115.076 34.1537 116.386 34.1537C117.412 34.1537 118.283 34.6681 118.573 35.4047L113.316 37.5912ZM106.927 43.3105H109.51V25.9844H106.927V43.3105ZM102.694 33.1921H102.608C102.028 32.5025 100.92 31.8788 99.5178 31.8788C96.5739 31.8788 93.8827 34.4707 93.8827 37.7939C93.8827 41.0981 96.5739 43.6692 99.5178 43.6692C100.92 43.6692 102.028 43.0403 102.608 42.3299H102.694V43.1754C102.694 45.4296 101.494 46.6407 99.5571 46.6407C97.9789 46.6407 96.9988 45.4972 96.5949 44.5356L94.3478 45.4763C94.9957 47.0391 96.7103 48.9624 99.5571 48.9624C102.588 48.9624 105.144 47.1743 105.144 42.8237V32.2374H102.694V33.1921ZM99.739 41.3475C97.958 41.3475 96.4672 39.8523 96.4672 37.7939C96.4672 35.7165 97.958 34.2005 99.739 34.2005C101.494 34.2005 102.878 35.7165 102.878 37.7939C102.878 39.8523 101.494 41.3475 99.739 41.3475ZM133.43 25.9844H127.25V43.3105H129.827V36.7457H133.43C136.293 36.7457 139.1 34.6683 139.1 31.3641C139.1 28.0618 136.286 25.9844 133.43 25.9844ZM133.498 34.3356H129.827V28.3945H133.498C135.422 28.3945 136.52 29.9971 136.52 31.3641C136.52 32.7053 135.422 34.3356 133.498 34.3356ZM149.43 31.8458C147.567 31.8458 145.631 32.6706 144.834 34.4985L147.122 35.4601C147.615 34.4985 148.52 34.1866 149.476 34.1866C150.813 34.1866 152.169 34.9923 152.19 36.4147V36.5966C151.724 36.3265 150.726 35.9261 149.497 35.9261C147.034 35.9261 144.524 37.2862 144.524 39.8245C144.524 42.1462 146.541 43.6415 148.81 43.6415C150.544 43.6415 151.501 42.8566 152.102 41.9435H152.19V43.2828H154.679V36.6365C154.679 33.5646 152.392 31.8458 149.43 31.8458ZM149.119 41.3406C148.276 41.3406 147.101 40.9213 147.101 39.8731C147.101 38.5321 148.566 38.0174 149.834 38.0174C150.969 38.0174 151.501 38.2686 152.19 38.5997C151.988 40.204 150.611 41.3406 149.119 41.3406ZM163.748 32.2253L160.786 39.7362H160.697L157.634 32.2253H154.855L159.457 42.7215L156.832 48.5621H159.525L166.616 32.2253H163.748ZM140.516 43.3105H143.101V25.9844H140.516V43.3105Z" fill="black"/>
<path d="M53.5332 20.2636C52.8727 20.2636 52.2636 20.1097 51.7058 19.8019C51.1544 19.4878 50.7152 19.0582 50.3882 18.5132C50.0612 17.9618 49.8977 17.3463 49.8977 16.6666C49.8977 15.987 50.0612 15.3747 50.3882 14.8296C50.7152 14.2783 51.1544 13.8486 51.7058 13.5408C52.2636 13.2267 52.8727 13.0696 53.5332 13.0696C54.0717 13.0696 54.5622 13.1658 55.0047 13.3581C55.4534 13.5441 55.8382 13.8101 56.1588 14.1564L55.2643 15.0316C55.0335 14.788 54.777 14.6053 54.4949 14.4834C54.2192 14.3616 53.8954 14.3006 53.5235 14.3006C53.1004 14.3006 52.7124 14.4 52.3598 14.5988C52.0071 14.7911 51.725 15.07 51.5135 15.4355C51.3082 15.7946 51.2057 16.2049 51.2057 16.6666C51.2057 17.1282 51.3115 17.5418 51.5231 17.9072C51.7347 18.2663 52.0167 18.5452 52.3694 18.744C52.7284 18.9363 53.1196 19.0325 53.5428 19.0325C54.1839 19.0325 54.7097 18.8434 55.1201 18.4651C55.2482 18.3497 55.3605 18.2022 55.4567 18.0227C55.5529 17.8432 55.6233 17.6476 55.6683 17.436H53.5043V16.33H56.8801C56.9249 16.5095 56.9474 16.7115 56.9474 16.9359C56.9474 17.3911 56.8769 17.8143 56.7358 18.2054C56.6012 18.5966 56.3927 18.9396 56.1107 19.2345C55.8029 19.568 55.431 19.8244 54.995 20.0039C54.559 20.177 54.0717 20.2636 53.5332 20.2636Z" fill="black"/>
<path d="M58.3821 13.2236H62.7485V14.4547H59.6804V16.0512H62.4407V17.2823H59.6804V18.8788H62.7485V20.1099H58.3821V13.2236Z" fill="black"/>
<path d="M65.6701 14.4547H63.7466V13.2236H68.892V14.4547H66.9685V20.1099H65.6701V14.4547Z" fill="black"/>
<path d="M72.5685 13.2236H73.8668V20.1099H72.5685V13.2236Z" fill="black"/>
<path d="M77.0199 14.4547H75.0964V13.2236H80.2418V14.4547H78.3183V20.1099H77.0199V14.4547Z" fill="black"/>
<path d="M86.9813 20.2636C86.308 20.2636 85.6957 20.1065 85.1443 19.7923C84.5993 19.4718 84.1698 19.0357 83.8555 18.4843C83.5414 17.933 83.3843 17.327 83.3843 16.6666C83.3843 16.0062 83.5414 15.4003 83.8555 14.8488C84.1698 14.2975 84.5993 13.8647 85.1443 13.5505C85.6957 13.2299 86.308 13.0696 86.9813 13.0696C87.6545 13.0696 88.2634 13.2299 88.809 13.5505C89.3598 13.8647 89.7926 14.2975 90.1074 14.8488C90.4212 15.4003 90.5786 16.0062 90.5786 16.6666C90.5786 17.327 90.4212 17.933 90.1074 18.4843C89.7926 19.0357 89.3598 19.4718 88.809 19.7923C88.2634 20.1065 87.6545 20.2636 86.9813 20.2636ZM86.9813 19.0325C87.4044 19.0325 87.7924 18.9332 88.1454 18.7344C88.4977 18.5356 88.7731 18.2567 88.9725 17.8976C89.1771 17.5386 89.2802 17.1282 89.2802 16.6666C89.2802 16.2049 89.1771 15.7946 88.9725 15.4355C88.7731 15.0765 88.4977 14.7976 88.1454 14.5988C87.7924 14.4 87.4044 14.3006 86.9813 14.3006C86.5581 14.3006 86.1702 14.4 85.8175 14.5988C85.4713 14.7976 85.1956 15.0765 84.9904 15.4355C84.7917 15.7946 84.6923 16.2049 84.6923 16.6666C84.6923 17.1282 84.7917 17.5386 84.9904 17.8976C85.1956 18.2567 85.4713 18.5356 85.8175 18.7344C86.1702 18.9332 86.5581 19.0325 86.9813 19.0325Z" fill="black"/>
<path d="M92.0003 13.2236H93.5102L96.2801 17.8401H96.3571L96.2801 16.5129V13.2236H97.5689V20.1099H96.2032L93.2794 15.2337H93.2025L93.2794 16.561V20.1099H92.0003V13.2236Z" fill="black"/>
</g>
<g clip-path="url(#clip1_409_284)">
<path d="M384.758 0H218.679C213.355 0 209.04 4.31575 209.04 9.63949V51.5636C209.04 56.8874 213.355 61.2031 218.679 61.2031H384.758C390.082 61.2031 394.398 56.8874 394.398 51.5636V9.63949C394.398 4.31575 390.082 0 384.758 0Z" fill="white"/>
<path d="M265.205 14.9822V23.6068H268.319C270.889 23.6068 272.377 22.023 272.377 19.2676C272.377 16.5541 270.877 14.9822 268.319 14.9822H265.205ZM266.544 16.2015H268.17C269.957 16.2015 271.015 17.3371 271.015 19.2855C271.015 21.2639 269.975 22.3876 268.17 22.3876H266.544V16.2015Z" fill="black"/>
<path d="M276.782 23.7325C278.683 23.7325 279.849 22.4594 279.849 20.3496C279.849 18.2517 278.677 16.9727 276.782 16.9727C274.882 16.9727 273.71 18.2517 273.71 20.3496C273.71 22.4594 274.876 23.7325 276.782 23.7325ZM276.782 22.5909C275.665 22.5909 275.037 21.7721 275.037 20.3496C275.037 18.939 275.665 18.1143 276.782 18.1143C277.894 18.1143 278.528 18.939 278.528 20.3496C278.528 21.7661 277.894 22.5909 276.782 22.5909Z" fill="black"/>
<path d="M289.621 17.0981H288.336L287.176 22.0649H287.075L285.736 17.0981H284.505L283.166 22.0649H283.07L281.905 17.0981H280.602L282.395 23.6069H283.716L285.054 18.8135H285.156L286.501 23.6069H287.834L289.621 17.0981Z" fill="black"/>
<path d="M290.948 23.607H292.233V19.7997C292.233 18.7837 292.836 18.1501 293.787 18.1501C294.737 18.1501 295.191 18.6701 295.191 19.716V23.607H296.476V19.3933C296.476 17.8453 295.675 16.9727 294.223 16.9727C293.243 16.9727 292.597 17.4089 292.28 18.1322H292.185V17.0982H290.948V23.607Z" fill="black"/>
<path d="M298.347 23.6068H299.632V14.5579H298.347V23.6068Z" fill="black"/>
<path d="M304.312 23.7325C306.213 23.7325 307.378 22.4594 307.378 20.3496C307.378 18.2517 306.207 16.9727 304.312 16.9727C302.411 16.9727 301.24 18.2517 301.24 20.3496C301.24 22.4594 302.405 23.7325 304.312 23.7325ZM304.312 22.5909C303.195 22.5909 302.567 21.7721 302.567 20.3496C302.567 18.939 303.195 18.1143 304.312 18.1143C305.423 18.1143 306.057 18.939 306.057 20.3496C306.057 21.7661 305.423 22.5909 304.312 22.5909Z" fill="black"/>
<path d="M311.054 22.6327C310.355 22.6327 309.847 22.2921 309.847 21.7064C309.847 21.1325 310.253 20.8278 311.149 20.7679L312.739 20.6664V21.2103C312.739 22.0171 312.022 22.6327 311.054 22.6327ZM310.725 23.7145C311.579 23.7145 312.291 23.344 312.679 22.6925H312.781V23.607H314.018V19.1602C314.018 17.7855 313.098 16.9727 311.466 16.9727C309.99 16.9727 308.938 17.6899 308.806 18.8075H310.049C310.193 18.3474 310.689 18.0844 311.406 18.0844C312.285 18.0844 312.739 18.4728 312.739 19.1602V19.722L310.976 19.8237C309.428 19.9192 308.555 20.5947 308.555 21.7661C308.555 22.9555 309.47 23.7145 310.725 23.7145Z" fill="black"/>
<path d="M318.226 23.7144C319.122 23.7144 319.881 23.2901 320.27 22.5788H320.372V23.6068H321.603V14.5579H320.317V18.132H320.222C319.87 17.4148 319.116 16.9904 318.226 16.9904C316.582 16.9904 315.524 18.2934 315.524 20.3494C315.524 22.4114 316.57 23.7144 318.226 23.7144ZM318.591 18.144C319.666 18.144 320.342 18.9987 320.342 20.3554C320.342 21.7181 319.672 22.5609 318.591 22.5609C317.503 22.5609 316.852 21.7301 316.852 20.3494C316.852 18.9807 317.509 18.144 318.591 18.144Z" fill="black"/>
<path d="M329.63 23.7325C331.531 23.7325 332.696 22.4594 332.696 20.3496C332.696 18.2517 331.525 16.9727 329.63 16.9727C327.729 16.9727 326.558 18.2517 326.558 20.3496C326.558 22.4594 327.723 23.7325 329.63 23.7325ZM329.63 22.5909C328.513 22.5909 327.885 21.7721 327.885 20.3496C327.885 18.939 328.513 18.1143 329.63 18.1143C330.741 18.1143 331.375 18.939 331.375 20.3496C331.375 21.7661 330.741 22.5909 329.63 22.5909Z" fill="black"/>
<path d="M334.244 23.607H335.529V19.7997C335.529 18.7837 336.132 18.1501 337.083 18.1501C338.033 18.1501 338.488 18.6701 338.488 19.716V23.607H339.772V19.3933C339.772 17.8453 338.971 16.9727 337.519 16.9727C336.539 16.9727 335.894 17.4089 335.577 18.1322H335.481V17.0982H334.244V23.607Z" fill="black"/>
<path d="M345.385 15.4783V17.1279H344.351V18.2097H345.385V21.8855C345.385 23.1406 345.953 23.6427 347.382 23.6427C347.632 23.6427 347.871 23.6128 348.08 23.5769V22.5071C347.901 22.525 347.787 22.537 347.59 22.537C346.95 22.537 346.67 22.2382 346.67 21.5568V18.2097H348.08V17.1279H346.67V15.4783H345.385Z" fill="black"/>
<path d="M349.652 23.6068H350.937V19.8055C350.937 18.8193 351.523 18.1559 352.575 18.1559C353.483 18.1559 353.968 18.6819 353.968 19.7218V23.6068H355.253V19.4051C355.253 17.8571 354.398 16.9784 353.011 16.9784C352.031 16.9784 351.344 17.4148 351.027 18.144H350.925V14.5579H349.652V23.6068Z" fill="black"/>
<path d="M359.735 18.0664C360.685 18.0664 361.307 18.7299 361.338 19.7519H358.05C358.122 18.7358 358.785 18.0664 359.735 18.0664ZM361.331 21.8498C361.092 22.3578 360.56 22.6388 359.783 22.6388C358.755 22.6388 358.092 21.9155 358.05 20.774V20.7022H362.646V20.2539C362.646 18.2098 361.553 16.9727 359.741 16.9727C357.907 16.9727 356.741 18.2936 356.741 20.3735C356.741 22.4535 357.882 23.7325 359.747 23.7325C361.235 23.7325 362.276 23.0152 362.569 21.8498H361.331Z" fill="black"/>
<path d="M276.234 48.0884H279.103L272.797 30.6235H269.868L263.562 48.0884H266.382L267.98 43.3681H274.637L276.234 48.0884ZM271.272 33.5283H271.345L273.947 41.1896H268.67L271.272 33.5283Z" fill="black"/>
<path d="M288.035 34.8113C286.207 34.8113 284.585 35.7069 283.847 37.123H283.786V34.9444H281.257V52.4456H283.883V45.9341H283.932C284.718 47.3864 286.207 48.2216 288.095 48.2216C291.399 48.2216 293.59 45.5831 293.59 41.5164C293.59 37.4377 291.387 34.8113 288.035 34.8113ZM287.369 45.9946C285.275 45.9946 283.871 44.2033 283.859 41.5164C283.871 38.8416 285.287 37.0383 287.369 37.0383C289.499 37.0383 290.903 38.8053 290.903 41.5164C290.903 44.2396 289.499 45.9946 287.369 45.9946Z" fill="black"/>
<path d="M302.957 34.8113C301.129 34.8113 299.508 35.7069 298.77 37.123H298.709V34.9444H296.179V52.4456H298.805V45.9341H298.854C299.641 47.3864 301.129 48.2216 303.018 48.2216C306.322 48.2216 308.512 45.5831 308.512 41.5164C308.512 37.4377 306.31 34.8113 302.957 34.8113ZM302.291 45.9946C300.197 45.9946 298.794 44.2033 298.782 41.5164C298.794 38.8416 300.21 37.0383 302.291 37.0383C304.421 37.0383 305.825 38.8053 305.825 41.5164C305.825 44.2396 304.421 45.9946 302.291 45.9946Z" fill="black"/>
<path d="M316.803 43.2228C316.971 46.3818 319.586 48.3787 323.459 48.3787C327.598 48.3787 330.2 46.3333 330.2 43.0655C330.2 40.5117 328.712 39.0715 325.129 38.2243L323.205 37.7522C320.954 37.1955 320.034 36.4693 320.034 35.2348C320.034 33.6855 321.474 32.6205 323.58 32.6205C325.686 32.6205 327.126 33.6735 327.283 35.4163H329.922C329.837 32.4026 327.308 30.333 323.616 30.333C319.888 30.333 317.263 32.4026 317.263 35.4163C317.263 37.849 318.751 39.3498 321.959 40.1245L324.221 40.6691C326.485 41.2259 327.441 42.0367 327.441 43.3923C327.441 44.9536 325.856 46.0913 323.653 46.0913C321.353 46.0913 319.671 44.9536 319.477 43.2228H316.803Z" fill="black"/>
<path d="M333.649 31.9912V34.9444H331.834V37.0141H333.649V44.6269C333.649 47.1686 334.666 48.1731 337.293 48.1731C337.861 48.1731 338.478 48.1126 338.769 48.04V45.9704C338.6 45.9946 338.152 46.0309 337.873 46.0309C336.772 46.0309 336.264 45.4984 336.264 44.3606V37.0141H338.781V34.9444H336.264V31.9912H333.649Z" fill="black"/>
<path d="M346.805 48.2457C350.605 48.2457 353.014 45.6556 353.014 41.5163C353.014 37.3771 350.593 34.7749 346.805 34.7749C343.017 34.7749 340.584 37.3892 340.584 41.5163C340.584 45.6556 343.005 48.2457 346.805 48.2457ZM346.805 46.0671C344.578 46.0671 343.247 44.3848 343.247 41.5163C343.247 38.66 344.578 36.9535 346.805 36.9535C349.032 36.9535 350.352 38.6479 350.352 41.5163C350.352 44.3848 349.032 46.0671 346.805 46.0671Z" fill="black"/>
<path d="M355.616 48.0884H358.242V40.2456C358.242 38.3938 359.331 37.1956 361.062 37.1956C361.582 37.1956 362.042 37.2682 362.26 37.353V34.896C362.055 34.8476 361.728 34.8113 361.34 34.8113C359.791 34.8113 358.581 35.6948 358.169 37.1593H358.121V34.9444H355.616V48.0884Z" fill="black"/>
<path d="M369.353 36.9171C371.265 36.9171 372.56 38.2727 372.62 40.3182H365.951C366.097 38.2969 367.464 36.9171 369.353 36.9171ZM372.608 44.2395C372.245 45.3894 371.047 46.1155 369.521 46.1155C367.367 46.1155 365.939 44.6147 365.939 42.3393V42.182H375.246V41.2622C375.246 37.2802 372.971 34.7749 369.364 34.7749C365.685 34.7749 363.288 37.4497 363.288 41.5648C363.288 45.6798 365.661 48.2457 369.473 48.2457C372.427 48.2457 374.738 46.5997 375.114 44.2395H372.608Z" fill="black"/>
<path d="M248.32 31.1556C248.281 26.8698 251.904 24.7848 252.07 24.6878C250.018 21.7583 246.837 21.3581 245.72 21.3262C243.048 21.0509 240.457 22.8913 239.097 22.8913C237.709 22.8913 235.613 21.3527 233.355 21.3979C230.449 21.4418 227.73 23.0894 226.239 25.6478C223.162 30.8644 225.457 38.5304 228.405 42.7471C229.88 44.8122 231.603 47.1179 233.859 47.0369C236.066 46.9478 236.89 45.6592 239.553 45.6592C242.192 45.6592 242.966 47.0369 245.266 46.985C247.634 46.9478 249.126 44.9106 250.549 42.8269C252.253 40.4599 252.937 38.1289 252.965 38.0092C252.909 37.9905 248.365 36.2925 248.32 31.1556Z" fill="black"/>
<path d="M243.974 18.5524C245.161 17.099 245.973 15.1216 245.748 13.115C244.03 13.1895 241.882 14.2785 240.645 15.7C239.55 16.9527 238.572 19.0058 238.825 20.9366C240.755 21.0775 242.736 19.9831 243.974 18.5524Z" fill="black"/>
</g>
<defs>
<clipPath id="clip0_409_284">
<rect width="185.358" height="61.2031" fill="white" transform="translate(0.492859)"/>
</clipPath>
<clipPath id="clip1_409_284">
<rect width="185.358" height="61.2031" fill="white" transform="translate(209.04)"/>
</clipPath>
</defs>
</svg>
