<svg width="32" height="31" viewBox="0 0 32 31" fill="none" xmlns="http://www.w3.org/2000/svg">
<g clip-path="url(#clip0_409_371)">
<path d="M27.5489 7.02605V24.1614C27.5489 25.5134 26.4529 26.6094 25.1008 26.6094H20.5109C20.1729 26.6094 19.899 26.3355 19.899 25.9973V18.6536H22.7631C23.0539 18.6537 23.3047 18.449 23.3628 18.1641L23.8035 15.9609C23.8217 15.8719 23.7993 15.7794 23.7426 15.7085C23.6858 15.6377 23.6005 15.5955 23.5097 15.5938H19.899V11.6159C19.899 11.4469 20.036 11.3099 20.2049 11.3099H23.2649C23.603 11.3099 23.8769 11.0359 23.8769 10.6979V8.86198C23.8769 8.524 23.603 8.25 23.2649 8.25H20.2049C18.177 8.25 16.533 9.89396 16.533 11.9219V15.5938H15.0275C14.6895 15.5938 14.4155 15.8677 14.4155 16.2058V18.0417C14.4155 18.3797 14.6895 18.6536 15.0275 18.6536H16.533V25.9973C16.533 26.3355 16.259 26.6094 15.9209 26.6094H7.96504C6.61305 26.6094 5.51706 25.5134 5.51706 24.1614V7.02605C5.51706 5.67409 6.61305 4.57812 7.96504 4.57812H25.1008C26.4529 4.57812 27.5489 5.67409 27.5489 7.02605Z" fill="white"/>
</g>
<defs>
<clipPath id="clip0_409_371">
<rect width="30.875" height="29.375" fill="white" transform="translate(0.625 0.90625)"/>
</clipPath>
</defs>
</svg>
