<svg width="57" height="23" viewBox="0 0 57 23" fill="none" xmlns="http://www.w3.org/2000/svg">
<g clip-path="url(#clip0_409_23)">
<path d="M6.37331 22.3565H0.411011V0.424072H12.6753V6.1568H6.37331V9.70713H12.3113V15.4406H6.37331V22.3565Z" fill="#A0A1A8"/>
<path d="M32.2566 11.3796C32.2566 1.33341 23.2396 0.424072 19.5062 0.424072H13.4961V22.3358H19.5062L19.4969 16.6231V6.06623C23.1946 6.06623 26.3363 7.4313 26.3363 11.3446C26.3363 15.2573 23.1946 16.6223 19.4969 16.6223L19.5062 22.3351C24.1517 22.3358 32.2566 21.4465 32.2566 11.3796Z" fill="#A0A1A8"/>
<path d="M39.2519 0.375H33.2896V22.3531H39.2519V0.375Z" fill="#A0A1A8"/>
<path d="M51.4255 16.5517C48.5614 16.5517 46.1911 14.2195 46.1911 11.3595C46.1911 8.49958 48.5614 6.16669 51.4255 6.16669C54.0368 6.16669 55.4022 7.55459 56.3015 9.38252V1.51304C56.3015 1.51304 53.6615 0.329834 51.2013 0.329834C45.7372 0.329834 39.817 5.35221 39.817 11.3595C39.817 18.7141 45.4638 22.3885 51.2013 22.3885C53.6607 22.3885 56.3015 21.2067 56.3015 21.2067V13.4057C55.2252 15.26 54.0227 16.5517 51.4255 16.5517Z" fill="#A0A1A8"/>
<path d="M51.4928 15.9096C53.9946 15.9096 56.0227 13.883 56.0227 11.3829C56.0227 8.88287 53.9946 6.8562 51.4928 6.8562C48.991 6.8562 46.963 8.88287 46.963 11.3829C46.963 13.883 48.991 15.9096 51.4928 15.9096Z" fill="#A0A1A8"/>
</g>
<defs>
<clipPath id="clip0_409_23">
<rect width="56" height="22.1875" fill="white" transform="translate(0.40625 0.265625)"/>
</clipPath>
</defs>
</svg>
