<svg width="40" height="39" viewBox="0 0 40 39" fill="none" xmlns="http://www.w3.org/2000/svg">
<g clip-path="url(#clip0_409_89)">
<g clip-path="url(#clip1_409_89)">
<path fill-rule="evenodd" clip-rule="evenodd" d="M19.8828 3.02075C10.8204 3.02075 3.47382 10.3673 3.47382 19.4297C3.47382 28.4921 10.8204 35.8387 19.8828 35.8387C28.9452 35.8387 36.2918 28.4921 36.2918 19.4297C36.2918 10.3673 28.9452 3.02075 19.8828 3.02075ZM32.4995 17.6065H27.8139C27.7123 14.3198 26.982 11.083 25.6624 8.07103C29.3541 9.95143 31.9033 13.5067 32.4995 17.6065ZM19.8825 32.1924H20.703C22.3621 31.1167 24.2766 27.1238 24.6047 21.2531H15.1604C15.4157 27.1603 17.403 31.1531 19.0621 32.1924H19.8825ZM15.2334 17.6063C15.5616 11.7356 17.4759 7.74271 19.135 6.66701H19.8826H20.7031C22.3622 7.70624 24.3495 11.6991 24.6047 17.6063H15.2334ZM11.9521 17.6065C12.0537 14.3198 12.784 11.083 14.1035 8.07103C10.4119 9.95143 7.86268 13.5067 7.26642 17.6065H11.9521ZM7.26642 21.253H11.9521C12.0537 24.5397 12.784 27.7765 14.1035 30.7884C10.4119 28.9081 7.86268 25.3528 7.26642 21.253ZM27.8139 21.253C27.7123 24.5397 26.982 27.7765 25.6624 30.7884C29.3541 28.9081 31.9033 25.3528 32.4995 21.253H27.8139Z" fill="#6FDBD4"/>
</g>
</g>
<defs>
<clipPath id="clip0_409_89">
<rect width="38.6094" height="38.6094" fill="white" transform="translate(0.578125 0.125)"/>
</clipPath>
<clipPath id="clip1_409_89">
<rect width="38.6094" height="38.6094" fill="white" transform="translate(0.578125 0.125)"/>
</clipPath>
</defs>
</svg>
