<svg width="32" height="31" viewBox="0 0 32 31" fill="none" xmlns="http://www.w3.org/2000/svg">
<g clip-path="url(#clip0_409_362)">
<g clip-path="url(#clip1_409_362)">
<path fill-rule="evenodd" clip-rule="evenodd" d="M11.7905 4.57812H21.5824C24.9623 4.57812 27.7024 7.31805 27.7024 10.6979V20.4895C27.7024 23.8694 24.9623 26.6094 21.5824 26.6094H11.7905C8.41053 26.6094 5.67053 23.8694 5.67053 20.4895V10.6979C5.67053 7.31805 8.41053 4.57812 11.7905 4.57812ZM22.5059 11.002C23.1819 11.002 23.7299 10.454 23.7299 9.77803C23.7299 9.10207 23.1819 8.55408 22.5059 8.55408C21.8298 8.55408 21.2818 9.10207 21.2818 9.77803C21.2818 10.454 21.8298 11.002 22.5059 11.002ZM16.6878 10.086C13.6458 10.086 11.1798 12.5519 11.1798 15.5938C11.1798 18.6357 13.6458 21.1016 16.6878 21.1016C19.7296 21.1016 22.1957 18.6357 22.1957 15.5938C22.1989 14.132 21.6197 12.7292 20.5861 11.6956C19.5523 10.6619 18.1495 10.0827 16.6878 10.086ZM13.3216 15.5918C13.3216 17.4508 14.8286 18.9578 16.6876 18.9578C18.5465 18.9578 20.0535 17.4508 20.0535 15.5918C20.0535 13.7329 18.5465 12.226 16.6876 12.226C14.8286 12.226 13.3216 13.7329 13.3216 15.5918Z" fill="white"/>
</g>
</g>
<defs>
<clipPath id="clip0_409_362">
<rect width="30.8906" height="29.4062" fill="white" transform="translate(0.625 0.90625)"/>
</clipPath>
<clipPath id="clip1_409_362">
<rect width="30.875" height="29.375" fill="white" transform="translate(0.625 0.90625)"/>
</clipPath>
</defs>
</svg>
