<svg width="118" height="47" viewBox="0 0 118 47" fill="none" xmlns="http://www.w3.org/2000/svg">
<g clip-path="url(#clip0_409_54)">
<path d="M17.3501 4.7195H21.0946C23.375 4.38355 25.7039 4.67891 27.8282 5.57351C30.4932 7.17693 32.4263 9.75828 33.215 12.7669C33.7734 14.3435 33.7734 14.3435 35.1201 13.7852H36.1711V1.30344H0.926791V3.50417H2.37204C3.00009 3.49982 3.62113 3.63622 4.18953 3.90337C4.75794 4.17053 5.25927 4.56163 5.65671 5.04796C7.00341 7.21584 7.23334 9.64648 7.23334 22.2924C7.23334 35.7267 6.93772 39.0113 5.65671 40.6865C5.34045 41.1171 4.93101 41.4708 4.45894 41.721C3.98686 41.9713 3.46437 42.1117 2.93043 42.1317C0.926791 42.493 0.926791 42.4602 0.926791 43.3471C0.815988 43.6437 0.815988 43.9702 0.926791 44.2668H23.1639C23.311 43.9767 23.3877 43.656 23.3877 43.3307C23.3877 43.0053 23.311 42.6846 23.1639 42.3946C22.6253 42.2447 22.0764 42.1349 21.5216 42.066C20.9214 41.9948 20.3282 41.8738 19.7478 41.7047C18.9169 41.0981 18.2587 40.2851 17.8381 39.3461C17.4177 38.4071 17.2494 37.3747 17.3501 36.3508C17.0217 34.1828 16.8574 30.2085 16.8574 26.9238V24.3289H18.1713C19.8083 24.2788 21.4441 24.4557 23.0325 24.8544C23.7935 25.3247 24.4413 25.9571 24.9295 26.7067C25.4178 27.4561 25.7347 28.3042 25.8574 29.1903L26.1531 30.2085H28.1566V15.6574H26.3172L26.0215 17.0699C25.8972 17.9759 25.562 18.8403 25.0429 19.5932C24.5237 20.3464 23.8352 20.967 23.0325 21.4055C22.2552 21.6369 21.4363 21.693 20.6347 21.5698H16.8574V18.0224C16.8574 14.3435 17.0544 6.59174 17.1858 5.37643L17.3501 4.7195ZM171.072 30.7668C169.519 28.2679 167.098 26.4312 164.273 25.61C162.108 24.9329 160.105 23.8146 158.393 22.3253C158.008 21.9527 157.72 21.4915 157.554 20.9819C157.388 20.4724 157.349 19.9299 157.441 19.402C157.443 18.3663 157.857 17.374 158.59 16.6429C159.088 16.122 159.717 15.7461 160.411 15.5552C161.106 15.3643 161.839 15.3656 162.533 15.5589C163.968 15.9681 165.267 16.7581 166.289 17.8452C167.314 18.9323 168.023 20.2761 168.346 21.7341C168.872 23.2122 168.937 23.2122 169.89 22.818L170.481 22.588V14.4092L170.054 14.2122C166.82 13.0764 163.391 12.6071 159.97 12.8326C157.025 12.9072 154.214 14.0786 152.087 16.1173C151.122 17.0202 150.367 18.1231 149.873 19.3486C149.379 20.5741 149.16 21.8927 149.229 23.2122C149.248 25.2293 150.048 27.1605 151.463 28.599C153.026 30.1361 154.944 31.2643 157.047 31.8837C162.138 33.8872 163.616 35.1683 163.616 37.5004C163.638 38.4838 163.325 39.4455 162.728 40.2274C162.131 41.0094 161.286 41.5651 160.331 41.8033C159.184 42.0553 157.997 42.0553 156.85 41.8033C155.348 41.2205 154.007 40.2875 152.939 39.0821C151.871 37.8766 151.105 36.4334 150.707 34.8727L150.28 33.8215H149.689C149.406 33.8426 149.129 33.9091 148.868 34.0187H148.539V43.3471H149.098C151.317 44.0852 153.606 44.5916 155.93 44.858H159.215C160.639 44.9625 162.071 44.8294 163.451 44.4638C165.204 44.1404 166.842 43.3639 168.202 42.2114C169.562 41.059 170.598 39.5708 171.203 37.8945C171.595 36.9584 171.796 35.9532 171.794 34.9384C171.924 33.5085 171.675 32.0698 171.072 30.7668ZM140.131 13.7852C138.162 12.9588 136.042 12.5579 133.907 12.6088C131.773 12.6598 129.674 13.1614 127.747 14.0808C125.937 14.9666 124.331 16.2223 123.036 17.7669C121.74 19.3114 120.783 21.1105 120.226 23.0479C119.515 25.1614 119.214 27.3909 119.339 29.6172C119.315 30.8285 119.414 32.039 119.634 33.2303C120.165 36.1595 121.579 38.8565 123.687 40.9585C125.795 43.0604 128.496 44.4672 131.426 44.9894C133.335 45.2299 135.266 45.2299 137.174 44.9894C139.155 44.6404 141.05 43.9157 142.758 42.8543C144.171 42.0623 145.367 40.9342 146.24 39.5696C146.184 39.3557 146.085 39.1551 145.95 38.9801C145.814 38.8052 145.645 38.6593 145.452 38.5514C145.077 38.6872 144.723 38.8752 144.401 39.1099C142.767 40.1866 140.838 40.7263 138.882 40.6537C137.585 40.7414 136.284 40.5393 135.074 40.0621C133.863 39.585 132.775 38.8445 131.886 37.8945C131.199 37.2561 130.631 36.4996 130.211 35.661C129.19 33.6191 128.64 31.3742 128.601 29.0917V27.8107H146.799V27.1538C146.839 26.4973 146.839 25.8393 146.799 25.183C146.792 22.8637 146.172 20.5873 145 18.5855C143.829 16.5836 142.149 14.9274 140.131 13.7852ZM130.966 25.1501H128.667V23.2122C129.423 18.2522 131.295 15.2961 133.594 15.2961C135.893 15.2961 136.879 18.2194 137.306 23.5735V25.0844H135.335L130.966 25.1501ZM83.7331 12.7012C82.598 12.6572 81.4699 12.8941 80.4484 13.391C78.2283 14.4691 76.4352 16.2622 75.3572 18.4822L74.9301 19.2706V12.7012H74.766C74.3718 12.7012 62.2186 15.1319 61.8244 15.2961C61.4302 15.4603 61.5617 15.4932 61.5617 16.0844C61.5617 16.6756 61.5617 16.7742 61.8244 16.807L63.1053 17.0699C63.4642 17.0786 63.8163 17.1689 64.1349 17.334C64.4535 17.4991 64.7306 17.7345 64.9448 18.0224C65.766 19.1063 65.9303 21.0114 65.9303 29.1246C66.0924 32.7769 65.9386 36.4365 65.4704 40.0625C65.3601 40.6091 65.0828 41.1082 64.6769 41.4906C64.2709 41.873 63.7562 42.12 63.2039 42.1974L62.0871 42.4273H61.6601V43.3471C61.5411 43.6535 61.5411 43.9933 61.6601 44.2997H80.0214V43.3471C80.085 43.0328 80.085 42.7089 80.0214 42.3946C78.916 42.3514 77.8165 42.2086 76.7368 41.9676C76.1487 41.66 75.6677 41.1815 75.3569 40.5952C75.0461 40.0088 74.9203 39.3421 74.9959 38.6829C74.7331 36.7778 74.6017 31.1938 74.6674 26.9238C74.7331 22.6537 74.6674 22.391 75.0287 22.0954C76.1278 21.2526 77.488 20.8224 78.8717 20.8799C80.1761 20.9085 81.4569 21.2342 82.6162 21.8325C83.0181 22.0557 83.4494 22.2216 83.8973 22.3253C83.8973 22.3253 87.182 14.3764 87.182 14.0151C86.7616 13.5266 86.2261 13.1507 85.624 12.9213C85.0217 12.6919 84.3718 12.6162 83.7331 12.7012ZM61.5944 26.4969C61.4799 24.1496 60.806 21.8638 59.6289 19.8297C58.452 17.7957 56.8059 16.0724 54.8281 14.8034C52.4776 13.5353 49.8624 12.8362 47.1928 12.762C44.523 12.6878 41.8731 13.2408 39.4558 14.3764C36.0382 16.1786 33.4576 19.2422 32.2625 22.9166C31.028 27.0303 31.028 31.4158 32.2625 35.5296C32.9097 37.7778 34.1192 39.824 35.7771 41.4748C37.8417 43.4895 40.5041 44.7804 43.3646 45.1536C45.2009 45.3072 47.0465 45.3072 48.8828 45.1536C49.5586 45.0509 50.2275 44.9082 50.8865 44.7267C53.5601 43.9788 55.9654 42.4849 57.821 40.4199C59.6765 38.3549 60.9057 35.8042 61.3645 33.0662C61.6924 30.8924 61.7696 28.6882 61.5944 26.4969ZM47.9302 42.9201C44.6456 43.9055 42.1821 40.7194 41.3609 34.0187C41.0594 30.5105 41.0594 26.983 41.3609 23.4749C42.0178 18.0881 43.693 15.3618 46.288 15.3618C46.8115 15.3294 47.3351 15.4228 47.8152 15.6342C48.2952 15.8456 48.7176 16.1689 49.0471 16.577C51.2478 18.7778 52.3317 23.1464 52.3317 29.7157C52.605 33.4335 52.0206 37.1645 50.6236 40.6208C50.0068 41.6288 49.0525 42.3853 47.9302 42.7559V42.9201ZM107.054 13.3581C106.127 13.2389 105.189 13.2389 104.262 13.3581C102.483 13.3566 100.724 13.7375 99.1052 14.4749L98.087 14.9019V7.77422C98.265 5.36876 98.265 2.95344 98.087 0.547974C97.6929 0.547974 85.1455 2.94578 84.9483 3.04431C84.8515 3.28682 84.8515 3.55728 84.9483 3.79979C84.9483 4.48956 84.9483 4.45672 86.4265 4.78519C86.8415 4.87826 87.2402 5.03328 87.609 5.24504C88.2501 5.84796 88.6769 6.64377 88.8243 7.51145C89.1982 10.0111 89.3193 12.5422 89.1856 15.0662V43.9055L90.0724 44.1025C91.3863 44.3981 95.0979 45.0223 96.3134 45.1536C98.7401 45.3467 101.178 45.3467 103.605 45.1536C106.299 44.8785 108.866 43.8735 111.031 42.2471C113.196 40.6206 114.876 38.4343 115.89 35.9237C116.494 34.3124 116.913 32.6373 117.138 30.9311C117.334 28.6198 117.256 26.2936 116.908 24.0005C116.556 21.43 115.421 19.0299 113.658 17.1263C111.896 15.2224 109.59 13.9069 107.054 13.3581ZM98.4483 42.3616C98.4483 41.9347 98.1199 27.5478 98.1856 21.7997V17.2998L99.1381 17.0699C99.7808 16.9777 100.433 16.9777 101.076 17.0699C101.787 16.9975 102.502 17.159 103.112 17.5296C104.339 18.3762 105.358 19.49 106.092 20.7873C106.826 22.0845 107.256 23.5312 107.35 25.0187C107.589 27.4106 107.589 29.8202 107.35 32.212C107.153 35.6885 105.814 39.0024 103.54 41.639C102.894 42.2522 102.084 42.6632 101.208 42.8215C100.545 42.9368 99.8667 42.9368 99.2038 42.8215C98.5798 42.8215 98.5796 42.6245 98.5796 42.3616H98.4483Z" fill="white"/>
</g>
<defs>
<clipPath id="clip0_409_54">
<rect width="170.984" height="46.3416" fill="white" transform="translate(0.843689 0.547974)"/>
</clipPath>
</defs>
</svg>
