<svg width="124" height="47" viewBox="0 0 124 47" fill="none" xmlns="http://www.w3.org/2000/svg">
<g clip-path="url(#clip0_409_36)">
<path fill-rule="evenodd" clip-rule="evenodd" d="M44.2295 14.2045V27.8622H47.8015H51.1634V22.6093C51.1634 19.1423 51.1634 17.2513 51.1634 17.0411C51.2684 16.5159 51.3735 15.9906 51.6887 15.5703C52.1089 14.8349 52.8443 14.5198 53.6847 14.6247C54.8404 14.7298 55.5758 15.3602 55.7859 16.726C55.7859 16.9361 55.7859 19.0372 55.7859 22.3991V27.7571H59.1478H62.5097V21.4536C62.5097 16.0956 62.5097 15.0451 62.4046 14.5198C62.1945 12.6287 61.5642 11.1579 60.4085 10.1073C59.4629 9.16177 58.3074 8.63648 56.9416 8.42637C56.4163 8.32131 54.9455 8.42637 54.5253 8.53142C53.2645 8.8466 52.319 9.26683 51.4785 10.2124L50.9532 10.6326V5.58979V0.546997H47.5914H44.2295V14.2045ZM115.88 0.757115C115.669 1.17735 108.84 17.6715 108.84 17.6715C108.84 17.6715 110.626 17.6715 112.833 17.6715H116.825L120.397 9.16177C122.393 4.43416 123.969 0.546997 123.969 0.546997C123.969 0.546997 122.182 0.546997 119.976 0.546997H115.984L115.88 0.757115ZM29.7315 8.53142C28.2607 8.74154 27.105 9.16177 25.9494 9.89718C23.6381 11.368 22.1674 13.8894 21.747 16.831C21.537 18.1968 21.642 19.8777 21.9572 21.1384C22.7976 24.3952 25.0039 26.9167 27.8405 27.8622C28.891 28.1773 29.3113 28.2824 30.572 28.2824C31.5175 28.2824 31.8326 28.2824 32.1479 28.1773C33.5136 27.8622 34.4591 27.3369 35.2996 26.4964L35.7198 26.0761V26.9167V27.7571H38.9766H42.2334V18.3019V8.8466H38.9766H35.7198V9.68706V10.5275L35.4047 10.2124C34.6692 9.37189 33.6186 8.8466 32.2528 8.53142C31.8326 8.42637 31.6226 8.42637 30.782 8.42637C30.2568 8.53143 29.8365 8.53142 29.7315 8.53142ZM72.5953 8.53142C70.8092 8.74154 68.9182 9.582 67.5524 10.6326C64.926 12.8388 63.5603 16.3057 64.0856 19.8777C64.6108 23.8699 67.4475 26.9167 71.4396 27.9671C72.28 28.1773 73.1206 28.2824 74.1711 28.2824C76.0621 28.2824 77.428 27.9673 78.8988 27.2318C81.8403 25.761 83.7314 23.1346 84.1516 19.8777C84.2567 19.0372 84.2567 17.6715 84.1516 16.9361C83.9416 15.3602 83.3112 13.7843 82.3657 12.5237C81.9454 11.9984 81.105 11.0528 80.5797 10.6326C79.1089 9.47695 77.428 8.74154 75.5369 8.53142C74.8015 8.42637 73.3307 8.42637 72.5953 8.53142ZM94.0272 8.53142C92.2412 8.74154 90.4551 9.47695 89.0894 10.6326C88.5641 11.0528 87.6186 11.9984 87.3034 12.5237C86.3579 13.7843 85.8326 15.3602 85.5175 16.9361C85.4124 17.6715 85.4124 19.1423 85.5175 19.8777C86.1477 24.0801 89.1945 27.3369 93.3968 28.1773C94.2372 28.3875 94.6574 28.3875 95.603 28.3875C97.389 28.3875 98.9648 28.0722 100.436 27.2318C104.323 25.2357 106.424 20.8232 105.479 16.3057C104.638 12.1034 101.276 9.05671 96.9688 8.53142C96.2334 8.42637 94.7625 8.42637 94.0272 8.53142ZM0 8.95166C0 8.95166 1.78598 13.259 3.99221 18.5119C6.19844 23.7648 7.98443 28.0722 7.98443 28.0722C7.98443 28.0722 7.35408 29.6481 6.51361 31.5392C5.67315 33.4302 5.04279 34.9011 5.04279 35.0061C5.04279 35.1112 6.61867 35.0061 8.61477 35.0061H12.1867L17.5447 22.084C20.4864 14.94 22.9027 9.16177 22.9027 9.05671C22.9027 9.05671 22.1674 8.95166 19.3307 9.05671H15.7587L13.5526 14.5198C12.607 17.4614 11.6615 19.9827 11.6615 19.9827C11.6615 19.9827 10.7159 17.4614 9.45525 14.5198L7.35408 9.05671H3.67704C1.68094 8.95166 0 8.95166 0 8.95166ZM32.9883 14.6247C34.3541 14.94 35.4047 15.9906 35.8249 17.3563C35.93 17.8817 35.93 18.8272 35.8249 19.3525C35.5098 20.7182 34.4591 21.7687 33.0934 22.084C32.5681 22.189 31.6226 22.189 31.0973 22.084C29.9416 21.7687 28.891 20.9283 28.4708 19.8777C27.9455 18.7221 28.1556 17.2513 28.786 16.2007C29.7315 14.8349 31.3073 14.3096 32.9883 14.6247ZM74.9066 14.7298C76.3774 14.94 77.533 16.0956 77.8482 17.5664C77.9532 18.0917 77.9532 18.9321 77.8482 19.4574C77.533 20.8232 76.4825 21.7687 75.2217 22.189C74.8015 22.294 73.6459 22.294 73.2256 22.189C72.1751 21.8738 71.3345 21.1384 70.8092 20.1929C70.4941 19.5625 70.4941 19.2474 70.4941 18.5119C70.4941 17.8817 70.5992 17.5664 70.8092 17.0411C71.1245 16.4108 71.5447 15.7804 72.1751 15.3602C72.8053 14.7298 73.8559 14.5198 74.9066 14.7298ZM96.2334 14.7298C97.494 14.94 98.5446 15.7804 98.9648 16.9361C99.175 17.4614 99.2801 17.7766 99.2801 18.407C99.2801 19.1423 99.175 19.4574 98.9648 20.0878C98.5446 21.0334 97.5991 21.7687 96.5486 22.084C96.1283 22.189 94.9727 22.189 94.5525 22.084C93.2917 21.7687 92.2412 20.7182 91.926 19.3525C91.8209 18.8272 91.8209 17.8817 91.926 17.3563C92.3462 15.6754 93.817 14.5198 95.498 14.5198C95.7081 14.6247 96.0233 14.6248 96.2334 14.7298ZM110.521 19.3525C108.525 19.5625 107.054 21.0334 106.634 22.9244C106.529 23.4497 106.529 24.3952 106.634 24.9205C107.054 26.6014 108.315 27.7571 109.996 28.1773C110.206 28.1773 110.626 28.2824 110.941 28.2824C112.202 28.2824 113.253 27.8622 114.093 27.0216C115.039 26.0761 115.354 25.1306 115.354 23.8699C115.354 22.294 114.619 20.9283 113.358 20.1929C112.517 19.4574 111.362 19.2474 110.521 19.3525ZM55.1556 29.6481C53.7898 30.0684 53.1595 31.6443 53.8949 32.7998C54.1051 33.1151 54.5253 33.5353 54.8404 33.6404C55.1556 33.7454 55.1556 33.7454 55.7859 33.7454C56.3112 33.7454 56.4163 33.7454 56.7315 33.6404C57.1517 33.4302 57.5719 33.01 57.7821 32.5898C58.3074 31.5392 57.7821 30.2785 56.7315 29.7532C56.4163 29.5431 56.3112 29.5431 55.891 29.5431C55.4708 29.5431 55.3657 29.5431 55.1556 29.6481ZM49.4824 29.7532C47.6965 30.0684 46.5408 31.2241 46.0155 33.1151C45.9105 33.4302 45.9105 33.7454 45.9105 34.1656V34.9011H45.175H44.4397V36.477V38.0528H45.175H45.9105V41.8348V45.6169H47.9066H49.9026V41.8348V38.0528H51.2684H52.6342V36.477V34.9011H51.2684H49.9026V34.5859C50.0077 33.8504 50.3229 33.3251 50.9532 33.2201C51.3735 33.1151 52.0038 33.1151 52.4241 33.3251C52.6342 33.4302 52.7392 33.4302 52.7392 33.4302C52.7392 33.4302 52.7392 32.6949 52.7392 31.7494V30.0684L52.4241 29.9633C52.0038 29.7532 51.4785 29.7532 50.7432 29.7532C50.2179 29.6481 49.7977 29.7532 49.4824 29.7532ZM65.4513 34.6909C64.6109 34.9011 63.9805 35.3213 63.5603 35.8466L63.3501 36.1617V35.5314V34.9011H61.354H59.358V40.2591V45.6169H61.354H63.3501V42.6754C63.3501 40.9944 63.3501 39.6287 63.3501 39.4185C63.4552 38.9983 63.6653 38.5781 63.8754 38.368C64.4007 37.9478 65.3463 38.0528 65.7665 38.5781C66.0816 38.9983 66.0816 38.9983 66.0816 42.3602V45.512H68.0777H70.0739V41.9399C70.0739 38.1578 70.0739 37.7376 69.8637 37.0023C69.6536 36.3719 69.4435 35.8466 68.9182 35.4264C68.4979 35.0061 68.0777 34.6909 67.4475 34.5859C66.9222 34.5859 65.8716 34.5859 65.4513 34.6909ZM75.4319 34.5859C74.8015 34.6909 73.8559 35.0061 73.3307 35.4264C72.1751 36.2668 71.4396 37.5275 71.1245 39.1034C71.0194 39.7338 71.0194 40.8893 71.1245 41.5197C71.3345 42.4652 71.6498 43.4108 72.1751 44.0411C72.9104 44.9867 73.8559 45.6169 75.0116 45.8271C75.6419 45.9322 76.6925 45.9322 77.2178 45.722C77.8482 45.512 78.2684 45.3018 78.7937 44.8816L79.214 44.4614V44.9867V45.512H81.2101H83.2061V40.154V34.796H81.2101H79.214V35.3213V35.8466L78.8988 35.7415C78.3735 35.2162 77.638 34.796 76.7976 34.6909C76.4825 34.5859 75.747 34.5859 75.4319 34.5859ZM90.6653 34.6909C89.9298 34.796 89.1945 35.3213 88.7743 35.8466L88.5641 36.0567V35.4264V34.796H86.568H84.5719V40.154V45.512H86.568H88.5641V42.4652C88.5641 39.2085 88.5641 39.2085 88.7743 38.6831C88.9843 38.2629 89.4045 38.0528 89.8249 38.0528C90.2451 38.0528 90.4551 38.1578 90.7704 38.368C91.1906 38.7882 91.1906 38.6831 91.1906 42.2551V45.4069H93.1867H95.1827V41.5197C95.1827 37.6325 95.1827 37.6325 95.0778 37.2123C94.9727 37.0023 94.8676 36.5819 94.7625 36.2668C94.5525 35.8466 94.4474 35.7415 94.1323 35.4264C93.7119 35.0061 93.3968 34.796 92.9766 34.5859C92.2412 34.5859 91.4007 34.4808 90.6653 34.6909ZM101.066 34.6909C99.2801 35.0061 97.9143 35.8466 97.0738 37.3174C96.5786 38.3079 96.3384 39.1567 96.3384 40.2591C96.3384 40.2591 96.3384 41.5197 96.6536 42.2551C97.284 44.0411 98.7548 45.4069 100.751 45.8271C101.066 45.9322 101.381 45.9322 102.117 45.9322C103.167 45.9322 103.587 45.8271 104.323 45.512L104.743 45.3018V43.5158V41.7299L104.428 41.9399C103.903 42.2552 103.587 42.3602 102.957 42.3602C102.327 42.3602 102.012 42.3602 101.591 42.1501C101.171 41.9399 100.856 41.6248 100.646 41.2046C100.541 40.8893 100.541 40.8893 100.541 40.3641C100.541 39.9438 100.541 39.8388 100.646 39.5236C100.961 38.6831 101.696 38.2629 102.747 38.1578C103.482 38.1578 103.798 38.1578 104.848 38.6831C104.848 38.6831 104.848 37.8427 104.848 36.8972V35.1112L104.533 35.0061C103.377 34.5859 102.117 34.4808 101.066 34.6909ZM110.101 34.6909C107.054 35.2162 105.163 37.8427 105.373 40.8893C105.479 41.9399 105.794 42.8855 106.319 43.6209C107.054 44.7765 108.21 45.512 109.681 45.8271C110.311 45.9322 111.992 45.9322 112.728 45.8271C113.778 45.6169 114.724 45.0918 115.459 44.3563C115.774 44.0411 116.3 43.3057 116.3 43.3057C116.3 43.3057 115.564 42.9905 114.619 42.6754L112.938 42.045L112.728 42.2551C112.412 42.5703 112.202 42.6754 111.782 42.7804C110.626 43.0956 109.471 42.4652 109.261 41.4146V41.2046H112.938H116.615V40.2591C116.615 39.6287 116.615 39.2084 116.51 38.9983C116.3 37.7376 115.774 36.8972 115.039 36.0567C114.303 35.3213 113.463 34.9011 112.307 34.6909C111.887 34.5859 110.626 34.5859 110.101 34.6909ZM53.7898 40.2591V45.6169H55.7859H57.7821V40.2591V34.9011H55.7859H53.7898V40.2591ZM111.677 37.6325C111.992 37.7376 112.097 37.8427 112.412 38.0528C112.622 38.2629 112.833 38.473 112.833 38.7882V38.9983H111.047C109.05 38.9983 109.156 38.9983 109.366 38.5781C109.681 37.8427 110.626 37.4225 111.677 37.6325ZM77.7431 38.1578C78.2684 38.2629 78.8988 38.7882 79.1089 39.3135C79.6342 40.4691 79.1089 41.8349 77.8482 42.2551C77.428 42.3602 76.7976 42.3602 76.3774 42.2551C75.747 42.045 75.1166 41.5197 75.0116 40.8893C74.9066 40.5742 74.9066 40.4691 74.9066 40.154C74.9066 39.7338 74.9066 39.6287 75.1166 39.3135C75.5369 38.368 76.5874 37.9478 77.7431 38.1578Z" fill="white"/>
</g>
<defs>
<clipPath id="clip0_409_36">
<rect width="123.969" height="46.3435" fill="white" transform="translate(0 0.546997)"/>
</clipPath>
</defs>
</svg>
