<svg width="244" height="47" viewBox="0 0 244 47" fill="none" xmlns="http://www.w3.org/2000/svg">
<g clip-path="url(#clip0_409_39)">
<path d="M0.96875 0.548096H18.7712C22.1621 0.548096 24.7053 1.39504 26.5892 2.8066C28.6614 4.50048 29.7917 6.94719 29.7917 9.95852C29.7917 13.4404 28.3789 15.6048 25.553 16.9222V17.1105C29.3207 18.3338 31.4872 21.7216 31.4872 25.7681C31.4872 29.6263 29.98 32.6377 27.531 34.5198C25.4588 36.0255 22.8214 36.6841 19.2421 36.6841H0.96875V0.548096ZM16.9815 14.6637C18.8654 14.6637 20.2782 13.6286 20.2782 11.4642C20.2782 9.3939 18.8653 8.35875 16.8873 8.35875H10.7648V14.5696H16.9815V14.6637ZM17.8292 28.6852C19.9957 28.6852 21.5969 27.3678 21.5969 25.0152C21.5969 22.4744 19.9016 21.3451 17.8292 21.3451H10.859V28.7794H17.8292V28.6852Z" fill="white"/>
<path d="M33.089 0.548096H42.4141V36.7782H33.089V0.548096Z" fill="white"/>
<path d="M44.2975 23.8863C44.2975 15.6991 49.5722 10.2411 57.767 10.2411C65.9616 10.2411 71.1424 15.7933 71.1424 23.8863C71.1424 32.0733 65.9616 37.5314 57.767 37.5314C49.5722 37.5314 44.2975 32.0733 44.2975 23.8863ZM61.8172 23.8863C61.8172 19.3693 60.4044 16.5461 57.5785 16.5461C54.7528 16.5461 53.4341 19.3693 53.4341 23.8863C53.4341 28.4032 54.7528 31.3205 57.5785 31.3205C60.4044 31.2264 61.8172 28.4032 61.8172 23.8863Z" fill="white"/>
<path d="M72.1789 23.8863C72.1789 15.6991 77.4537 10.2411 85.6485 10.2411C93.8433 10.2411 98.9297 15.6991 98.9297 23.8863C98.9297 32.0733 93.7491 37.5314 85.5543 37.5314C77.4537 37.5314 72.1789 32.0733 72.1789 23.8863ZM89.6989 23.8863C89.6989 19.3693 88.2858 16.5461 85.4601 16.5461C82.6344 16.5461 81.3156 19.3693 81.3156 23.8863C81.3156 28.4032 82.6344 31.3205 85.4601 31.3205C88.2858 31.2264 89.6989 28.4032 89.6989 23.8863Z" fill="white"/>
<path d="M100.813 10.8993H109.479V14.7576H109.667C111.362 11.7463 113.717 10.1465 117.485 10.1465C120.782 10.1465 123.231 11.7463 124.455 14.5694H124.644C126.716 11.1816 129.448 10.1465 132.65 10.1465C138.678 10.1465 141.222 14.5694 141.222 20.498V36.6839H132.179V22.0977C132.179 19.4628 131.331 17.7689 129.071 17.7689C126.81 17.7689 125.68 19.8392 125.68 22.6623V36.6839H116.637V22.0977C116.637 19.4628 115.79 17.7689 113.529 17.7689C111.268 17.7689 110.138 19.8392 110.138 22.6623V36.6839H100.813V10.8993Z" fill="white"/>
<path d="M152.619 33.2963H152.524V36.6841H143.859V0.548096H152.901V13.5345H153.09C154.785 11.276 157.14 10.0526 160.437 10.0526C166.936 10.0526 170.704 15.8871 170.704 23.6978C170.704 32.4494 166.653 37.531 159.872 37.531C157.046 37.531 154.126 36.2136 152.619 33.2963ZM161.379 23.6036C161.379 19.4631 159.872 16.734 157.14 16.734C154.314 16.734 152.619 19.4631 152.619 23.6036C152.619 27.7443 154.408 30.4732 157.14 30.4732C159.872 30.4732 161.379 27.8383 161.379 23.6036Z" fill="white"/>
<path d="M171.74 23.7916C171.74 15.6986 177.109 10.1465 184.833 10.1465C188.695 10.1465 191.615 11.3698 193.876 13.5342C196.89 16.4515 198.208 20.9685 198.114 26.2384H180.783C181.16 29.4378 182.667 31.1317 185.398 31.1317C186.999 31.1317 188.412 30.3789 188.977 28.685H197.737C196.23 34.6136 191.615 37.5308 185.116 37.5308C177.109 37.4367 171.74 31.9786 171.74 23.7916ZM180.783 21.0626H189.072C188.882 17.9571 187.188 16.3574 185.022 16.3574C182.478 16.2633 181.065 18.0512 180.783 21.0626Z" fill="white"/>
<path d="M208.381 15.3226H208.57C210.453 11.7466 212.902 10.3351 216.011 10.3351C216.763 10.3351 217.236 10.4292 217.518 10.6174V18.5222H217.329C211.96 17.5811 208.852 20.1219 208.852 25.9564V36.7784H199.715V10.8997H208.381V15.3226Z" fill="white"/>
<path d="M218.459 36.778H227.22C227.596 37.9073 228.727 38.9426 230.892 38.9426C233.813 38.9426 234.849 37.1545 234.849 34.4256V32.5434H234.66C233.248 34.2372 231.27 35.4607 228.443 35.4607C222.886 35.4607 217.989 31.32 217.989 23.2271C217.989 15.7928 221.944 10.0525 227.972 10.0525C231.457 10.0525 233.53 11.464 234.942 13.6284H235.131V10.8053H243.797V33.2022C243.797 37.3427 242.384 40.5422 240.217 42.4244C237.956 44.4006 234.755 45.2476 231.081 45.2476C224.111 45.3415 219.306 42.5184 218.459 36.778ZM235.226 22.8506C235.226 19.6511 233.719 17.0162 231.081 17.0162C228.538 17.0162 226.936 19.2748 226.936 22.8506C226.936 26.3325 228.538 28.7792 231.081 28.7792C233.624 28.7792 235.226 26.2384 235.226 22.8506Z" fill="white"/>
</g>
<defs>
<clipPath id="clip0_409_39">
<rect width="242.828" height="46.3412" fill="white" transform="translate(0.96875 0.548096)"/>
</clipPath>
</defs>
</svg>
