<svg width="40" height="40" viewBox="0 0 40 40" fill="none" xmlns="http://www.w3.org/2000/svg">
<g clip-path="url(#clip0_409_71)">
<g clip-path="url(#clip1_409_71)">
<g clip-path="url(#clip2_409_71)">
<path d="M19.9509 21.9861C21.1608 21.9861 22.1417 21.0052 22.1417 19.7953C22.1417 18.5854 21.1608 17.6045 19.9509 17.6045C18.7409 17.6045 17.7601 18.5854 17.7601 19.7953C17.7601 21.0052 18.7409 21.9861 19.9509 21.9861Z" fill="#6FDBD4"/>
<path d="M19.8822 3.3645C15.5244 3.3645 11.3452 5.09561 8.26374 8.177C5.18234 11.2584 3.45123 15.4377 3.45123 19.7954C3.45123 24.1532 5.18234 28.3324 8.26374 31.4138C11.3452 34.4952 15.5244 36.2263 19.8822 36.2263C24.2399 36.2263 28.4192 34.4952 31.5005 31.4138C34.5819 28.3324 36.3131 24.1532 36.3131 19.7954C36.3131 15.4377 34.5819 11.2584 31.5005 8.177C28.4192 5.09561 24.2399 3.3645 19.8822 3.3645ZM30.5732 10.7037L25.2057 18.3714C25.5912 19.7469 25.417 21.2189 24.7214 22.4666C24.0258 23.7142 22.865 24.6362 21.4924 25.0314C20.9907 25.1771 20.4702 25.2472 19.9479 25.2395C18.5027 25.2601 17.108 24.7086 16.0677 23.7053C15.0274 22.7019 14.4259 21.328 14.3942 19.8831C14.3827 19.1638 14.5129 18.4493 14.7774 17.7803C15.042 17.1114 15.4357 16.5011 15.9362 15.9844C16.4367 15.4676 17.0341 15.0546 17.6942 14.7687C18.3543 14.4829 19.0642 14.3299 19.7835 14.3185C20.3163 14.3161 20.847 14.386 21.3609 14.5266L29.0286 9.15914C29.138 9.06562 29.2646 8.99456 29.4014 8.95002C29.5382 8.90546 29.6825 8.88829 29.8259 8.89948C29.9693 8.91067 30.1091 8.95 30.2373 9.01523C30.3656 9.08045 30.4797 9.17029 30.5732 9.27963C30.7429 9.47804 30.8361 9.73055 30.8361 9.99163C30.8361 10.2527 30.7429 10.5052 30.5732 10.7037Z" fill="#6FDBD4"/>
</g>
</g>
</g>
<defs>
<clipPath id="clip0_409_71">
<rect width="38.6094" height="38.6094" fill="white" transform="translate(0.578125 0.46875)"/>
</clipPath>
<clipPath id="clip1_409_71">
<rect width="38.6094" height="38.6094" fill="white" transform="translate(0.578125 0.46875)"/>
</clipPath>
<clipPath id="clip2_409_71">
<rect width="38.6094" height="38.6094" fill="white" transform="translate(0.578125 0.46875)"/>
</clipPath>
</defs>
</svg>
