<svg width="31" height="31" viewBox="0 0 31 31" fill="none" xmlns="http://www.w3.org/2000/svg">
<g clip-path="url(#clip0_409_367)">
<path d="M27.582 8.81781C26.9505 9.66032 26.187 10.3953 25.3211 10.9942C25.3211 11.2143 25.3211 11.4344 25.3211 11.6667C25.328 15.6634 23.7315 19.4958 20.8895 22.3047C18.0474 25.1134 14.1976 26.6638 10.2031 26.6081C7.89371 26.6158 5.61394 26.0885 3.54234 25.0676C3.43063 25.0186 3.35859 24.9082 3.359 24.7863V24.6517C3.359 24.4762 3.50127 24.3339 3.67677 24.3339C5.9468 24.259 8.13584 23.472 9.93418 22.0841C7.87949 22.0427 6.0308 20.8255 5.18002 18.954C5.13704 18.8518 5.15042 18.7344 5.21531 18.6446C5.28022 18.5547 5.38727 18.5052 5.49778 18.5138C6.12223 18.5766 6.75294 18.5185 7.35544 18.3426C5.08724 17.8719 3.38293 15.9888 3.13902 13.6841C3.13036 13.5736 3.1799 13.4665 3.26976 13.4016C3.35962 13.3366 3.47681 13.3233 3.579 13.3663C4.18768 13.6348 4.84475 13.7763 5.51 13.782C3.52251 12.4775 2.66404 9.99641 3.42012 7.74184C3.49815 7.52276 3.68566 7.36092 3.91372 7.31578C4.14176 7.27066 4.37674 7.34889 4.53227 7.52174C7.21426 10.3761 10.8994 12.077 14.8106 12.2658C14.7104 11.8661 14.6611 11.4552 14.6639 11.0431C14.7005 8.88216 16.0377 6.95713 18.0493 6.16926C20.061 5.38139 22.3489 5.88661 23.8422 7.44839C24.8602 7.25448 25.8443 6.91258 26.7632 6.43355C26.8305 6.39153 26.9159 6.39153 26.9832 6.43355C27.0252 6.50089 27.0252 6.5863 26.9832 6.65364C26.538 7.67288 25.7861 8.52775 24.8322 9.09904C25.6676 9.00216 26.4882 8.80511 27.2765 8.51214C27.3429 8.46696 27.4302 8.46696 27.4965 8.51214C27.5521 8.53758 27.5936 8.58622 27.6101 8.64512C27.6267 8.70401 27.6164 8.76719 27.582 8.81781Z" fill="white"/>
</g>
<defs>
<clipPath id="clip0_409_367">
<rect width="30.875" height="29.375" fill="white" transform="translate(0.125 0.90625)"/>
</clipPath>
</defs>
</svg>
