<svg width="31" height="31" viewBox="0 0 31 31" fill="none" xmlns="http://www.w3.org/2000/svg">
<g clip-path="url(#clip0_409_375)">
<path fill-rule="evenodd" clip-rule="evenodd" d="M23.2346 6.21824L25.0216 6.40183C27.1373 6.64096 28.7259 8.44673 28.6936 10.5755V20.612C28.7259 22.7408 27.1373 24.5465 25.0216 24.7858L23.308 24.9694C17.9612 25.52 12.5718 25.52 7.22484 24.9694L5.43782 24.7858C3.32217 24.5465 1.73348 22.7408 1.76585 20.612V10.5755C1.73348 8.44673 3.32217 6.64096 5.43782 6.40183L7.1514 6.21824C12.4983 5.66749 17.8877 5.66749 23.2346 6.21824ZM14.1404 19.5348L18.9016 16.3526H18.9751C19.2317 16.1855 19.3865 15.9 19.3865 15.5937C19.3865 15.2875 19.2317 15.0021 18.9751 14.8349L14.2138 11.6526C13.9327 11.4626 13.5697 11.4431 13.2699 11.602C12.9701 11.7609 12.7824 12.0721 12.7817 12.4114V18.7761C12.7975 19.0919 12.9748 19.3774 13.2509 19.5316C13.5271 19.6858 13.8631 19.6871 14.1404 19.5348Z" fill="white"/>
</g>
<defs>
<clipPath id="clip0_409_375">
<rect width="30.875" height="29.375" fill="white" transform="translate(0.125 0.90625)"/>
</clipPath>
</defs>
</svg>
